<?xml version="1.0" encoding="UTF-8"?>
<svg width="622px" height="173px" viewBox="0 0 622 173" version="1.1" xmlns="http://www.w3.org/2000/svg" xmlns:xlink="http://www.w3.org/1999/xlink">
    <!-- Generator: Sketch 48.2 (47327) - http://www.bohemiancoding.com/sketch -->
    <title>Davco_Logo</title>
    <desc>Created with Sketch.</desc>
    <defs></defs>
    <g id="Page-1" stroke="none" stroke-width="1" fill="none" fill-rule="evenodd">
        <g id="Davco_Logo" fill="#000105">
            <g id="Group-2" transform="translate(15.000000, 14.000000)">
                <g id="Group">
                    <path d="M98.8285065,112.179686 C98.8285065,116.784547 97.9407,121.087818 96.1693452,125.098022 C94.3969258,129.109292 91.9964419,132.625015 88.9796032,135.647321 C85.9563774,138.674956 82.4424097,141.040796 78.439829,142.748036 C74.4308613,144.458474 70.1312806,145.313161 65.5357645,145.313161 L45.2439581,145.313161 C51.676829,142.550883 56.9323452,138.21138 61.0051839,132.29465 C65.0737645,126.378985 67.1112484,119.674708 67.1112484,112.179686 L67.1112484,110.799613 L67.1112484,78.8490584 C74.2041194,78.5879635 80.5720548,76.4523139 86.2203774,72.4410438 C91.866571,68.4319051 96.0703452,63.2696861 98.8285065,56.9597153 L98.8285065,112.179686 Z M32.0450226,145.313161 C27.5793774,145.18208 23.4086032,144.226153 19.5358935,142.452839 C15.6610548,140.676328 12.2769581,138.279584 9.38999032,135.253015 C6.49982903,132.230708 4.23453871,128.745891 2.59518387,124.801759 C0.951570968,120.857628 0.131893548,116.65027 0.131893548,112.179686 C0.131893548,107.711234 0.951570968,103.501745 2.59518387,99.5576131 C4.23453871,95.6145474 6.46682903,92.1307956 9.29205484,89.1042263 C12.1151516,86.0819197 15.4651839,83.6809124 19.3389581,81.9075985 C23.2127323,80.1310876 27.3824419,79.1154818 31.8491516,78.8490584 L31.8491516,110.799613 L31.8491516,112.179686 C31.8491516,118.09535 33.1585065,123.586869 35.7899903,128.647847 C38.4140226,133.709891 42.0248613,137.950285 46.6246355,141.365832 C42.1568613,143.864883 37.2962806,145.18208 32.0450226,145.313161 Z" id="Fill-93"></path>
                    <path d="M67.8597097,40.2347226 L98.0802581,40.2347226 L98.0802581,0.373525547 C94.0159355,0.699627737 90.1666452,1.68645985 86.6303226,3.30631387 C82.8619355,5.03380292 79.563,7.39857664 76.8186774,10.3356277 C74.0690323,13.2812044 71.8654839,16.7223285 70.2665806,20.565219 C68.6698065,24.3942555 67.8597097,28.5440657 67.8597097,32.8995547 L67.8597097,40.2347226 Z M33.4247419,44.6914526 C28.9505806,44.6914526 24.6776129,45.5663869 20.7208065,47.2917445 C16.7565484,49.021365 13.2542903,51.3904015 10.3140968,54.3338467 C7.37283871,57.277292 5.04048387,60.7482555 3.38090323,64.6476277 C1.72132258,68.5459343 0.880354839,72.7937883 0.880354839,77.2728978 L0.880354839,94.3069416 C3.69174194,89.0829124 7.69219355,84.6805328 12.8103871,81.1893212 C18.8866452,77.0448394 25.8230323,74.9454234 33.4247419,74.9454234 L65.535871,74.9454234 C69.8854839,74.9454234 74.0296452,74.1344307 77.8555161,72.5369562 C81.6920323,70.9373504 85.1293548,68.7302993 88.0716774,65.9765474 C91.0076129,63.2302555 93.3708387,59.9244745 95.0921613,56.1529854 C96.7123548,52.6159489 97.6970323,48.7645328 98.0249032,44.6914526 L33.4247419,44.6914526 Z" id="Fill-94"></path>
                </g>
                <path d="M147.030476,106.77389 C147.030476,105.33109 145.698368,103.798116 144.366261,103.798116 C143.034153,103.798116 141.968467,105.060565 141.968467,106.77389 L141.968467,134.457604 C141.968467,136.170929 143.034153,137.433378 144.366261,137.433378 C145.698368,137.433378 147.030476,136.170929 147.030476,134.457604 L147.030476,106.77389 Z M156,145.2786 L147.030476,145.2786 L147.030476,142.032301 C145.520754,143.475101 144.188646,144.557201 142.50131,145.368775 C141.613238,145.81965 140.725167,146 139.925902,146 C137.439301,146 135.751965,144.557201 134.686279,142.663526 C133.531786,140.858953 133,138.425303 133,136.351279 L133,104.880215 C133,102.806191 133.531786,100.371467 134.686279,98.4777927 C135.751965,96.6742934 137.439301,95.2314939 139.925902,95.2314939 C141.613238,95.2314939 143.389382,96.2234186 144.721489,97.2153432 C145.520754,97.846568 146.231211,98.4777927 147.030476,99.1991925 L147.030476,79 L156,79 L156,145.2786 Z" id="Fill-95"></path>
                <path d="M177.252708,120.843694 C172.830325,122.708703 170.935018,127.060391 170.935018,131.678508 C170.935018,132.300178 171.025271,133.365897 171.386282,134.342806 C171.747292,135.408526 172.379061,136.207815 173.462094,136.207815 C175.537906,136.207815 177.252708,134.964476 177.252708,133.277087 L177.252708,120.843694 Z M177.252708,107.255773 C177.252708,106.456483 177.252708,105.213144 176.981949,104.325044 C176.620939,103.436945 175.898917,102.815275 174.725632,102.815275 C173.191336,102.815275 172.559567,103.969805 172.288809,105.390764 C172.198556,106.101243 172.108303,106.900533 172.108303,107.699822 L172.108303,110.008881 L162.993854,110.008881 L162.993854,107.966252 C162.993854,104.413854 164.34657,101.216696 166.512635,98.8188277 C168.679775,96.4209591 171.747292,95 175.267148,95 C178.245487,95 180.953069,96.1545293 183.028881,98.1083481 C185.104693,100.062167 186.368231,102.815275 186.368231,106.012433 L186.368231,135.852575 C186.368231,140.204263 186.638989,142.158082 187,144.28952 L178.064982,144.28952 C177.252708,143.312611 177.252708,141.003552 177.252708,140.381883 L176.620939,140.381883 C176.169675,141.181172 175.357401,142.335702 174.093863,143.312611 C172.830325,144.28952 171.115523,145 169.310469,145 C168.137184,145 166.241877,144.55595 164.797834,142.779751 C163.263538,141.092362 162,138.072824 162,133.010657 C162,127.59325 163.624549,123.685613 165.790614,121.021314 C167.956679,118.357016 170.66426,116.669627 172.920578,115.515098 C175.176895,114.360568 176.891697,113.561279 177.252708,112.584369 L177.252708,107.255773 Z" id="Fill-96"></path>
                <polygon id="Fill-97" points="197.004668 145 189 96 197.81402 96 200.780576 124.396709 201.140288 127.531993 201.859712 127.531993 202.219424 124.396709 205.188121 96 214 96 205.996403 145"></polygon>
                <path d="M225.968467,133.099467 C225.968467,134.875666 226.057274,137.007105 228.456125,137.007105 C230.497633,137.007105 231.030476,136.030195 231.030476,133.099467 L231.030476,126.349911 L240,126.349911 L240,131.056838 C240,136.474245 239.023121,139.937833 237.069363,142.069272 C235.115606,144.20071 232.273776,145 228.456125,145 C225.25801,145 222.327373,144.111901 220.284808,141.891652 C218.242243,139.671403 217,136.030195 217,130.612789 L217,109.387211 C217,103.969805 218.242243,100.328597 220.284808,98.1083481 C222.327373,95.8880995 225.25801,95 228.456125,95 C232.273776,95 235.115606,95.7992895 237.069363,97.9307282 C239.023121,100.062167 240,103.525755 240,108.943162 L240,112.761989 L231.030476,112.761989 L231.030476,106.900533 C231.030476,103.969805 230.497633,102.992895 228.456125,102.992895 C226.057274,102.992895 225.968467,105.124334 225.968467,106.900533 L225.968467,133.099467 Z" id="Fill-98"></path>
                <path d="M259.563707,107.788632 C259.65251,105.923623 259.297297,104.591474 258.409266,103.525755 C257.965251,103.081705 257.254826,102.815275 256.456656,102.815275 C254.76834,102.815275 254.057915,103.969805 253.702703,105.301954 C253.436293,106.012433 253.34749,106.811723 253.436293,107.788632 L253.436293,132.211368 C253.34749,134.076377 253.791506,135.408526 254.590734,136.385435 C255.034749,136.829485 255.656371,137.095915 256.456656,137.095915 C258.142857,137.095915 258.942085,136.030195 259.297297,134.698046 C259.563707,133.987567 259.65251,133.188277 259.563707,132.211368 L259.563707,107.788632 Z M268,132.477798 C267.733591,137.184725 266.312741,140.470693 263.204633,143.046181 C261.606178,144.37833 259.3861,145 256.456656,145 C250.683398,145 247.841699,141.802842 246.420849,138.605684 C245.621622,136.740675 245.08986,134.609236 245,132.211368 L245,107.788632 C245.267466,103.081705 246.687259,99.6181172 249.795367,96.9538188 C251.305019,95.6216696 253.525097,95 256.456656,95 C262.228856,95 265.158301,98.1971581 266.579151,101.305506 C267.378378,103.170515 267.911197,105.213144 268,107.522202 L268,132.477798 Z" id="Fill-99"></path>
                <path d="M296.969112,133.099467 C296.969112,134.875666 297.057915,137.007105 299.456656,137.007105 C301.498069,137.007105 302.030888,136.030195 302.030888,133.099467 L302.030888,126.349911 L311,126.349911 L311,131.056838 C311,136.474245 310.023166,139.937833 308.069498,142.069272 C306.11583,144.20071 303.274131,145 299.456656,145 C296.258687,145 293.328185,144.111901 291.285714,141.891652 C289.243243,139.671403 288,136.030195 288,130.612789 L288,109.387211 C288,103.969805 289.243243,100.328597 291.285714,98.1083481 C293.328185,95.8880995 296.258687,95 299.456656,95 C303.274131,95 306.11583,95.7992895 308.069498,97.9307282 C310.023166,100.062167 311,103.525755 311,108.943162 L311,112.761989 L302.030888,112.761989 L302.030888,106.900533 C302.030888,103.969805 301.498069,102.992895 299.456656,102.992895 C297.057915,102.992895 296.969112,105.124334 296.969112,106.900533 L296.969112,133.099467 Z" id="Fill-100"></path>
                <path d="M330.563707,107.788632 C330.65251,105.923623 330.297297,104.591474 329.409266,103.525755 C328.965251,103.081705 328.254826,102.815275 327.455598,102.815275 C325.76834,102.815275 325.057915,103.969805 324.702703,105.301954 C324.436293,106.012433 324.34749,106.811723 324.436293,107.788632 L324.436293,132.211368 C324.34749,134.076377 324.791506,135.408526 325.590734,136.385435 C326.034749,136.829485 326.656371,137.095915 327.455598,137.095915 C329.142857,137.095915 329.942085,136.030195 330.297297,134.698046 C330.563707,133.987567 330.65251,133.188277 330.563707,132.211368 L330.563707,107.788632 Z M339,132.477798 C338.733591,137.184725 337.312741,140.470693 334.204633,143.046181 C332.606178,144.37833 330.3861,145 327.455598,145 C321.683398,145 318.841699,141.802842 317.420849,138.605684 C316.621622,136.740675 316.088803,134.609236 316,132.211368 L316,107.788632 C316.267466,103.081705 317.687259,99.6181172 320.795367,96.9538188 C322.305019,95.6216696 324.525097,95 327.455598,95 C333.228856,95 336.158301,98.1971581 337.579151,101.305506 C338.378378,103.170515 338.911197,105.213144 339,107.522202 L339,132.477798 Z" id="Fill-101"></path>
                <path d="M353.968467,145 L345,145 L345,95.7207207 L353.968467,95.7207207 L353.968467,99.8648649 C354.146081,99.7747748 354.50131,99.4144144 355.034153,98.8738739 C356.012089,97.8828829 357.34314,96.5315315 358.941669,95.6306306 C359.740933,95.1801802 360.45139,95 361.250655,95 C363.648449,95 365.335785,96.4414414 366.401471,98.2432432 C367.468214,100.135135 368,102.567568 368,104.63964 L368,145 L359.030476,145 L359.030476,105.990991 C359.030476,104.099099 357.96479,103.828829 356.899104,103.828829 C355.923282,103.828829 355.389382,104.369369 354.767732,105 C354.50131,105.36036 354.234889,105.720721 353.968467,106.171171 L353.968467,145 Z" id="Fill-102"></path>
                <path d="M388.555556,108.146018 C388.555556,106.991555 388.555556,105.570679 388.2,104.416217 C387.755556,103.35056 387.044444,102.462512 385.62328,102.462512 C384.466667,102.462512 383.755556,103.35056 383.4,104.416217 C382.955556,105.481874 382.866667,106.991555 382.866667,108.146018 C382.866667,109.655699 383.666667,111.254185 384.822222,112.675061 C385.888889,114.095938 387.311111,115.516814 388.733333,116.848886 C390.6,118.713786 392.822222,120.845101 394.333333,123.24283 C395.844444,125.729363 397,128.482311 397,131.679283 C397,134.787451 396.288889,138.073227 394.511111,140.559761 C392.644444,143.1351 389.8,145 385.533333,145 C380.112169,145 376.911111,142.513466 375.133333,139.494104 C373.355556,136.474741 373,132.744941 373,130.169602 L381.355556,130.169602 C381.355556,131.501674 381.444444,133.366574 382.066667,134.787451 C382.688889,136.297132 383.666667,137.540399 385.533333,137.540399 C388.111111,137.540399 388.644444,134.521036 388.644444,131.679283 C388.644444,128.748726 385.8,125.818168 383.044444,123.06522 C380.911111,121.02271 378.866667,119.15781 377.266667,116.760081 C375.666667,114.362352 374.512169,111.698209 374.512169,108.146018 C374.512169,105.304265 375.044444,102.018488 376.733333,99.4431494 C378.422222,96.9566157 381.177778,95.0917154 385.444444,95.0029106 C390.688889,94.9141058 393.622222,96.8678109 395.133333,99.4431494 C396.644444,102.018488 396.911111,105.393069 396.911111,108.146018 L388.555556,108.146018 Z" id="Fill-103"></path>
                <path d="M412.755992,84 L412.755992,96.1306441 L419,96.1306441 L419,104.307597 L412.755992,104.307597 L412.755992,128.748598 C412.755992,130.276161 412.755992,132.251937 413.117964,133.870426 C413.479935,135.487845 414.203878,136.835694 415.651764,136.835694 C416.37463,136.835694 417.279558,136.745838 417.913008,136.655981 C418.27498,136.566124 418.638029,136.566124 419,136.476268 L419,145.372073 C418.547536,145.46193 418.093994,145.641643 417.64153,145.7315 C416.736601,145.910143 415.561271,146 414.113385,146 C408.774306,146 406.239429,143.304301 404.972529,139.890819 C403.706706,136.476268 403.616213,132.341793 403.616213,129.467451 L403.616213,104.307597 L399,104.307597 L399,96.1306441 L403.616213,96.1306441 L403.616213,84 L412.755992,84 Z" id="Fill-104"></path>
                <path d="M441,105.09009 C440.19802,104.81982 439.30587,104.72973 438.50389,104.72973 C437.079208,104.72973 435.386139,104.90991 433.960396,106.261261 C432.267327,107.702703 432,109.234234 432,110.765766 L432,145 L423,145 L423,95.7207207 L432,95.7207207 L432,101.216216 C432.089109,100.585586 432.712871,99.0540541 434.138614,97.6126126 C435.564356,96.2612613 437.70297,95 441,95 L441,105.09009 Z" id="Fill-105"></path>
                <path d="M459.030476,96 L468,96 L468,145.279279 L459.030476,145.279279 L459.030476,141.135135 C458.852861,141.225225 458.497633,141.585586 458.053597,142.036036 C456.987911,143.117117 455.74461,144.378378 454.146081,145.279279 C453.346817,145.72973 452.547552,146 451.748288,146 C449.350494,146 447.663158,144.558559 446.597472,142.666667 C445.531786,140.864865 445,138.432432 445,136.36036 L445,96 L453.968467,96 L453.968467,135.009009 C453.968467,136.900901 455.034153,137.171171 456.100896,137.171171 C457.076718,137.171171 457.609561,136.630631 458.231211,136 C458.497633,135.72973 458.764054,135.279279 459.030476,134.828829 L459.030476,96 Z" id="Fill-106"></path>
                <path d="M482.968467,133.099467 C482.968467,134.875666 483.057274,137.007105 485.456125,137.007105 C487.497633,137.007105 488.030476,136.030195 488.030476,133.099467 L488.030476,126.349911 L497,126.349911 L497,131.056838 C497,136.474245 496.023121,139.937833 494.069363,142.069272 C492.115606,144.20071 489.273776,145 485.456125,145 C482.25801,145 479.327373,144.111901 477.284808,141.891652 C475.242243,139.671403 474,136.030195 474,130.612789 L474,109.387211 C474,103.969805 475.242243,100.328597 477.284808,98.1083481 C479.327373,95.8880995 482.25801,95 485.456125,95 C489.273776,95 492.115606,95.7992895 494.069363,97.9307282 C496.023121,100.062167 497,103.525755 497,108.943162 L497,112.761989 L488.030476,112.761989 L488.030476,106.900533 C488.030476,103.969805 487.497633,102.992895 485.456125,102.992895 C483.057274,102.992895 482.968467,105.124334 482.968467,106.900533 L482.968467,133.099467 Z" id="Fill-107"></path>
                <path d="M513.755992,84 L513.755992,96.1306441 L520,96.1306441 L520,104.307597 L513.755992,104.307597 L513.755992,128.748598 C513.755992,130.276161 513.755992,132.251937 514.117964,133.870426 C514.479935,135.487845 515.203878,136.835694 516.651764,136.835694 C517.37463,136.835694 518.279558,136.745838 518.913008,136.655981 C519.27498,136.566124 519.638029,136.566124 520,136.476268 L520,145.372073 C519.547536,145.46193 519.093994,145.641643 518.64153,145.7315 C517.736601,145.910143 516.561271,146 515.113385,146 C509.774306,146 507.239429,143.304301 505.972529,139.890819 C504.706706,136.476268 504.616213,132.341793 504.616213,129.467451 L504.616213,104.307597 L500,104.307597 L500,96.1306441 L504.616213,96.1306441 L504.616213,84 L513.755992,84 Z" id="Fill-108"></path>
                <path d="M525,145 L534,145 L534,95.8816327 L525,95.8816327 L525,145 Z M525,88.0693878 L534,88.0693878 L534,79 L525,79 L525,88.0693878 Z" id="Fill-109"></path>
                <path d="M554.563707,107.788632 C554.65251,105.923623 554.297297,104.591474 553.409266,103.525755 C552.965251,103.081705 552.254826,102.815275 551.456656,102.815275 C549.76834,102.815275 549.057915,103.969805 548.702703,105.301954 C548.436293,106.012433 548.34749,106.811723 548.436293,107.788632 L548.436293,132.211368 C548.34749,134.076377 548.791506,135.408526 549.590734,136.385435 C550.034749,136.829485 550.656371,137.095915 551.456656,137.095915 C553.142857,137.095915 553.942085,136.030195 554.297297,134.698046 C554.563707,133.987567 554.65251,133.188277 554.563707,132.211368 L554.563707,107.788632 Z M563,132.477798 C562.733591,137.184725 561.312741,140.470693 558.204633,143.046181 C556.606178,144.37833 554.3861,145 551.456656,145 C545.683398,145 542.841699,141.802842 541.420849,138.605684 C540.621622,136.740675 540.08986,134.609236 540,132.211368 L540,107.788632 C540.267466,103.081705 541.687259,99.6181172 544.795367,96.9538188 C546.305019,95.6216696 548.525097,95 551.456656,95 C557.228856,95 560.158301,98.1971581 561.579151,101.305506 C562.378378,103.170515 562.911197,105.213144 563,107.522202 L563,132.477798 Z" id="Fill-110"></path>
                <path d="M577.968467,145 L569,145 L569,95.7207207 L577.968467,95.7207207 L577.968467,99.8648649 C578.146081,99.7747748 578.50131,99.4144144 579.034153,98.8738739 C580.012089,97.8828829 581.34314,96.5315315 582.941669,95.6306306 C583.740933,95.1801802 584.45139,95 585.250655,95 C587.648449,95 589.335785,96.4414414 590.401471,98.2432432 C591.468214,100.135135 592,102.567568 592,104.63964 L592,145 L583.030476,145 L583.030476,105.990991 C583.030476,104.099099 581.96479,103.828829 580.899104,103.828829 C579.923282,103.828829 579.389382,104.369369 578.767732,105 C578.50131,105.36036 578.234889,105.720721 577.968467,106.171171 L577.968467,145 Z" id="Fill-111"></path>
            </g>
        </g>
    </g>
</svg>