<?xml version="1.0" encoding="UTF-8" standalone="no"?>
<svg width="90px" height="74px" viewBox="0 0 90 74" version="1.1" xmlns="http://www.w3.org/2000/svg" xmlns:xlink="http://www.w3.org/1999/xlink">
    <!-- Generator: Sketch 47.1 (45422) - http://www.bohemiancoding.com/sketch -->
    <title>_icon</title>
    <desc>Created with Sketch.</desc>
    <defs></defs>
    <g id="Page-1" stroke="none" stroke-width="1" fill="none" fill-rule="evenodd">
        <g id="Artboard" transform="translate(0.000000, -8.000000)" fill="#3F3F3F">
            <g id="_icon" transform="translate(0.000000, 8.000000)">
                <g id="LearnPanelIcons_01Icon">
                    <path d="M45,56 C36.7157288,56 30,49.2842712 30,41 C30,32.7157288 36.7157288,26 45,26 C53.2842712,26 60,32.7157288 60,41 C59.9910722,49.2805704 53.2805704,55.9910722 45,56 Z M45,30.5356371 C39.1580679,30.5356371 34.4222462,35.2714588 34.4222462,41.1133909 C34.4222462,46.955323 39.1580679,51.6911447 45,51.6911447 C50.8419321,51.6911447 55.5777538,46.955323 55.5777538,41.1133909 C55.5777606,35.2688327 50.8445514,30.5283751 45,30.5194384 L45,30.5356371 Z" id="Shape" fill-rule="nonzero"></path>
                    <path d="M79.4230861,73.9996395 L10.8014088,73.9996395 C4.85450554,73.9546276 0.0445479617,69.0945708 0,63.0857262 L0,24.0271455 C0.00881236898,17.9924859 4.82911884,13.0924541 10.8014088,13.0470873 L21.0463814,13.0470873 C21.5870836,13.000622 22.0587045,12.6575181 22.2738142,12.1541307 L24.9414348,4.05137691 C25.7930537,1.71438943 27.9457126,0.118896284 30.4076023,0 L59.5877718,0 C62.0765645,0.0401391233 64.2685876,1.66480792 65.0539392,4.05137691 L67.7215599,12.1541307 C67.9366696,12.6575181 68.4082905,13.000622 68.9489927,13.0470873 L79.1939653,13.0470873 C85.1408685,13.0920992 89.9508261,17.952156 89.9953741,23.9610006 L89.9953741,63.0857262 C90.0799848,65.9653869 89.0008952,68.7557959 87.0064968,70.8146399 C85.0120984,72.8734838 82.2742211,74.0233805 79.4230861,73.9996395 Z M10.8014088,17.6110874 C7.30923719,17.646913 4.48694593,20.4986004 4.45148968,24.0271455 L4.45148968,63.0857262 C4.48694593,66.6142713 7.30923719,69.4659588 10.8014088,69.5017844 L79.4230861,69.5017844 C82.9152577,69.4659588 85.7375489,66.6142713 85.7730052,63.0857262 L85.7730052,24.0271455 C85.7375489,20.4986004 82.9152577,17.646913 79.4230861,17.6110874 L69.1781135,17.6110874 C66.6893208,17.5709483 64.4972977,15.9462795 63.711946,13.5597105 L61.0443254,5.45695666 C60.8292157,4.95356932 60.3575948,4.61046544 59.8168926,4.56400011 L30.5221627,4.56400011 C29.9814604,4.61046544 29.5098396,4.95356932 29.2947299,5.45695666 L26.6271092,13.7250728 C25.7754904,16.0620603 23.6228314,17.6575534 21.1609417,17.7764497 L10.8014088,17.7764497 L10.8014088,17.6110874 Z" id="Shape" fill-rule="nonzero"></path>
                    <path d="M44.6137838,64.9997184 C35.0988684,65.0466303 26.4952823,59.2291424 22.8222091,50.2649067 C19.1491359,41.300671 21.1315682,30.9590516 27.8434085,24.0711583 C34.5552488,17.1832649 44.6717116,15.1086325 53.4668696,18.81643 C62.2620275,22.5242275 67.9998891,31.2826085 68,41.0000766 C67.991285,54.2058586 57.5442593,64.9269121 44.6137838,64.9997184 L44.6137838,64.9997184 Z M44.6137838,21.6348484 C36.916799,21.654981 29.9898873,26.4092039 27.0640912,33.6799203 C24.1382952,40.9506367 25.7900292,49.3054344 31.2488457,54.8472366 C36.7076621,60.3890387 44.8981134,62.0260486 51.9997815,58.9946866 C59.1014497,55.9633246 63.715227,48.8608027 63.6890274,41.0000766 C63.626676,30.2835537 55.1072335,21.6272051 44.6137838,21.6182969 L44.6137838,21.6348484 Z" id="Shape" fill-rule="nonzero"></path>
                    <path d="M76.5,24.3505155 C78.2024035,24.3505155 79.5824742,25.7305862 79.5824742,27.4329897 C79.5824742,29.1353932 78.2024035,30.5154639 76.5,30.5154639 C74.7975965,30.5154639 73.4175258,29.1353932 73.4175258,27.4329897 C73.4130386,26.6140993 73.7363572,25.8274501 74.3154088,25.2483985 C74.8944604,24.6693469 75.6811097,24.3460283 76.5,24.3505155 L76.5,24.3505155 Z M76.5,21 C72.9101491,21 70,23.9101491 70,27.5 C70,31.0898509 72.9101491,34 76.5,34 C80.0898509,34 83,31.0898509 83,27.5 C82.9637057,23.9252906 80.0747094,21.0362943 76.5,21 L76.5,21 L76.5,21 Z" id="Shape" fill-rule="nonzero"></path>
                </g>
            </g>
        </g>
    </g>
</svg>