<?xml version="1.0" encoding="UTF-8" standalone="no"?>
<svg width="90px" height="90px" viewBox="0 0 90 90" version="1.1" xmlns="http://www.w3.org/2000/svg" xmlns:xlink="http://www.w3.org/1999/xlink">
    <!-- Generator: Sketch 47.1 (45422) - http://www.bohemiancoding.com/sketch -->
    <title>Camera</title>
    <desc>Created with Sketch.</desc>
    <defs></defs>
    <g id="Page-1" stroke="none" stroke-width="1" fill="none" fill-rule="evenodd">
        <g id="Camera" stroke="#239AAC" stroke-width="4">
            <g id="Group" transform="translate(0.000000, 10.000000)">
                <path d="M62.2309866,2.25982363 L27.5109856,2.25982363 L22.8026713,11.7878827 C22.1284701,13.1522411 20.7384591,14.0158246 19.216611,14.0158235 L2.02007192,14.0158094 L2.02007373,66.240176 L88.0200719,66.2401911 L88.0200715,14.0158244 L70.9130069,14.0158244 C69.4371674,14.0158244 68.0812333,13.2031682 67.3854435,11.9016388 L62.2309866,2.25982363 Z" id="Rectangle-137"></path>
                <path d="M44.0666667,58.1478966 C54.5968959,58.1478966 63.1333333,49.6081991 63.1333333,39.0739483 C63.1333333,28.5396975 54.5968959,20 44.0666667,20 C33.5364374,20 25,28.5396975 25,39.0739483 C25,49.6081991 33.5364374,58.1478966 44.0666667,58.1478966 Z M76.0666667,32.1379671 C79.4171941,32.1379671 82.1333333,29.4207906 82.1333333,26.0689836 C82.1333333,22.7171765 79.4171941,20 76.0666667,20 C72.7161392,20 70,22.7171765 70,26.0689836 C70,29.4207906 72.7161392,32.1379671 76.0666667,32.1379671 Z" id="Camera"></path>
            </g>
        </g>
    </g>
</svg>