<?xml version="1.0" encoding="UTF-8"?>
<svg width="400px" height="151px" viewBox="0 0 400 151" version="1.1" xmlns="http://www.w3.org/2000/svg" xmlns:xlink="http://www.w3.org/1999/xlink">
    <!-- Generator: Sketch 48.2 (47327) - http://www.bohemiancoding.com/sketch -->
    <title>Davco_Logo_Stacked</title>
    <desc>Created with Sketch.</desc>
    <defs></defs>
    <g id="Page-1" stroke="none" stroke-width="1" fill="none" fill-rule="evenodd">
        <g id="Davco_Logo_Stacked" fill="#25363D">
            <g id="Group-5" transform="translate(15.000000, 14.000000)">
                <g id="Group-2">
                    <g id="Group">
                        <path d="M86.8492935,99.1176679 C86.8492935,103.186347 86.0691,106.988551 84.5124548,110.531814 C82.9548742,114.076018 80.8453581,117.182376 78.1941968,119.85277 C75.5374226,122.527872 72.4493903,124.618237 68.931971,126.12669 C65.4089387,127.637967 61.6305194,128.393135 57.5920355,128.393135 L39.7598419,128.393135 C45.412971,125.952493 50.0314548,122.118274 53.6106161,116.890478 C57.1860355,111.663624 58.9765516,105.739982 58.9765516,99.1176679 L58.9765516,97.8982883 L58.9765516,69.6680036 C65.2096806,69.4373102 70.8057452,67.5503321 75.7694226,64.0061277 C80.731229,60.4638066 84.4254548,55.9026679 86.8492935,50.3274197 L86.8492935,99.1176679 Z M28.1607774,128.393135 C24.2364226,128.277318 20.5711968,127.432697 17.1679065,125.865865 C13.7627452,124.296208 10.7888419,122.178536 8.25180968,119.504376 C5.71197097,116.833982 3.72126129,113.754931 2.28061613,110.270047 C0.836229032,106.785164 0.115906452,103.067704 0.115906452,99.1176679 C0.115906452,95.1695146 0.836229032,91.4501715 2.28061613,87.9652883 C3.72126129,84.4813467 5.68297097,81.4032372 8.16574516,78.7290766 C10.6466484,76.0586825 13.5906161,73.9372445 16.9948419,72.3704124 C20.3990677,70.8007555 24.0633581,69.9034051 27.9886484,69.6680036 L27.9886484,97.8982883 L27.9886484,99.1176679 C27.9886484,104.344522 29.1392935,109.196617 31.4518097,113.668303 C33.7577774,118.140931 36.9309387,121.88758 40.9731645,124.905427 C37.0469387,127.113493 32.7755194,128.277318 28.1607774,128.393135 Z" id="Fill-93"></path>
                        <path d="M59.6342903,35.5498577 L86.1917419,35.5498577 L86.1917419,0.330032847 C82.6200645,0.618164234 79.2373548,1.49009124 76.1296774,2.92133212 C72.8180645,4.44767518 69.919,6.53709854 67.5073226,9.13216423 C65.0909677,11.7347628 63.1545161,14.775208 61.7494194,18.1706387 C60.3461935,21.5538285 59.6342903,25.2204416 59.6342903,29.0687847 L59.6342903,35.5498577 Z M29.3732581,39.4876533 C25.4414194,39.4876533 21.6863871,40.2607117 18.2091935,41.7851715 C14.7254516,43.3133978 11.6477097,45.4065876 9.06390323,48.0073029 C6.47916129,50.6080182 4.42951613,53.6748285 2.97109677,57.1201642 C1.51267742,60.5645584 0.773645161,64.3177993 0.773645161,68.2753686 L0.773645161,83.3259964 C3.24425806,78.7102445 6.75980645,74.8204708 11.2576129,71.7357701 C16.5973548,68.073865 22.6929677,66.2189015 29.3732581,66.2189015 L57.592129,66.2189015 C61.4145161,66.2189015 65.0563548,65.5023394 68.4184839,64.0908723 C71.7899677,62.6775219 74.8106452,60.7274562 77.3963226,58.2943467 C79.9763871,55.8678285 82.0531613,52.9469672 83.5658387,49.6146241 C84.9896452,46.4894343 85.8549677,43.0864708 86.1430968,39.4876533 L29.3732581,39.4876533 Z" id="Fill-94"></path>
                    </g>
                </g>
                <g id="Group-3" transform="translate(108.000000, 11.000000)">
                    <path d="M12.3676046,24.4576043 C12.3676046,23.1870794 11.1933764,21.8371467 10.0191483,21.8371467 C8.84492011,21.8371467 7.90553759,22.948856 7.90553759,24.4576043 L7.90553759,48.8358008 C7.90553759,50.3445491 8.84492011,51.4562584 10.0191483,51.4562584 C11.1933764,51.4562584 12.3676046,50.3445491 12.3676046,48.8358008 L12.3676046,24.4576043 Z M20.2740741,58.3647376 L12.3676046,58.3647376 L12.3676046,55.5060565 C11.0368127,56.7765814 9.86258451,57.7294751 8.37522885,58.4441454 C7.59241009,58.8411844 6.80959132,59 6.10505444,59 C3.9131619,59 2.42580624,57.7294751 1.48642373,56.0619112 C0.468759332,54.4728097 0,52.3297443 0,50.5033647 L0,22.7900404 C0,20.9636608 0.468759332,18.8196501 1.48642373,17.1520861 C2.42580624,15.56393 3.9131619,14.2934051 6.10505444,14.2934051 C7.59241009,14.2934051 9.15804762,15.166891 10.3322758,16.0403769 C11.0368127,16.5962315 11.6630677,17.1520861 12.3676046,17.7873486 L12.3676046,0 L20.2740741,0 L20.2740741,58.3647376 Z" id="Fill-95"></path>
                    <path d="M39.0079422,36.8474325 C35.1096938,38.4897537 33.4390159,42.3218366 33.4390159,46.3885369 C33.4390159,46.9359773 33.518572,47.8744466 33.8367964,48.7347101 C34.1550207,49.6731794 34.7119134,50.3770314 35.6665864,50.3770314 C37.4963765,50.3770314 39.0079422,49.2821505 39.0079422,47.7962408 L39.0079422,36.8474325 Z M39.0079422,24.881949 C39.0079422,24.1780971 39.0079422,23.0832162 38.769274,22.3011585 C38.4510496,21.5191008 37.8146009,20.9716603 36.7803717,20.9716603 C35.4279182,20.9716603 34.8710255,21.9883354 34.6323573,23.2396278 C34.5528012,23.865274 34.4732451,24.569126 34.4732451,25.2729779 L34.4732451,27.306328 L26.4390271,27.306328 L26.4390271,25.5075952 C26.4390271,22.3793643 27.6314213,19.5639564 29.5407675,17.4524005 C31.4510607,15.3408446 34.1550207,14.0895522 37.2577082,14.0895522 C39.8830592,14.0895522 42.2697419,15.1062273 44.099532,16.8267543 C45.9293221,18.5472814 47.0431074,20.9716603 47.0431074,23.7870682 L47.0431074,50.0642083 C47.0431074,53.8962912 47.2817756,55.6168182 47.6,57.4937568 L39.7239471,57.4937568 C39.0079422,56.6334933 39.0079422,54.6001432 39.0079422,54.0527027 L38.4510496,54.0527027 C38.0532692,54.7565547 37.3372643,55.7732298 36.2234791,56.6334933 C35.1096938,57.4937568 33.5981281,58.119403 32.0070063,58.119403 C30.9727771,58.119403 29.3020992,57.7283741 28.0292018,56.1642586 C26.6767482,54.6783489 25.562963,52.0193526 25.562963,47.5616235 C25.562963,42.7910713 26.9949726,39.3500172 28.9043188,37.003844 C30.8136649,34.6576708 33.2003476,33.1717611 35.1892499,32.155086 C37.1781522,31.138411 38.6897179,30.434559 39.0079422,29.5742955 L39.0079422,24.881949 Z" id="Fill-96"></path>
                    <polygon id="Fill-97" points="56.4189293 58.119403 49.362963 14.9701493 57.1323586 14.9701493 59.7473221 39.9762067 60.0644018 42.7371279 60.6985612 42.7371279 61.0156408 39.9762067 63.6324918 14.9701493 71.4 14.9701493 64.3449774 58.119403"></polygon>
                    <path d="M81.949982,47.6398293 C81.949982,49.2039448 82.0282639,51.0808833 84.1428065,51.0808833 C85.9423577,51.0808833 86.412049,50.2206198 86.412049,47.6398293 L86.412049,41.6961905 L94.3185185,41.6961905 L94.3185185,45.8410965 C94.3185185,50.6116487 93.4574179,53.6616739 91.7352166,55.5386124 C90.0130153,57.415551 87.5079953,58.119403 84.1428065,58.119403 C81.323727,58.119403 78.7404251,57.3373452 76.9399419,55.3822009 C75.1394588,53.4270565 74.0444444,50.2206198 74.0444444,45.4500676 L74.0444444,26.7588876 C74.0444444,21.9883354 75.1394588,18.7818987 76.9399419,16.8267543 C78.7404251,14.87161 81.323727,14.0895522 84.1428065,14.0895522 C87.5079953,14.0895522 90.0130153,14.7934042 91.7352166,16.6703428 C93.4574179,18.5472814 94.3185185,21.5973065 94.3185185,26.3678588 L94.3185185,29.730707 L86.412049,29.730707 L86.412049,24.569126 C86.412049,21.9883354 85.9423577,21.1280719 84.1428065,21.1280719 C82.0282639,21.1280719 81.949982,23.0050105 81.949982,24.569126 L81.949982,47.6398293 Z" id="Fill-98"></path>
                    <path d="M111.563564,25.3511837 C111.641842,23.7088624 111.328729,22.5357758 110.545946,21.5973065 C110.154555,21.2062777 109.528328,20.9716603 108.824756,20.9716603 C107.336537,20.9716603 106.71031,21.9883354 106.397197,23.161422 C106.162362,23.7870682 106.084084,24.4909202 106.162362,25.3511837 L106.162362,46.8577715 C106.084084,48.5000928 106.475475,49.6731794 107.17998,50.5334429 C107.571371,50.9244718 108.119319,51.1590891 108.824756,51.1590891 C110.311111,51.1590891 111.015616,50.2206198 111.328729,49.0475332 C111.563564,48.421887 111.641842,47.718035 111.563564,46.8577715 L111.563564,25.3511837 Z M119,47.0923889 C118.765165,51.2372949 117.512713,54.1309085 114.772973,56.398876 C113.363964,57.5719626 111.407007,58.119403 108.824756,58.119403 C103.735736,58.119403 101.230831,55.3039951 99.9783784,52.4885873 C99.2738739,50.846266 98.8051361,48.9693274 98.7259259,46.8577715 L98.7259259,25.3511837 C98.9616926,21.2062777 100.213213,18.1562525 102.952953,15.8100793 C104.283684,14.6369927 106.240641,14.0895522 108.824756,14.0895522 C113.912844,14.0895522 116.495095,16.9049601 117.747548,19.6421622 C118.452052,21.2844834 118.921722,23.0832162 119,25.1165664 L119,47.0923889 Z" id="Fill-99"></path>
                </g>
                <g id="Group-4" transform="translate(108.000000, 70.000000)">
                    <path d="M7.90698029,47.6398293 C7.90698029,49.2039448 7.98526722,51.0808833 10.0999464,51.0808833 C11.8996139,51.0808833 12.3693355,50.2206198 12.3693355,47.6398293 L12.3693355,41.6961905 L20.2763158,41.6961905 L20.2763158,45.8410965 C20.2763158,50.6116487 19.4151595,53.6616739 17.692847,55.5386124 C15.9705344,57.415551 13.4653526,58.119403 10.0999464,58.119403 C7.28068482,58.119403 4.69721601,57.3373452 2.89661654,55.3822009 C1.09601707,53.4270565 0,50.2206198 0,45.4500676 L0,26.7588876 C0,21.9883354 1.09601707,18.7818987 2.89661654,16.8267543 C4.69721601,14.87161 7.28068482,14.0895522 10.0999464,14.0895522 C13.4653526,14.0895522 15.9705344,14.7934042 17.692847,16.6703428 C19.4151595,18.5472814 20.2763158,21.5973065 20.2763158,26.3678588 L20.2763158,29.730707 L12.3693355,29.730707 L12.3693355,24.569126 C12.3693355,21.9883354 11.8996139,21.1280719 10.0999464,21.1280719 C7.98526722,21.1280719 7.90698029,23.0050105 7.90698029,24.569126 L7.90698029,47.6398293 Z" id="Fill-100"></path>
                    <path d="M37.5232676,25.3511837 C37.6015546,23.7088624 37.2884068,22.5357758 36.5055375,21.5973065 C36.1141028,21.2062777 35.4878074,20.9716603 34.783225,20.9716603 C33.2957732,20.9716603 32.6694777,21.9883354 32.35633,23.161422 C32.1214692,23.7870682 32.0431823,24.4909202 32.1214692,25.3511837 L32.1214692,46.8577715 C32.0431823,48.5000928 32.4346169,49.6731794 33.1391993,50.5334429 C33.530634,50.9244718 34.0786426,51.1590891 34.783225,51.1590891 C36.2706767,51.1590891 36.9752591,50.2206198 37.2884068,49.0475332 C37.5232676,48.421887 37.6015546,47.718035 37.5232676,46.8577715 L37.5232676,25.3511837 Z M44.9605263,47.0923889 C44.7256655,51.2372949 43.4730746,54.1309085 40.7330319,56.398876 C39.3238671,57.5719626 37.3666938,58.119403 34.783225,58.119403 C29.6945743,58.119403 27.1893924,55.3039951 25.9368015,52.4885873 C25.2322191,50.846266 24.7624975,48.9693274 24.6842105,46.8577715 L24.6842105,25.3511837 C24.9200033,21.2062777 26.1716623,18.1562525 28.9117049,15.8100793 C30.2425828,14.6369927 32.1997561,14.0895522 34.783225,14.0895522 C39.8728076,14.0895522 42.4553444,16.9049601 43.7079354,19.6421622 C44.4125178,21.2844834 44.8822394,23.0832162 44.9605263,25.1165664 L44.9605263,47.0923889 Z" id="Fill-101"></path>
                    <path d="M58.1564117,58.119403 L50.25,58.119403 L50.25,14.7242168 L58.1564117,14.7242168 L58.1564117,18.3735377 C58.3129928,18.2942047 58.6261549,17.9768724 59.0958981,17.500874 C59.958026,16.6282103 61.1314519,15.4382143 62.5406815,14.6448837 C63.2452963,14.2482184 63.8716206,14.0895522 64.5762353,14.0895522 C66.6900797,14.0895522 68.1775998,15.3588813 69.1170862,16.9455426 C70.0575046,18.6115369 70.5263158,20.7535296 70.5263158,22.5781901 L70.5263158,58.119403 L62.618972,58.119403 L62.618972,23.7681861 C62.618972,22.1021917 61.6794857,21.8641926 60.7399993,21.8641926 C59.8797355,21.8641926 59.4090602,22.3401909 58.8610265,22.8955224 C58.6261549,23.2128546 58.3912833,23.5301869 58.1564117,23.9268522 L58.1564117,58.119403 Z" id="Fill-102"></path>
                    <path d="M88.6476608,25.6658961 C88.6476608,24.6492802 88.6476608,23.3980606 88.3342105,22.3814448 C87.9423977,21.4430301 87.3154971,20.6610179 86.0626288,20.6610179 C85.0429825,20.6610179 84.4160819,21.4430301 84.1026316,22.3814448 C83.7108187,23.3198594 83.6324561,24.6492802 83.6324561,25.6658961 C83.6324561,26.9953168 84.3377193,28.4029388 85.3564327,29.6541584 C86.2967836,30.9053779 87.5505848,32.1565974 88.804386,33.3296158 C90.45,34.9718414 92.4090643,36.8486707 93.7412281,38.9601037 C95.0733918,41.1497379 96.0921053,43.5739758 96.0921053,46.3892198 C96.0921053,49.1262625 95.4652047,52.0197077 93.8979532,54.2093419 C92.2523392,56.4771773 89.7447368,58.119403 85.9833333,58.119403 C81.2041493,58.119403 78.3821637,55.9297688 76.8149123,53.2709273 C75.2476608,50.6120857 74.9342105,47.3276344 74.9342105,45.059799 L82.3002924,45.059799 C82.3002924,46.2328173 82.378655,47.875043 82.927193,49.1262625 C83.475731,50.4556833 84.3377193,51.5505004 85.9833333,51.5505004 C88.255848,51.5505004 88.7260234,48.8916588 88.7260234,46.3892198 C88.7260234,43.8085795 86.2184211,41.2279391 83.7891813,38.8037013 C81.9084795,37.0050732 80.1061404,35.3628475 78.695614,33.2514145 C77.2850877,31.1399816 76.2673072,28.7939449 76.2673072,25.6658961 C76.2673072,23.163457 76.7365497,20.2700118 78.2254386,18.0021764 C79.7143275,15.8125422 82.1435673,14.1703165 85.9049708,14.0921153 C90.5283626,14.0139141 93.1143275,15.7343409 94.4464912,18.0021764 C95.778655,20.2700118 96.0137427,23.2416582 96.0137427,25.6658961 L88.6476608,25.6658961 Z" id="Fill-103"></path>
                    <path d="M109.982257,4.40298507 L109.982257,15.085194 L115.486842,15.085194 L115.486842,22.2857942 L109.982257,22.2857942 L109.982257,43.808467 C109.982257,45.1536341 109.982257,46.8934965 110.301363,48.318733 C110.620469,49.7430276 111.258682,50.9299397 112.535108,50.9299397 C113.172371,50.9299397 113.970137,50.8508122 114.528573,50.7716847 C114.84768,50.6925572 115.167736,50.6925572 115.486842,50.6134298 L115.486842,58.4470497 C115.087959,58.5261772 114.688126,58.6844321 114.289243,58.7635596 C113.491477,58.9208725 112.455331,59 111.178906,59 C106.472086,59 104.237391,56.6261758 103.120519,53.6202738 C102.004596,50.6134298 101.92482,46.972624 101.92482,44.4414868 L101.92482,22.2857942 L97.8552632,22.2857942 L97.8552632,15.085194 L101.92482,15.085194 L101.92482,4.40298507 L109.982257,4.40298507 Z" id="Fill-104"></path>
                    <path d="M134.881579,22.9748555 C134.17457,22.7368563 133.388069,22.6575232 132.681061,22.6575232 C131.425091,22.6575232 129.932517,22.8161893 128.675612,24.0061853 C127.183038,25.2755143 126.947368,26.6241764 126.947368,27.9728385 L126.947368,58.119403 L119.013158,58.119403 L119.013158,14.7242168 L126.947368,14.7242168 L126.947368,19.5635337 C127.025925,19.0082022 127.575821,17.6595401 128.832725,16.3902111 C130.08963,15.2002151 131.974987,14.0895522 134.881579,14.0895522 L134.881579,22.9748555 Z" id="Fill-105"></path>
                    <path d="M150.776867,14.9701493 L158.684211,14.9701493 L158.684211,58.3653355 L150.776867,58.3653355 L150.776867,54.7160145 C150.620286,54.7953476 150.307124,55.1126798 149.915671,55.5093452 C148.976185,56.4613419 147.880117,57.5720048 146.470888,58.3653355 C145.766273,58.7620008 145.061658,59 144.357043,59 C142.243199,59 140.755679,57.730671 139.816192,56.0646766 C138.876706,54.4780153 138.407895,52.3360226 138.407895,50.5113621 L138.407895,14.9701493 L146.314306,14.9701493 L146.314306,49.3213661 C146.314306,50.9873605 147.253793,51.2253597 148.194211,51.2253597 C149.054475,51.2253597 149.524218,50.7493613 150.072252,50.1940299 C150.307124,49.9560307 150.541995,49.5593653 150.776867,49.1627 L150.776867,14.9701493 Z" id="Fill-106"></path>
                    <path d="M171.880096,47.6398293 C171.880096,49.2039448 171.958386,51.0808833 174.073163,51.0808833 C175.872913,51.0808833 176.342656,50.2206198 176.342656,47.6398293 L176.342656,41.6961905 L184.25,41.6961905 L184.25,45.8410965 C184.25,50.6116487 183.388804,53.6616739 181.666412,55.5386124 C179.944021,57.415551 177.438724,58.119403 174.073163,58.119403 C171.253772,58.119403 168.670184,57.3373452 166.869502,55.3822009 C165.06882,53.4270565 163.973684,50.2206198 163.973684,45.4500676 L163.973684,26.7588876 C163.973684,21.9883354 165.06882,18.7818987 166.869502,16.8267543 C168.670184,14.87161 171.253772,14.0895522 174.073163,14.0895522 C177.438724,14.0895522 179.944021,14.7934042 181.666412,16.6703428 C183.388804,18.5472814 184.25,21.5973065 184.25,26.3678588 L184.25,29.730707 L176.342656,29.730707 L176.342656,24.569126 C176.342656,21.9883354 175.872913,21.1280719 174.073163,21.1280719 C171.958386,21.1280719 171.880096,23.0050105 171.880096,24.569126 L171.880096,47.6398293 Z" id="Fill-107"></path>
                    <path d="M199.02173,4.40298507 L199.02173,15.085194 L204.526316,15.085194 L204.526316,22.2857942 L199.02173,22.2857942 L199.02173,43.808467 C199.02173,45.1536341 199.02173,46.8934965 199.340837,48.318733 C199.659943,49.7430276 200.298156,50.9299397 201.574581,50.9299397 C202.211845,50.9299397 203.009611,50.8508122 203.568047,50.7716847 C203.887153,50.6925572 204.207209,50.6925572 204.526316,50.6134298 L204.526316,58.4470497 C204.127433,58.5261772 203.7276,58.6844321 203.328717,58.7635596 C202.530951,58.9208725 201.494805,59 200.218379,59 C195.51156,59 193.276865,56.6261758 192.159993,53.6202738 C191.04407,50.6134298 190.964293,46.972624 190.964293,44.4414868 L190.964293,22.2857942 L186.894737,22.2857942 L186.894737,15.085194 L190.964293,15.085194 L190.964293,4.40298507 L199.02173,4.40298507 Z" id="Fill-108"></path>
                    <path d="M208.934211,58.119403 L216.868421,58.119403 L216.868421,14.8659153 L208.934211,14.8659153 L208.934211,58.119403 Z M208.934211,7.98647578 L216.868421,7.98647578 L216.868421,0 L208.934211,0 L208.934211,7.98647578 Z" id="Fill-109"></path>
                    <path d="M234.996952,25.3511837 C235.075239,23.7088624 234.762091,22.5357758 233.979222,21.5973065 C233.587787,21.2062777 232.961492,20.9716603 232.257841,20.9716603 C230.769457,20.9716603 230.143162,21.9883354 229.830014,23.161422 C229.595153,23.7870682 229.516866,24.4909202 229.595153,25.3511837 L229.595153,46.8577715 C229.516866,48.5000928 229.908301,49.6731794 230.612884,50.5334429 C231.004318,50.9244718 231.552327,51.1590891 232.257841,51.1590891 C233.744361,51.1590891 234.448943,50.2206198 234.762091,49.0475332 C234.996952,48.421887 235.075239,47.718035 234.996952,46.8577715 L234.996952,25.3511837 Z M242.434211,47.0923889 C242.19935,51.2372949 240.946759,54.1309085 238.206716,56.398876 C236.797551,57.5719626 234.840378,58.119403 232.257841,58.119403 C227.168258,58.119403 224.663077,55.3039951 223.410486,52.4885873 C222.705903,50.846266 222.237114,48.9693274 222.157895,46.8577715 L222.157895,25.3511837 C222.393688,21.2062777 223.645346,18.1562525 226.385389,15.8100793 C227.716267,14.6369927 229.67344,14.0895522 232.257841,14.0895522 C237.346492,14.0895522 239.929029,16.9049601 241.18162,19.6421622 C241.886202,21.2844834 242.355924,23.0832162 242.434211,25.1165664 L242.434211,47.0923889 Z" id="Fill-110"></path>
                    <path d="M255.630096,58.119403 L247.723684,58.119403 L247.723684,14.7242168 L255.630096,14.7242168 L255.630096,18.3735377 C255.786677,18.2942047 256.099839,17.9768724 256.569582,17.500874 C257.43171,16.6282103 258.605136,15.4382143 260.014366,14.6448837 C260.718981,14.2482184 261.345305,14.0895522 262.04992,14.0895522 C264.163764,14.0895522 265.651284,15.3588813 266.59077,16.9455426 C267.531189,18.6115369 268,20.7535296 268,22.5781901 L268,58.119403 L260.092656,58.119403 L260.092656,23.7681861 C260.092656,22.1021917 259.15317,21.8641926 258.213683,21.8641926 C257.35342,21.8641926 256.882744,22.3401909 256.334711,22.8955224 C256.099839,23.2128546 255.864968,23.5301869 255.630096,23.9268522 L255.630096,58.119403 Z" id="Fill-111"></path>
                </g>
            </g>
        </g>
    </g>
</svg>