<?xml version="1.0" encoding="UTF-8"?>
<svg width="400px" height="151px" viewBox="0 0 400 151" version="1.1" xmlns="http://www.w3.org/2000/svg" xmlns:xlink="http://www.w3.org/1999/xlink">
    <!-- Generator: Sketch 48.2 (47327) - http://www.bohemiancoding.com/sketch -->
    <title>Davco_Logo_white</title>
    <desc>Created with Sketch.</desc>
    <defs></defs>
    <g id="Page-1" stroke="none" stroke-width="1" fill="none" fill-rule="evenodd">
        <g id="Davco_Logo_white" fill="#FFFFFF">
            <g id="Group-5" transform="translate(15.000000, 14.000000)">
                <g id="Group-2">
                    <g id="Group">
                        <path d="M86.8492935,99.1176679 C86.8492935,103.186347 86.0691,106.988551 84.5124548,110.531814 C82.9548742,114.076018 80.8453581,117.182376 78.1941968,119.85277 C75.5374226,122.527872 72.4493903,124.618237 68.931971,126.12669 C65.4089387,127.637967 61.6305194,128.393135 57.5920355,128.393135 L39.7598419,128.393135 C45.412971,125.952493 50.0314548,122.118274 53.6106161,116.890478 C57.1860355,111.663624 58.9765516,105.739982 58.9765516,99.1176679 L58.9765516,97.8982883 L58.9765516,69.6680036 C65.2096806,69.4373102 70.8057452,67.5503321 75.7694226,64.0061277 C80.731229,60.4638066 84.4254548,55.9026679 86.8492935,50.3274197 L86.8492935,99.1176679 Z M28.1607774,128.393135 C24.2364226,128.277318 20.5711968,127.432697 17.1679065,125.865865 C13.7627452,124.296208 10.7888419,122.178536 8.25180968,119.504376 C5.71197097,116.833982 3.72126129,113.754931 2.28061613,110.270047 C0.836229032,106.785164 0.115906452,103.067704 0.115906452,99.1176679 C0.115906452,95.1695146 0.836229032,91.4501715 2.28061613,87.9652883 C3.72126129,84.4813467 5.68297097,81.4032372 8.16574516,78.7290766 C10.6466484,76.0586825 13.5906161,73.9372445 16.9948419,72.3704124 C20.3990677,70.8007555 24.0633581,69.9034051 27.9886484,69.6680036 L27.9886484,97.8982883 L27.9886484,99.1176679 C27.9886484,104.344522 29.1392935,109.196617 31.4518097,113.668303 C33.7577774,118.140931 36.9309387,121.88758 40.9731645,124.905427 C37.0469387,127.113493 32.7755194,128.277318 28.1607774,128.393135 Z" id="Fill-93"></path>
                        <path d="M59.6342903,35.5498577 L86.1917419,35.5498577 L86.1917419,0.330032847 C82.6200645,0.618164234 79.2373548,1.49009124 76.1296774,2.92133212 C72.8180645,4.44767518 69.919,6.53709854 67.5073226,9.13216423 C65.0909677,11.7347628 63.1545161,14.775208 61.7494194,18.1706387 C60.3461935,21.5538285 59.6342903,25.2204416 59.6342903,29.0687847 L59.6342903,35.5498577 Z M29.3732581,39.4876533 C25.4414194,39.4876533 21.6863871,40.2607117 18.2091935,41.7851715 C14.7254516,43.3133978 11.6477097,45.4065876 9.06390323,48.0073029 C6.47916129,50.6080182 4.42951613,53.6748285 2.97109677,57.1201642 C1.51267742,60.5645584 0.773645161,64.3177993 0.773645161,68.2753686 L0.773645161,83.3259964 C3.24425806,78.7102445 6.75980645,74.8204708 11.2576129,71.7357701 C16.5973548,68.073865 22.6929677,66.2189015 29.3732581,66.2189015 L57.592129,66.2189015 C61.4145161,66.2189015 65.0563548,65.5023394 68.4184839,64.0908723 C71.7899677,62.6775219 74.8106452,60.7274562 77.3963226,58.2943467 C79.9763871,55.8678285 82.0531613,52.9469672 83.5658387,49.6146241 C84.9896452,46.4894343 85.8549677,43.0864708 86.1430968,39.4876533 L29.3732581,39.4876533 Z" id="Fill-94"></path>
                    </g>
                </g>
                <g id="Group-3" transform="translate(108.000000, 11.000000)">
                    <path d="M12.2004137,24.4576043 C12.2004137,23.1870794 11.0420593,21.8371467 9.8837049,21.8371467 C8.72535049,21.8371467 7.79866697,22.948856 7.79866697,24.4576043 L7.79866697,48.8358008 C7.79866697,50.3445491 8.72535049,51.4562584 9.8837049,51.4562584 C11.0420593,51.4562584 12.2004137,50.3445491 12.2004137,48.8358008 L12.2004137,24.4576043 Z M20,58.3647376 L12.2004137,58.3647376 L12.2004137,55.5060565 C10.887612,56.7765814 9.72925764,57.7294751 8.26200873,58.4441454 C7.48977247,58.8411844 6.7175362,59 6.02252356,59 C3.86026201,59 2.3930131,57.7294751 1.46632958,56.0619112 C0.462422432,54.4728097 0,52.3297443 0,50.5033647 L0,22.7900404 C0,20.9636608 0.462422432,18.8196501 1.46632958,17.1520861 C2.3930131,15.56393 3.86026201,14.2934051 6.02252356,14.2934051 C7.48977247,14.2934051 9.034245,15.166891 10.1925994,16.0403769 C10.887612,16.5962315 11.5054011,17.1520861 12.2004137,17.7873486 L12.2004137,0 L20,0 L20,58.3647376 Z" id="Fill-95"></path>
                    <path d="M39.4223827,36.7424512 C35.5306859,38.383659 33.8628159,42.2131439 33.8628159,46.277087 C33.8628159,46.8241563 33.9422383,47.7619893 34.2599278,48.6216696 C34.5776173,49.5595027 35.133574,50.2628774 36.0866426,50.2628774 C37.9133574,50.2628774 39.4223827,49.1687389 39.4223827,47.6838366 L39.4223827,36.7424512 Z M39.4223827,24.7850799 C39.4223827,24.0817052 39.4223827,22.9875666 39.1841155,22.2060391 C38.866426,21.4245115 38.2310469,20.8774423 37.198556,20.8774423 C35.8483755,20.8774423 35.2924188,21.8934281 35.0541516,23.1438721 C34.9747292,23.7690941 34.8953069,24.4724689 34.8953069,25.1758437 L34.8953069,27.2078153 L26.8745917,27.2078153 L26.8745917,25.410302 C26.8745917,22.2841918 28.0649819,19.4706927 29.9711191,17.3605684 C31.8782018,15.250444 34.5776173,14 37.6750903,14 C40.2960289,14 42.6787004,15.0159858 44.5054152,16.7353464 C46.33213,18.4547069 47.4440433,20.8774423 47.4440433,23.6909414 L47.4440433,49.9502664 C47.4440433,53.7797513 47.6823105,55.4991119 48,57.374778 L40.1371841,57.374778 C39.4223827,56.5150977 39.4223827,54.4831261 39.4223827,53.9360568 L38.866426,53.9360568 C38.4693141,54.6394316 37.7545126,55.6554174 36.6425993,56.5150977 C35.5306859,57.374778 34.0216606,58 32.433213,58 C31.400722,58 29.732852,57.6092362 28.4620939,56.0461812 C27.1119134,54.5612789 26,51.9040853 26,47.4493783 C26,42.6820604 27.4296029,39.2433393 29.3357401,36.8987567 C31.2418773,34.5541741 33.6245487,33.0692718 35.6101083,32.053286 C37.5956679,31.0373002 39.1046931,30.3339254 39.4223827,29.4742451 L39.4223827,24.7850799 Z" id="Fill-96"></path>
                    <polygon id="Fill-97" points="56.0441076 58 49 15 56.7563378 15 59.3669065 39.9195612 59.6834532 42.6709324 60.3165468 42.6709324 60.6330935 39.9195612 63.2455464 15 71 15 63.9568345 58"></polygon>
                    <path d="M81.798667,47.5275311 C81.798667,49.0905861 81.8758906,50.9662522 83.9618479,50.9662522 C85.7370719,50.9662522 86.2004137,50.1065719 86.2004137,47.5275311 L86.2004137,41.5879218 L94,41.5879218 L94,45.7300178 C94,50.4973357 93.1505401,53.5452931 91.4516203,55.4209591 C89.7527005,57.2966252 87.2815445,58 83.9618479,58 C81.180878,58 78.6324983,57.2184725 76.8563549,55.2646536 C75.0802114,53.3108348 74,50.1065719 74,45.339254 L74,26.660746 C74,21.8934281 75.0802114,18.6891652 76.8563549,16.7353464 C78.6324983,14.7815275 81.180878,14 83.9618479,14 C87.2815445,14 89.7527005,14.7033748 91.4516203,16.5790409 C93.1505401,18.4547069 94,21.5026643 94,26.2699822 L94,29.6305506 L86.2004137,29.6305506 L86.2004137,24.4724689 C86.2004137,21.8934281 85.7370719,21.0337478 83.9618479,21.0337478 C81.8758906,21.0337478 81.798667,22.9094139 81.798667,24.4724689 L81.798667,47.5275311 Z" id="Fill-98"></path>
                    <path d="M111.664093,25.2539964 C111.741313,23.6127886 111.432432,22.4404973 110.660232,21.5026643 C110.274131,21.1119005 109.656371,20.8774423 108.962309,20.8774423 C107.494208,20.8774423 106.876448,21.8934281 106.567568,23.0657194 C106.335907,23.6909414 106.258687,24.3943162 106.335907,25.2539964 L106.335907,46.7460036 C106.258687,48.3872114 106.644788,49.5595027 107.339768,50.4191829 C107.725869,50.8099467 108.266409,51.044405 108.962309,51.044405 C110.428571,51.044405 111.123552,50.1065719 111.432432,48.9342806 C111.664093,48.3090586 111.741313,47.6056838 111.664093,46.7460036 L111.664093,25.2539964 Z M119,46.9804618 C118.76834,51.1225577 117.532819,54.0142096 114.830116,56.2806394 C113.440154,57.4529307 111.509653,58 108.962309,58 C103.942085,58 101.471042,55.1865009 100.235521,52.3730018 C99.5405405,50.731794 99.0781394,48.8561279 99,46.7460036 L99,25.2539964 C99.2325795,21.1119005 100.467181,18.0639432 103.169884,15.7193606 C104.482625,14.5470693 106.413127,14 108.962309,14 C113.981614,14 116.528958,16.8134991 117.764479,19.5488455 C118.459459,21.1900533 118.92278,22.9875666 119,25.0195382 L119,46.9804618 Z" id="Fill-99"></path>
                </g>
                <g id="Group-4" transform="translate(108.000000, 70.000000)">
                    <path d="M7.90698029,47.6398293 C7.90698029,49.2039448 7.98526722,51.0808833 10.0999464,51.0808833 C11.8996139,51.0808833 12.3693355,50.2206198 12.3693355,47.6398293 L12.3693355,41.6961905 L20.2763158,41.6961905 L20.2763158,45.8410965 C20.2763158,50.6116487 19.4151595,53.6616739 17.692847,55.5386124 C15.9705344,57.415551 13.4653526,58.119403 10.0999464,58.119403 C7.28068482,58.119403 4.69721601,57.3373452 2.89661654,55.3822009 C1.09601707,53.4270565 0,50.2206198 0,45.4500676 L0,26.7588876 C0,21.9883354 1.09601707,18.7818987 2.89661654,16.8267543 C4.69721601,14.87161 7.28068482,14.0895522 10.0999464,14.0895522 C13.4653526,14.0895522 15.9705344,14.7934042 17.692847,16.6703428 C19.4151595,18.5472814 20.2763158,21.5973065 20.2763158,26.3678588 L20.2763158,29.730707 L12.3693355,29.730707 L12.3693355,24.569126 C12.3693355,21.9883354 11.8996139,21.1280719 10.0999464,21.1280719 C7.98526722,21.1280719 7.90698029,23.0050105 7.90698029,24.569126 L7.90698029,47.6398293 Z" id="Fill-100"></path>
                    <path d="M37.5232676,25.3511837 C37.6015546,23.7088624 37.2884068,22.5357758 36.5055375,21.5973065 C36.1141028,21.2062777 35.4878074,20.9716603 34.783225,20.9716603 C33.2957732,20.9716603 32.6694777,21.9883354 32.35633,23.161422 C32.1214692,23.7870682 32.0431823,24.4909202 32.1214692,25.3511837 L32.1214692,46.8577715 C32.0431823,48.5000928 32.4346169,49.6731794 33.1391993,50.5334429 C33.530634,50.9244718 34.0786426,51.1590891 34.783225,51.1590891 C36.2706767,51.1590891 36.9752591,50.2206198 37.2884068,49.0475332 C37.5232676,48.421887 37.6015546,47.718035 37.5232676,46.8577715 L37.5232676,25.3511837 Z M44.9605263,47.0923889 C44.7256655,51.2372949 43.4730746,54.1309085 40.7330319,56.398876 C39.3238671,57.5719626 37.3666938,58.119403 34.783225,58.119403 C29.6945743,58.119403 27.1893924,55.3039951 25.9368015,52.4885873 C25.2322191,50.846266 24.7624975,48.9693274 24.6842105,46.8577715 L24.6842105,25.3511837 C24.9200033,21.2062777 26.1716623,18.1562525 28.9117049,15.8100793 C30.2425828,14.6369927 32.1997561,14.0895522 34.783225,14.0895522 C39.8728076,14.0895522 42.4553444,16.9049601 43.7079354,19.6421622 C44.4125178,21.2844834 44.8822394,23.0832162 44.9605263,25.1165664 L44.9605263,47.0923889 Z" id="Fill-101"></path>
                    <path d="M58.1564117,58.119403 L50.25,58.119403 L50.25,14.7242168 L58.1564117,14.7242168 L58.1564117,18.3735377 C58.3129928,18.2942047 58.6261549,17.9768724 59.0958981,17.500874 C59.958026,16.6282103 61.1314519,15.4382143 62.5406815,14.6448837 C63.2452963,14.2482184 63.8716206,14.0895522 64.5762353,14.0895522 C66.6900797,14.0895522 68.1775998,15.3588813 69.1170862,16.9455426 C70.0575046,18.6115369 70.5263158,20.7535296 70.5263158,22.5781901 L70.5263158,58.119403 L62.618972,58.119403 L62.618972,23.7681861 C62.618972,22.1021917 61.6794857,21.8641926 60.7399993,21.8641926 C59.8797355,21.8641926 59.4090602,22.3401909 58.8610265,22.8955224 C58.6261549,23.2128546 58.3912833,23.5301869 58.1564117,23.9268522 L58.1564117,58.119403 Z" id="Fill-102"></path>
                    <path d="M88.6476608,25.6658961 C88.6476608,24.6492802 88.6476608,23.3980606 88.3342105,22.3814448 C87.9423977,21.4430301 87.3154971,20.6610179 86.0626288,20.6610179 C85.0429825,20.6610179 84.4160819,21.4430301 84.1026316,22.3814448 C83.7108187,23.3198594 83.6324561,24.6492802 83.6324561,25.6658961 C83.6324561,26.9953168 84.3377193,28.4029388 85.3564327,29.6541584 C86.2967836,30.9053779 87.5505848,32.1565974 88.804386,33.3296158 C90.45,34.9718414 92.4090643,36.8486707 93.7412281,38.9601037 C95.0733918,41.1497379 96.0921053,43.5739758 96.0921053,46.3892198 C96.0921053,49.1262625 95.4652047,52.0197077 93.8979532,54.2093419 C92.2523392,56.4771773 89.7447368,58.119403 85.9833333,58.119403 C81.2041493,58.119403 78.3821637,55.9297688 76.8149123,53.2709273 C75.2476608,50.6120857 74.9342105,47.3276344 74.9342105,45.059799 L82.3002924,45.059799 C82.3002924,46.2328173 82.378655,47.875043 82.927193,49.1262625 C83.475731,50.4556833 84.3377193,51.5505004 85.9833333,51.5505004 C88.255848,51.5505004 88.7260234,48.8916588 88.7260234,46.3892198 C88.7260234,43.8085795 86.2184211,41.2279391 83.7891813,38.8037013 C81.9084795,37.0050732 80.1061404,35.3628475 78.695614,33.2514145 C77.2850877,31.1399816 76.2673072,28.7939449 76.2673072,25.6658961 C76.2673072,23.163457 76.7365497,20.2700118 78.2254386,18.0021764 C79.7143275,15.8125422 82.1435673,14.1703165 85.9049708,14.0921153 C90.5283626,14.0139141 93.1143275,15.7343409 94.4464912,18.0021764 C95.778655,20.2700118 96.0137427,23.2416582 96.0137427,25.6658961 L88.6476608,25.6658961 Z" id="Fill-103"></path>
                    <path d="M109.982257,4.40298507 L109.982257,15.085194 L115.486842,15.085194 L115.486842,22.2857942 L109.982257,22.2857942 L109.982257,43.808467 C109.982257,45.1536341 109.982257,46.8934965 110.301363,48.318733 C110.620469,49.7430276 111.258682,50.9299397 112.535108,50.9299397 C113.172371,50.9299397 113.970137,50.8508122 114.528573,50.7716847 C114.84768,50.6925572 115.167736,50.6925572 115.486842,50.6134298 L115.486842,58.4470497 C115.087959,58.5261772 114.688126,58.6844321 114.289243,58.7635596 C113.491477,58.9208725 112.455331,59 111.178906,59 C106.472086,59 104.237391,56.6261758 103.120519,53.6202738 C102.004596,50.6134298 101.92482,46.972624 101.92482,44.4414868 L101.92482,22.2857942 L97.8552632,22.2857942 L97.8552632,15.085194 L101.92482,15.085194 L101.92482,4.40298507 L109.982257,4.40298507 Z" id="Fill-104"></path>
                    <path d="M134.881579,22.9748555 C134.17457,22.7368563 133.388069,22.6575232 132.681061,22.6575232 C131.425091,22.6575232 129.932517,22.8161893 128.675612,24.0061853 C127.183038,25.2755143 126.947368,26.6241764 126.947368,27.9728385 L126.947368,58.119403 L119.013158,58.119403 L119.013158,14.7242168 L126.947368,14.7242168 L126.947368,19.5635337 C127.025925,19.0082022 127.575821,17.6595401 128.832725,16.3902111 C130.08963,15.2002151 131.974987,14.0895522 134.881579,14.0895522 L134.881579,22.9748555 Z" id="Fill-105"></path>
                    <path d="M150.776867,14.9701493 L158.684211,14.9701493 L158.684211,58.3653355 L150.776867,58.3653355 L150.776867,54.7160145 C150.620286,54.7953476 150.307124,55.1126798 149.915671,55.5093452 C148.976185,56.4613419 147.880117,57.5720048 146.470888,58.3653355 C145.766273,58.7620008 145.061658,59 144.357043,59 C142.243199,59 140.755679,57.730671 139.816192,56.0646766 C138.876706,54.4780153 138.407895,52.3360226 138.407895,50.5113621 L138.407895,14.9701493 L146.314306,14.9701493 L146.314306,49.3213661 C146.314306,50.9873605 147.253793,51.2253597 148.194211,51.2253597 C149.054475,51.2253597 149.524218,50.7493613 150.072252,50.1940299 C150.307124,49.9560307 150.541995,49.5593653 150.776867,49.1627 L150.776867,14.9701493 Z" id="Fill-106"></path>
                    <path d="M171.880096,47.6398293 C171.880096,49.2039448 171.958386,51.0808833 174.073163,51.0808833 C175.872913,51.0808833 176.342656,50.2206198 176.342656,47.6398293 L176.342656,41.6961905 L184.25,41.6961905 L184.25,45.8410965 C184.25,50.6116487 183.388804,53.6616739 181.666412,55.5386124 C179.944021,57.415551 177.438724,58.119403 174.073163,58.119403 C171.253772,58.119403 168.670184,57.3373452 166.869502,55.3822009 C165.06882,53.4270565 163.973684,50.2206198 163.973684,45.4500676 L163.973684,26.7588876 C163.973684,21.9883354 165.06882,18.7818987 166.869502,16.8267543 C168.670184,14.87161 171.253772,14.0895522 174.073163,14.0895522 C177.438724,14.0895522 179.944021,14.7934042 181.666412,16.6703428 C183.388804,18.5472814 184.25,21.5973065 184.25,26.3678588 L184.25,29.730707 L176.342656,29.730707 L176.342656,24.569126 C176.342656,21.9883354 175.872913,21.1280719 174.073163,21.1280719 C171.958386,21.1280719 171.880096,23.0050105 171.880096,24.569126 L171.880096,47.6398293 Z" id="Fill-107"></path>
                    <path d="M199.02173,4.40298507 L199.02173,15.085194 L204.526316,15.085194 L204.526316,22.2857942 L199.02173,22.2857942 L199.02173,43.808467 C199.02173,45.1536341 199.02173,46.8934965 199.340837,48.318733 C199.659943,49.7430276 200.298156,50.9299397 201.574581,50.9299397 C202.211845,50.9299397 203.009611,50.8508122 203.568047,50.7716847 C203.887153,50.6925572 204.207209,50.6925572 204.526316,50.6134298 L204.526316,58.4470497 C204.127433,58.5261772 203.7276,58.6844321 203.328717,58.7635596 C202.530951,58.9208725 201.494805,59 200.218379,59 C195.51156,59 193.276865,56.6261758 192.159993,53.6202738 C191.04407,50.6134298 190.964293,46.972624 190.964293,44.4414868 L190.964293,22.2857942 L186.894737,22.2857942 L186.894737,15.085194 L190.964293,15.085194 L190.964293,4.40298507 L199.02173,4.40298507 Z" id="Fill-108"></path>
                    <path d="M208.934211,58.119403 L216.868421,58.119403 L216.868421,14.8659153 L208.934211,14.8659153 L208.934211,58.119403 Z M208.934211,7.98647578 L216.868421,7.98647578 L216.868421,0 L208.934211,0 L208.934211,7.98647578 Z" id="Fill-109"></path>
                    <path d="M234.996952,25.3511837 C235.075239,23.7088624 234.762091,22.5357758 233.979222,21.5973065 C233.587787,21.2062777 232.961492,20.9716603 232.257841,20.9716603 C230.769457,20.9716603 230.143162,21.9883354 229.830014,23.161422 C229.595153,23.7870682 229.516866,24.4909202 229.595153,25.3511837 L229.595153,46.8577715 C229.516866,48.5000928 229.908301,49.6731794 230.612884,50.5334429 C231.004318,50.9244718 231.552327,51.1590891 232.257841,51.1590891 C233.744361,51.1590891 234.448943,50.2206198 234.762091,49.0475332 C234.996952,48.421887 235.075239,47.718035 234.996952,46.8577715 L234.996952,25.3511837 Z M242.434211,47.0923889 C242.19935,51.2372949 240.946759,54.1309085 238.206716,56.398876 C236.797551,57.5719626 234.840378,58.119403 232.257841,58.119403 C227.168258,58.119403 224.663077,55.3039951 223.410486,52.4885873 C222.705903,50.846266 222.237114,48.9693274 222.157895,46.8577715 L222.157895,25.3511837 C222.393688,21.2062777 223.645346,18.1562525 226.385389,15.8100793 C227.716267,14.6369927 229.67344,14.0895522 232.257841,14.0895522 C237.346492,14.0895522 239.929029,16.9049601 241.18162,19.6421622 C241.886202,21.2844834 242.355924,23.0832162 242.434211,25.1165664 L242.434211,47.0923889 Z" id="Fill-110"></path>
                    <path d="M255.630096,58.119403 L247.723684,58.119403 L247.723684,14.7242168 L255.630096,14.7242168 L255.630096,18.3735377 C255.786677,18.2942047 256.099839,17.9768724 256.569582,17.500874 C257.43171,16.6282103 258.605136,15.4382143 260.014366,14.6448837 C260.718981,14.2482184 261.345305,14.0895522 262.04992,14.0895522 C264.163764,14.0895522 265.651284,15.3588813 266.59077,16.9455426 C267.531189,18.6115369 268,20.7535296 268,22.5781901 L268,58.119403 L260.092656,58.119403 L260.092656,23.7681861 C260.092656,22.1021917 259.15317,21.8641926 258.213683,21.8641926 C257.35342,21.8641926 256.882744,22.3401909 256.334711,22.8955224 C256.099839,23.2128546 255.864968,23.5301869 255.630096,23.9268522 L255.630096,58.119403 Z" id="Fill-111"></path>
                </g>
            </g>
        </g>
    </g>
</svg>