<?xml version="1.0" encoding="UTF-8"?>
<svg width="160px" height="160px" viewBox="0 0 160 160" version="1.1" xmlns="http://www.w3.org/2000/svg" xmlns:xlink="http://www.w3.org/1999/xlink">
    <!-- Generator: Sketch 48.2 (47327) - http://www.bohemiancoding.com/sketch -->
    <title>Davco_Logo_icon_rev</title>
    <desc>Created with Sketch.</desc>
    <defs></defs>
    <g id="Page-1" stroke="none" stroke-width="1" fill="none" fill-rule="evenodd">
        <g id="Davco_Logo_icon_rev" fill="#FFFFFF">
            <g id="Group-2" transform="translate(10.000000, 7.000000)">
                <g id="Group">
                    <path d="M98.8285065,112.179686 C98.8285065,116.784547 97.9407,121.087818 96.1693452,125.098022 C94.3969258,129.109292 91.9964419,132.625015 88.9796032,135.647321 C85.9563774,138.674956 82.4424097,141.040796 78.439829,142.748036 C74.4308613,144.458474 70.1312806,145.313161 65.5357645,145.313161 L45.2439581,145.313161 C51.676829,142.550883 56.9323452,138.21138 61.0051839,132.29465 C65.0737645,126.378985 67.1112484,119.674708 67.1112484,112.179686 L67.1112484,110.799613 L67.1112484,78.8490584 C74.2041194,78.5879635 80.5720548,76.4523139 86.2203774,72.4410438 C91.866571,68.4319051 96.0703452,63.2696861 98.8285065,56.9597153 L98.8285065,112.179686 Z M32.0450226,145.313161 C27.5793774,145.18208 23.4086032,144.226153 19.5358935,142.452839 C15.6610548,140.676328 12.2769581,138.279584 9.38999032,135.253015 C6.49982903,132.230708 4.23453871,128.745891 2.59518387,124.801759 C0.951570968,120.857628 0.131893548,116.65027 0.131893548,112.179686 C0.131893548,107.711234 0.951570968,103.501745 2.59518387,99.5576131 C4.23453871,95.6145474 6.46682903,92.1307956 9.29205484,89.1042263 C12.1151516,86.0819197 15.4651839,83.6809124 19.3389581,81.9075985 C23.2127323,80.1310876 27.3824419,79.1154818 31.8491516,78.8490584 L31.8491516,110.799613 L31.8491516,112.179686 C31.8491516,118.09535 33.1585065,123.586869 35.7899903,128.647847 C38.4140226,133.709891 42.0248613,137.950285 46.6246355,141.365832 C42.1568613,143.864883 37.2962806,145.18208 32.0450226,145.313161 Z" id="Fill-93"></path>
                    <path d="M67.8597097,40.2347226 L98.0802581,40.2347226 L98.0802581,0.373525547 C94.0159355,0.699627737 90.1666452,1.68645985 86.6303226,3.30631387 C82.8619355,5.03380292 79.563,7.39857664 76.8186774,10.3356277 C74.0690323,13.2812044 71.8654839,16.7223285 70.2665806,20.565219 C68.6698065,24.3942555 67.8597097,28.5440657 67.8597097,32.8995547 L67.8597097,40.2347226 Z M33.4247419,44.6914526 C28.9505806,44.6914526 24.6776129,45.5663869 20.7208065,47.2917445 C16.7565484,49.021365 13.2542903,51.3904015 10.3140968,54.3338467 C7.37283871,57.277292 5.04048387,60.7482555 3.38090323,64.6476277 C1.72132258,68.5459343 0.880354839,72.7937883 0.880354839,77.2728978 L0.880354839,94.3069416 C3.69174194,89.0829124 7.69219355,84.6805328 12.8103871,81.1893212 C18.8866452,77.0448394 25.8230323,74.9454234 33.4247419,74.9454234 L65.535871,74.9454234 C69.8854839,74.9454234 74.0296452,74.1344307 77.8555161,72.5369562 C81.6920323,70.9373504 85.1293548,68.7302993 88.0716774,65.9765474 C91.0076129,63.2302555 93.3708387,59.9244745 95.0921613,56.1529854 C96.7123548,52.6159489 97.6970323,48.7645328 98.0249032,44.6914526 L33.4247419,44.6914526 Z" id="Fill-94"></path>
                </g>
            </g>
        </g>
    </g>
</svg>