<?xml version="1.0" encoding="UTF-8"?>
<svg width="463px" height="173px" viewBox="0 0 463 173" version="1.1" xmlns="http://www.w3.org/2000/svg" xmlns:xlink="http://www.w3.org/1999/xlink">
    <!-- Generator: Sketch 48.2 (47327) - http://www.bohemiancoding.com/sketch -->
    <title>Davco_Logo_Stacked</title>
    <desc>Created with Sketch.</desc>
    <defs></defs>
    <g id="Page-1" stroke="none" stroke-width="1" fill="none" fill-rule="evenodd">
        <g id="Davco_Logo_Stacked" fill="#25363D">
            <g id="Group-2" transform="translate(15.000000, 14.000000)">
                <g id="Group">
                    <path d="M98.8285065,112.179686 C98.8285065,116.784547 97.9407,121.087818 96.1693452,125.098022 C94.3969258,129.109292 91.9964419,132.625015 88.9796032,135.647321 C85.9563774,138.674956 82.4424097,141.040796 78.439829,142.748036 C74.4308613,144.458474 70.1312806,145.313161 65.5357645,145.313161 L45.2439581,145.313161 C51.676829,142.550883 56.9323452,138.21138 61.0051839,132.29465 C65.0737645,126.378985 67.1112484,119.674708 67.1112484,112.179686 L67.1112484,110.799613 L67.1112484,78.8490584 C74.2041194,78.5879635 80.5720548,76.4523139 86.2203774,72.4410438 C91.866571,68.4319051 96.0703452,63.2696861 98.8285065,56.9597153 L98.8285065,112.179686 Z M32.0450226,145.313161 C27.5793774,145.18208 23.4086032,144.226153 19.5358935,142.452839 C15.6610548,140.676328 12.2769581,138.279584 9.38999032,135.253015 C6.49982903,132.230708 4.23453871,128.745891 2.59518387,124.801759 C0.951570968,120.857628 0.131893548,116.65027 0.131893548,112.179686 C0.131893548,107.711234 0.951570968,103.501745 2.59518387,99.5576131 C4.23453871,95.6145474 6.46682903,92.1307956 9.29205484,89.1042263 C12.1151516,86.0819197 15.4651839,83.6809124 19.3389581,81.9075985 C23.2127323,80.1310876 27.3824419,79.1154818 31.8491516,78.8490584 L31.8491516,110.799613 L31.8491516,112.179686 C31.8491516,118.09535 33.1585065,123.586869 35.7899903,128.647847 C38.4140226,133.709891 42.0248613,137.950285 46.6246355,141.365832 C42.1568613,143.864883 37.2962806,145.18208 32.0450226,145.313161 Z" id="Fill-93"></path>
                    <path d="M67.8597097,40.2347226 L98.0802581,40.2347226 L98.0802581,0.373525547 C94.0159355,0.699627737 90.1666452,1.68645985 86.6303226,3.30631387 C82.8619355,5.03380292 79.563,7.39857664 76.8186774,10.3356277 C74.0690323,13.2812044 71.8654839,16.7223285 70.2665806,20.565219 C68.6698065,24.3942555 67.8597097,28.5440657 67.8597097,32.8995547 L67.8597097,40.2347226 Z M33.4247419,44.6914526 C28.9505806,44.6914526 24.6776129,45.5663869 20.7208065,47.2917445 C16.7565484,49.021365 13.2542903,51.3904015 10.3140968,54.3338467 C7.37283871,57.277292 5.04048387,60.7482555 3.38090323,64.6476277 C1.72132258,68.5459343 0.880354839,72.7937883 0.880354839,77.2728978 L0.880354839,94.3069416 C3.69174194,89.0829124 7.69219355,84.6805328 12.8103871,81.1893212 C18.8866452,77.0448394 25.8230323,74.9454234 33.4247419,74.9454234 L65.535871,74.9454234 C69.8854839,74.9454234 74.0296452,74.1344307 77.8555161,72.5369562 C81.6920323,70.9373504 85.1293548,68.7302993 88.0716774,65.9765474 C91.0076129,63.2302555 93.3708387,59.9244745 95.0921613,56.1529854 C96.7123548,52.6159489 97.6970323,48.7645328 98.0249032,44.6914526 L33.4247419,44.6914526 Z" id="Fill-94"></path>
                </g>
            </g>
            <g id="Group-3" transform="translate(138.000000, 26.000000)">
                <path d="M14.0304758,27.7738896 C14.0304758,26.3310902 12.6983682,24.7981157 11.3662606,24.7981157 C10.0341531,24.7981157 8.96846702,26.0605653 8.96846702,27.7738896 L8.96846702,55.4576043 C8.96846702,57.1709287 10.0341531,58.4333782 11.3662606,58.4333782 C12.6983682,58.4333782 14.0304758,57.1709287 14.0304758,55.4576043 L14.0304758,27.7738896 Z M23,66.2786003 L14.0304758,66.2786003 L14.0304758,63.0323015 C12.5207538,64.4751009 11.1886463,65.5572005 9.50131004,66.3687752 C8.61323834,66.8196501 7.72516663,67 6.92590209,67 C4.43930131,67 2.75196507,65.5572005 1.68627902,63.6635262 C0.531785796,61.8589534 0,59.4253028 0,57.3512786 L0,25.8802153 C0,23.8061911 0.531785796,21.371467 1.68627902,19.4777927 C2.75196507,17.6742934 4.43930131,16.2314939 6.92590209,16.2314939 C8.61323834,16.2314939 10.3893818,17.2234186 11.7214893,18.2153432 C12.5207538,18.846568 13.2312112,19.4777927 14.0304758,20.1991925 L14.0304758,0 L23,0 L23,66.2786003 Z" id="Fill-95"></path>
                <path d="M44.2527076,41.8436945 C39.8303249,43.7087034 37.9350181,48.0603908 37.9350181,52.678508 C37.9350181,53.3001776 38.0252708,54.365897 38.3862816,55.3428064 C38.7472924,56.4085258 39.3790614,57.2078153 40.4620939,57.2078153 C42.5379061,57.2078153 44.2527076,55.964476 44.2527076,54.277087 L44.2527076,41.8436945 Z M44.2527076,28.2557726 C44.2527076,27.4564831 44.2527076,26.2131439 43.9819495,25.3250444 C43.6209386,24.4369449 42.898917,23.8152753 41.7256318,23.8152753 C40.1913357,23.8152753 39.5595668,24.9698046 39.2888087,26.3907638 C39.198556,27.1012433 39.1083032,27.9005329 39.1083032,28.6998224 L39.1083032,31.008881 L29.9938542,31.008881 L29.9938542,28.9662522 C29.9938542,25.4138544 31.3465704,22.2166963 33.5126354,19.8188277 C35.6797748,17.4209591 38.7472924,16 42.267148,16 C45.2454874,16 47.9530686,17.1545293 50.0288809,19.1083481 C52.1046931,21.062167 53.368231,23.8152753 53.368231,27.0124334 L53.368231,56.8525755 C53.368231,61.2042629 53.6389892,63.1580817 54,65.2895204 L45.0649819,65.2895204 C44.2527076,64.312611 44.2527076,62.0035524 44.2527076,61.3818828 L43.6209386,61.3818828 C43.1696751,62.1811723 42.3574007,63.3357016 41.0938628,64.312611 C39.8303249,65.2895204 38.1155235,66 36.3104693,66 C35.1371841,66 33.2418773,65.5559503 31.7978339,63.7797513 C30.2635379,62.0923623 29,59.0728242 29,54.0106572 C29,48.5932504 30.6245487,44.6856128 32.7906137,42.0213144 C34.9566787,39.357016 37.6642599,37.669627 39.9205776,36.5150977 C42.1768953,35.3605684 43.8916968,34.5612789 44.2527076,33.5843694 L44.2527076,28.2557726 Z" id="Fill-96"></path>
                <polygon id="Fill-97" points="64.0046677 66 56 17 64.8140202 17 67.7805755 45.3967093 68.1402878 48.5319927 68.8597122 48.5319927 69.2194245 45.3967093 72.1881209 17 81 17 72.9964029 66"></polygon>
                <path d="M92.968467,54.0994671 C92.968467,55.8756661 93.0572742,58.0071048 95.456125,58.0071048 C97.4976327,58.0071048 98.0304758,57.0301954 98.0304758,54.0994671 L98.0304758,47.3499112 L107,47.3499112 L107,52.0568384 C107,57.4742451 106.023121,60.937833 104.069363,63.0692718 C102.115606,65.2007105 99.2737761,66 95.456125,66 C92.2580097,66 89.327373,65.1119005 87.2848081,62.8916519 C85.2422432,60.6714032 84,57.0301954 84,51.6127886 L84,30.3872114 C84,24.9698046 85.2422432,21.3285968 87.2848081,19.1083481 C89.327373,16.8880995 92.2580097,16 95.456125,16 C99.2737761,16 102.115606,16.7992895 104.069363,18.9307282 C106.023121,21.062167 107,24.5257549 107,29.9431616 L107,33.7619893 L98.0304758,33.7619893 L98.0304758,27.9005329 C98.0304758,24.9698046 97.4976327,23.9928952 95.456125,23.9928952 C93.0572742,23.9928952 92.968467,26.1243339 92.968467,27.9005329 L92.968467,54.0994671 Z" id="Fill-98"></path>
                <path d="M126.563707,28.7886323 C126.65251,26.9236234 126.297297,25.5914742 125.409266,24.5257549 C124.965251,24.0817052 124.254826,23.8152753 123.456656,23.8152753 C121.76834,23.8152753 121.057915,24.9698046 120.702703,26.3019538 C120.436293,27.0124334 120.34749,27.8117229 120.436293,28.7886323 L120.436293,53.2113677 C120.34749,55.0763766 120.791506,56.4085258 121.590734,57.3854352 C122.034749,57.8294849 122.656371,58.0959147 123.456656,58.0959147 C125.142857,58.0959147 125.942085,57.0301954 126.297297,55.6980462 C126.563707,54.9875666 126.65251,54.1882771 126.563707,53.2113677 L126.563707,28.7886323 Z M135,53.4777975 C134.733591,58.1847247 133.312741,61.4706927 130.204633,64.0461812 C128.606178,65.3783304 126.3861,66 123.456656,66 C117.683398,66 114.841699,62.8028419 113.420849,59.6056838 C112.621622,57.740675 112.08986,55.6092362 112,53.2113677 L112,28.7886323 C112.267466,24.0817052 113.687259,20.6181172 116.795367,17.9538188 C118.305019,16.6216696 120.525097,16 123.456656,16 C129.228856,16 132.158301,19.1971581 133.579151,22.3055062 C134.378378,24.1705151 134.911197,26.2131439 135,28.5222025 L135,53.4777975 Z" id="Fill-99"></path>
            </g>
            <g id="Group-4" transform="translate(138.000000, 93.000000)">
                <path d="M8.96911197,54.0994671 C8.96911197,55.8756661 9.05791506,58.0071048 11.4566556,58.0071048 C13.4980695,58.0071048 14.030888,57.0301954 14.030888,54.0994671 L14.030888,47.3499112 L23,47.3499112 L23,52.0568384 C23,57.4742451 22.023166,60.937833 20.0694981,63.0692718 C18.1158301,65.2007105 15.2741313,66 11.4566556,66 C8.25868726,66 5.32818533,65.1119005 3.28571429,62.8916519 C1.24324324,60.6714032 0,57.0301954 0,51.6127886 L0,30.3872114 C0,24.9698046 1.24324324,21.3285968 3.28571429,19.1083481 C5.32818533,16.8880995 8.25868726,16 11.4566556,16 C15.2741313,16 18.1158301,16.7992895 20.0694981,18.9307282 C22.023166,21.062167 23,24.5257549 23,29.9431616 L23,33.7619893 L14.030888,33.7619893 L14.030888,27.9005329 C14.030888,24.9698046 13.4980695,23.9928952 11.4566556,23.9928952 C9.05791506,23.9928952 8.96911197,26.1243339 8.96911197,27.9005329 L8.96911197,54.0994671 Z" id="Fill-100"></path>
                <path d="M42.5637066,28.7886323 C42.6525097,26.9236234 42.2972973,25.5914742 41.4092664,24.5257549 C40.965251,24.0817052 40.2548263,23.8152753 39.4555985,23.8152753 C37.7683398,23.8152753 37.0579151,24.9698046 36.7027027,26.3019538 C36.4362934,27.0124334 36.3474903,27.8117229 36.4362934,28.7886323 L36.4362934,53.2113677 C36.3474903,55.0763766 36.7915058,56.4085258 37.5907336,57.3854352 C38.034749,57.8294849 38.6563707,58.0959147 39.4555985,58.0959147 C41.1428571,58.0959147 41.9420849,57.0301954 42.2972973,55.6980462 C42.5637066,54.9875666 42.6525097,54.1882771 42.5637066,53.2113677 L42.5637066,28.7886323 Z M51,53.4777975 C50.7335907,58.1847247 49.3127413,61.4706927 46.2046332,64.0461812 C44.6061776,65.3783304 42.3861004,66 39.4555985,66 C33.6833977,66 30.8416988,62.8028419 29.4208494,59.6056838 C28.6216216,57.740675 28.0888031,55.6092362 28,53.2113677 L28,28.7886323 C28.2674664,24.0817052 29.6872587,20.6181172 32.7953668,17.9538188 C34.3050193,16.6216696 36.5250965,16 39.4555985,16 C45.2288564,16 48.1583012,19.1971581 49.5791506,22.3055062 C50.3783784,24.1705151 50.9111969,26.2131439 51,28.5222025 L51,53.4777975 Z" id="Fill-101"></path>
                <path d="M65.968467,66 L57,66 L57,16.7207207 L65.968467,16.7207207 L65.968467,20.8648649 C66.1460814,20.7747748 66.50131,20.4144144 67.0341531,19.8738739 C68.0120892,18.8828829 69.3431395,17.5315315 70.9416686,16.6306306 C71.7409331,16.1801802 72.4513905,16 73.250655,16 C75.6484486,16 77.3357849,17.4414414 78.4014709,19.2432432 C79.4682142,21.1351351 80,23.5675676 80,25.6396396 L80,66 L71.0304758,66 L71.0304758,26.990991 C71.0304758,25.0990991 69.9647897,24.8288288 68.8991037,24.8288288 C67.923282,24.8288288 67.3893818,25.3693694 66.7677316,26 C66.50131,26.3603604 66.2348885,26.7207207 65.968467,27.1711712 L65.968467,66 Z" id="Fill-102"></path>
                <path d="M100.555556,29.1460176 C100.555556,27.9915555 100.555556,26.570679 100.2,25.4162169 C99.7555556,24.3505596 99.0444444,23.4625118 97.6232804,23.4625118 C96.4666667,23.4625118 95.7555556,24.3505596 95.4,25.4162169 C94.9555556,26.4818743 94.8666667,27.9915555 94.8666667,29.1460176 C94.8666667,30.6556988 95.6666667,32.2541848 96.8222222,33.6750612 C97.8888889,35.0959376 99.3111111,36.5168141 100.733333,37.8488857 C102.6,39.713786 104.822222,41.8451007 106.333333,44.2428296 C107.844444,46.7293634 109,49.4823115 109,52.6792835 C109,55.7874507 108.288889,59.0732274 106.511111,61.5597612 C104.644444,64.1350997 101.8,66 97.5333333,66 C92.1121693,66 88.9111111,63.5134662 87.1333333,60.4941038 C85.3555556,57.4747414 85,53.7449408 85,51.1696022 L93.3555556,51.1696022 C93.3555556,52.5016739 93.4444444,54.3665742 94.0666667,55.7874507 C94.6888889,57.2971319 95.6666667,58.5403987 97.5333333,58.5403987 C100.111111,58.5403987 100.644444,55.5210363 100.644444,52.6792835 C100.644444,49.7487258 97.8,46.8181682 95.0444444,44.0652201 C92.9111111,42.0227102 90.8666667,40.1578099 89.2666667,37.7600809 C87.6666667,35.362352 86.5121693,32.6982086 86.5121693,29.1460176 C86.5121693,26.3042647 87.0444444,23.018488 88.7333333,20.4431494 C90.4222222,17.9566157 93.1777778,16.0917154 97.4444444,16.0029106 C102.688889,15.9141058 105.622222,17.8678109 107.133333,20.4431494 C108.644444,23.018488 108.911111,26.3930695 108.911111,29.1460176 L100.555556,29.1460176 Z" id="Fill-103"></path>
                <path d="M124.755992,5 L124.755992,17.1306441 L131,17.1306441 L131,25.3075967 L124.755992,25.3075967 L124.755992,49.7485981 C124.755992,51.2761607 124.755992,53.2519367 125.117964,54.8704256 C125.479935,56.4878449 126.203878,57.8356942 127.651764,57.8356942 C128.37463,57.8356942 129.279558,57.7458376 129.913008,57.655981 C130.27498,57.5661243 130.638029,57.5661243 131,57.4762677 L131,66.3720734 C130.547536,66.46193 130.093994,66.6416432 129.64153,66.7314999 C128.736601,66.9101434 127.561271,67 126.113385,67 C120.774306,67 118.239429,64.3043013 116.972529,60.8908194 C115.706706,57.4762677 115.616213,53.3417933 115.616213,50.4674511 L115.616213,25.3075967 L111,25.3075967 L111,17.1306441 L115.616213,17.1306441 L115.616213,5 L124.755992,5 Z" id="Fill-104"></path>
                <path d="M153,26.0900901 C152.19802,25.8198198 151.30587,25.7297297 150.50389,25.7297297 C149.079208,25.7297297 147.386139,25.9099099 145.960396,27.2612613 C144.267327,28.7027027 144,30.2342342 144,31.7657658 L144,66 L135,66 L135,16.7207207 L144,16.7207207 L144,22.2162162 C144.089109,21.5855856 144.712871,20.0540541 146.138614,18.6126126 C147.564356,17.2612613 149.70297,16 153,16 L153,26.0900901 Z" id="Fill-105"></path>
                <path d="M171.030476,17 L180,17 L180,66.2792793 L171.030476,66.2792793 L171.030476,62.1351351 C170.852861,62.2252252 170.497633,62.5855856 170.053597,63.036036 C168.987911,64.1171171 167.74461,65.3783784 166.146081,66.2792793 C165.346817,66.7297297 164.547552,67 163.748288,67 C161.350494,67 159.663158,65.5585586 158.597472,63.6666667 C157.531786,61.8648649 157,59.4324324 157,57.3603604 L157,17 L165.968467,17 L165.968467,56.009009 C165.968467,57.9009009 167.034153,58.1711712 168.100896,58.1711712 C169.076718,58.1711712 169.609561,57.6306306 170.231211,57 C170.497633,56.7297297 170.764054,56.2792793 171.030476,55.8288288 L171.030476,17 Z" id="Fill-106"></path>
                <path d="M194.968467,54.0994671 C194.968467,55.8756661 195.057274,58.0071048 197.456125,58.0071048 C199.497633,58.0071048 200.030476,57.0301954 200.030476,54.0994671 L200.030476,47.3499112 L209,47.3499112 L209,52.0568384 C209,57.4742451 208.023121,60.937833 206.069363,63.0692718 C204.115606,65.2007105 201.273776,66 197.456125,66 C194.25801,66 191.327373,65.1119005 189.284808,62.8916519 C187.242243,60.6714032 186,57.0301954 186,51.6127886 L186,30.3872114 C186,24.9698046 187.242243,21.3285968 189.284808,19.1083481 C191.327373,16.8880995 194.25801,16 197.456125,16 C201.273776,16 204.115606,16.7992895 206.069363,18.9307282 C208.023121,21.062167 209,24.5257549 209,29.9431616 L209,33.7619893 L200.030476,33.7619893 L200.030476,27.9005329 C200.030476,24.9698046 199.497633,23.9928952 197.456125,23.9928952 C195.057274,23.9928952 194.968467,26.1243339 194.968467,27.9005329 L194.968467,54.0994671 Z" id="Fill-107"></path>
                <path d="M225.755992,5 L225.755992,17.1306441 L232,17.1306441 L232,25.3075967 L225.755992,25.3075967 L225.755992,49.7485981 C225.755992,51.2761607 225.755992,53.2519367 226.117964,54.8704256 C226.479935,56.4878449 227.203878,57.8356942 228.651764,57.8356942 C229.37463,57.8356942 230.279558,57.7458376 230.913008,57.655981 C231.27498,57.5661243 231.638029,57.5661243 232,57.4762677 L232,66.3720734 C231.547536,66.46193 231.093994,66.6416432 230.64153,66.7314999 C229.736601,66.9101434 228.561271,67 227.113385,67 C221.774306,67 219.239429,64.3043013 217.972529,60.8908194 C216.706706,57.4762677 216.616213,53.3417933 216.616213,50.4674511 L216.616213,25.3075967 L212,25.3075967 L212,17.1306441 L216.616213,17.1306441 L216.616213,5 L225.755992,5 Z" id="Fill-108"></path>
                <path d="M237,66 L246,66 L246,16.8816327 L237,16.8816327 L237,66 Z M237,9.06938776 L246,9.06938776 L246,0 L237,0 L237,9.06938776 Z" id="Fill-109"></path>
                <path d="M266.563707,28.7886323 C266.65251,26.9236234 266.297297,25.5914742 265.409266,24.5257549 C264.965251,24.0817052 264.254826,23.8152753 263.456656,23.8152753 C261.76834,23.8152753 261.057915,24.9698046 260.702703,26.3019538 C260.436293,27.0124334 260.34749,27.8117229 260.436293,28.7886323 L260.436293,53.2113677 C260.34749,55.0763766 260.791506,56.4085258 261.590734,57.3854352 C262.034749,57.8294849 262.656371,58.0959147 263.456656,58.0959147 C265.142857,58.0959147 265.942085,57.0301954 266.297297,55.6980462 C266.563707,54.9875666 266.65251,54.1882771 266.563707,53.2113677 L266.563707,28.7886323 Z M275,53.4777975 C274.733591,58.1847247 273.312741,61.4706927 270.204633,64.0461812 C268.606178,65.3783304 266.3861,66 263.456656,66 C257.683398,66 254.841699,62.8028419 253.420849,59.6056838 C252.621622,57.740675 252.08986,55.6092362 252,53.2113677 L252,28.7886323 C252.267466,24.0817052 253.687259,20.6181172 256.795367,17.9538188 C258.305019,16.6216696 260.525097,16 263.456656,16 C269.228856,16 272.158301,19.1971581 273.579151,22.3055062 C274.378378,24.1705151 274.911197,26.2131439 275,28.5222025 L275,53.4777975 Z" id="Fill-110"></path>
                <path d="M289.968467,66 L281,66 L281,16.7207207 L289.968467,16.7207207 L289.968467,20.8648649 C290.146081,20.7747748 290.50131,20.4144144 291.034153,19.8738739 C292.012089,18.8828829 293.34314,17.5315315 294.941669,16.6306306 C295.740933,16.1801802 296.45139,16 297.250655,16 C299.648449,16 301.335785,17.4414414 302.401471,19.2432432 C303.468214,21.1351351 304,23.5675676 304,25.6396396 L304,66 L295.030476,66 L295.030476,26.990991 C295.030476,25.0990991 293.96479,24.8288288 292.899104,24.8288288 C291.923282,24.8288288 291.389382,25.3693694 290.767732,26 C290.50131,26.3603604 290.234889,26.7207207 289.968467,27.1711712 L289.968467,66 Z" id="Fill-111"></path>
            </g>
        </g>
    </g>
</svg>