<?xml version="1.0" encoding="UTF-8"?>
<svg width="63px" height="64px" viewBox="0 0 63 64" version="1.1" xmlns="http://www.w3.org/2000/svg" xmlns:xlink="http://www.w3.org/1999/xlink">
    <!-- Generator: Sketch 48.2 (47327) - http://www.bohemiancoding.com/sketch -->
    <title>Icon_Communication</title>
    <desc>Created with Sketch.</desc>
    <defs></defs>
    <g id="Page-1" stroke="none" stroke-width="1" fill="none" fill-rule="evenodd">
        <g id="Icon_Communication" fill-rule="nonzero">
            <g id="mobile-phone-vibrating" transform="translate(4.000000, 5.000000)">
                <path d="M10.2126668,15.6028642 L24.0194494,49.2254899 C24.6165661,50.6810371 26.2963574,51.3827182 27.7607972,50.7887148 L44.2160215,44.1147822 C45.6800915,43.5206563 46.3856852,41.8523263 45.7864729,40.3966566 L31.9798137,6.77488837 C31.382697,5.31836118 29.7025358,4.61668012 28.2384659,5.21203102 L11.7844742,11.8857186 C10.3188017,12.4798445 9.61555014,14.1471945 10.2126668,15.6028642 Z" id="Shape" stroke="#FA6900" stroke-width="2"></path>
                <path d="M25.3335767,43.9805082 L40.8409534,37.6051829 C40.9726445,37.5513989 41.0344131,37.4016361 40.980575,37.270889 L29.9973839,10.1588787 C29.9435458,10.0280192 29.7954353,9.96568366 29.6660898,10.0191302 L14.1589365,16.3953556 C14.0273571,16.4484646 13.9655885,16.5978898 14.0194266,16.7284118 L25.0029528,43.8398595 C25.0565675,43.9719568 25.2040079,44.0347424 25.3335767,43.9805082 Z M29.9279946,11.5485693 L39.9350449,36.3229368 C40.1172161,36.7732156 39.9030269,37.2879633 39.4573147,37.4721125 L26.2090524,42.9344615 C25.7633402,43.1184991 25.2540337,42.9015578 25.0718625,42.451279 L15.0649226,17.677023 C14.8827514,17.2267442 15.0971614,16.7122196 15.5428736,16.5280704 L28.7911359,11.065833 C29.2372897,10.8814607 29.7459338,11.0976213 29.9279946,11.5485693 Z" id="Shape" stroke="#FA6900" fill="#FA6900"></path>
                <path d="M19.4447182,11.9763058 L22.7985368,10.6156972 C22.964217,10.5483626 23.0438,10.3615408 22.9755455,10.1996004 C22.9082822,10.0349891 22.720653,9.95711151 22.5559642,10.0238838 L19.2000215,11.3844924 C19.0367487,11.450843 18.9573072,11.6375243 19.0231544,11.8005892 C19.0901345,11.9642165 19.2783301,12.0429375 19.4447182,11.9763058 Z" id="Shape" fill="#FA6900"></path>
                <path d="M37.823141,42.7874433 C37.54725,42.1416128 36.7763501,41.8303552 36.1023704,42.0935577 L32.821957,43.3767993 C32.1486531,43.6411675 31.8224772,44.3798701 32.0978275,45.0244053 L32.1794729,45.2126106 C32.4526605,45.8584411 33.2247769,46.1695693 33.8997029,45.9064963 L37.1779534,44.6231252 C37.8519332,44.3594046 38.1774332,43.6208315 37.9020829,42.9748715 L37.823141,42.7874433 Z" id="Shape" fill="#FA6900"></path>
                <path d="M15.7954888,6.20239669 C15.9293203,6.06760452 16.0017723,5.89046614 15.9999671,5.70294996 C15.9999671,5.61909254 15.9846823,5.53618939 15.9550757,5.45889264 C15.8514525,5.18179335 15.581623,4.99916786 15.2849549,5.00000285 C9.5859196,5.02910842 4.97053502,9.64770832 5.00014165,15.2962158 C5.00206728,15.6760196 5.33472062,16.0009522 5.7170794,15.9999979 C5.90627298,15.9982086 6.08499592,15.9246097 6.22003104,15.7898176 C6.35422368,15.6558604 6.42631462,15.477887 6.42631462,15.2895358 C6.40067961,10.4194829 10.3779571,6.43714977 15.2915743,6.41257704 C15.483536,6.41257704 15.6612961,6.33802385 15.7954888,6.20239669 Z" id="Shape" fill="#FA6900"></path>
                <path d="M16.2659126,1.46094046 C16.6711797,1.45908994 17,1.1304377 17,0.725173958 C16.9977589,0.63930986 16.9821956,0.554432705 16.9515672,0.473626692 C16.8443675,0.188893446 16.5658476,-0.00208015307 16.2560767,1.710221e-05 C7.24831662,0.0439360952 -0.0439997618,7.3446051 0.000199867978,16.2738545 C0.00219196397,16.6685086 0.347322594,17.0008619 0.743749696,16.9999983 C0.939348621,16.9990114 1.12436454,16.9220298 1.26219268,16.782624 C1.40101687,16.6444519 1.47746355,16.4600168 1.47559596,16.2660823 C1.43425997,8.14378273 8.06856214,1.50288556 16.2659126,1.46094046 Z" id="Shape" fill="#FA6900"></path>
                <path d="M44.4130465,47.6678113 C44.2361921,47.747194 44.1052249,47.8883319 44.0408367,48.0655528 C43.9777875,48.2433653 43.9882551,48.4320618 44.0687099,48.6002916 C44.1065638,48.6754153 44.1552505,48.7426126 44.2170826,48.8002271 C44.4316691,49.0061962 44.7572614,49.0573039 45.0305154,48.9329654 C50.2365831,46.5294803 52.462782,40.4587757 49.9905936,35.3974497 C49.8250589,35.0568495 49.3781151,34.9036445 49.0289098,35.0634746 C48.8558286,35.1446318 48.7248614,35.2851782 48.6587692,35.4623992 C48.5951114,35.638437 48.6037533,35.8289082 48.6866424,35.9982027 C50.8193628,40.3621205 48.902081,45.5959352 44.4130465,47.6678113 Z" id="Shape" fill="#FA6900"></path>
                <path d="M52.5338075,32.0669642 C52.3632902,32.1507723 52.2348626,32.2975903 52.1715482,32.4819435 C52.1070346,32.6650661 52.1155485,32.8632027 52.1990084,33.0375875 C55.5828535,40.3574436 52.5352465,49.1382187 45.4048173,52.6133628 C45.0510718,52.7851633 44.9018992,53.219587 45.0675,53.5863244 C45.1046733,53.6632408 45.1527587,53.7320348 45.2111566,53.7931987 C45.4242433,54.0051187 45.7458519,54.0607447 46.0149383,53.929433 C53.8528584,50.1136416 57.2013289,40.46045 53.4802865,32.4119188 C53.3186428,32.0558883 52.8790391,31.9002095 52.5338075,32.0669642 Z" id="Shape" fill="#FA6900"></path>
            </g>
        </g>
    </g>
</svg>