<?xml version="1.0" encoding="UTF-8"?>
<svg width="64px" height="64px" viewBox="0 0 64 64" version="1.1" xmlns="http://www.w3.org/2000/svg" xmlns:xlink="http://www.w3.org/1999/xlink">
    <!-- Generator: Sketch 48.2 (47327) - http://www.bohemiancoding.com/sketch -->
    <title>Icon_Quality</title>
    <desc>Created with Sketch.</desc>
    <defs></defs>
    <g id="Page-1" stroke="none" stroke-width="1" fill="none" fill-rule="evenodd" stroke-linecap="round" stroke-linejoin="round">
        <g id="Icon_Quality" stroke="#666666" stroke-width="2">
            <g id="level">
                <path d="M57,12 C57,9.238 54.761,7 52,7 L12,7 C9.238,7 7,9.238 7,12 L7,52 C7,54.762 9.238,57 12,57 L52,57 C54.761,57 57,54.762 57,52 L57,12 L57,12 Z" id="Path"></path>
                <path d="M53,32 C53,43.599 43.598,53 32,53 C20.402,53 11,43.599 11,32 C11,20.4 20.402,11 32,11 C43.598,11 53,20.4 53,32 L53,32 Z" id="Path"></path>
                <path d="M49,32 C49,41.389 41.389,49 32,49 C22.611,49 15,41.389 15,32 C15,22.611 22.611,15 32,15 C41.389,15 49,22.611 49,32 L49,32 Z" id="Path"></path>
                <path d="M15.856,27 L48.145,27 L15.856,27 Z" id="Path"></path>
                <path d="M15.856,37 L48.145,37 L15.856,37 Z" id="Path"></path>
                <path d="M37,29 C37,30.104 34.76,31 32,31 C29.239,31 27,30.104 27,29 C27,27.895 29.239,27 32,27 C34.76,27 37,27.895 37,29 L37,29 Z" id="Path"></path>
                <path d="M23,27 L23,37 L23,27 Z" id="Path"></path>
                <path d="M41,27 L41,37 L41,27 Z" id="Path"></path>
            </g>
        </g>
    </g>
</svg>