<svg id="Layer_1" data-name="Layer 1" xmlns="http://www.w3.org/2000/svg" xmlns:xlink="http://www.w3.org/1999/xlink" viewBox="0 0 200 200"><defs><style>.cls-1{fill:#92bcee;}.cls-2,.cls-5{fill:none;}.cls-2{stroke:#979797;stroke-miterlimit:10;stroke-dasharray:6 6;}.cls-3{opacity:0.9;}.cls-4{clip-path:url(#clip-path);}.cls-5{stroke:#fff;stroke-linecap:round;stroke-linejoin:round;stroke-width:3px;}</style><clipPath id="clip-path"><circle class="cls-1" cx="100.5" cy="100.5" r="95"/></clipPath></defs><title>Davco_Process_icons</title><line class="cls-2" x1="181.91" y1="2.79" x2="181.91" y2="199.5"/><line class="cls-2" x1="161.91" y1="2.79" x2="161.91" y2="199.5"/><line class="cls-2" x1="141.91" y1="2.79" x2="141.91" y2="199.5"/><line class="cls-2" x1="121.91" y1="2.79" x2="121.91" y2="199.5"/><line class="cls-2" x1="101.91" y1="2.79" x2="101.91" y2="199.5"/><line class="cls-2" x1="81.91" y1="2.79" x2="81.91" y2="199.5"/><line class="cls-2" x1="61.91" y1="2.79" x2="61.91" y2="199.5"/><line class="cls-2" x1="41.91" y1="2.79" x2="41.91" y2="199.5"/><line class="cls-2" x1="21.91" y1="2.79" x2="21.91" y2="199.5"/><line class="cls-2" x1="205.65" y1="181" x2="3.35" y2="181"/><line class="cls-2" x1="205.65" y1="161" x2="3.35" y2="161"/><line class="cls-2" x1="205.65" y1="141" x2="3.35" y2="141"/><line class="cls-2" x1="205.65" y1="121" x2="3.35" y2="121"/><line class="cls-2" x1="205.65" y1="101" x2="3.35" y2="101"/><line class="cls-2" x1="205.65" y1="81" x2="3.35" y2="81"/><line class="cls-2" x1="205.65" y1="61" x2="3.35" y2="61"/><line class="cls-2" x1="205.65" y1="41" x2="3.35" y2="41"/><line class="cls-2" x1="205.65" y1="21" x2="3.35" y2="21"/><g class="cls-3"><circle class="cls-1" cx="100.5" cy="100.5" r="95"/><g class="cls-4"><rect class="cls-1" x="-0.44" y="-0.44" width="201.87" height="201.88"/></g></g><path class="cls-5" d="M33,107H72v-3.55a1.77,1.77,0,0,0-1.77-1.77H34.77A1.77,1.77,0,0,0,33,103.45Z"/><polygon class="cls-5" points="40.09 101.68 48.95 59.14 56.05 59.14 64.91 101.68 40.09 101.68"/><path class="cls-5" d="M46.74,69.77h0Z"/><path class="cls-5" d="M44.52,80.41h0Z"/><path class="cls-5" d="M42.31,91h0Z"/><rect class="cls-5" x="74.28" y="81.92" width="91.72" height="16.98" rx="3.4" ry="3.4"/><circle class="cls-5" cx="91.27" cy="71.73" r="6.79"/><circle class="cls-5" cx="149.02" cy="71.73" r="6.79"/><path class="cls-5" d="M94.67,98.91l17-17Z"/><path class="cls-5" d="M111.65,98.91l17-17Z"/><path class="cls-5" d="M128.63,98.91l17-17Z"/><path class="cls-5" d="M145.62,98.91l17-17Z"/><polygon class="cls-5" points="152.41 98.91 162.6 149.86 152.41 149.86 142.22 98.91 152.41 98.91"/><polygon class="cls-5" points="87.87 98.91 77.68 149.86 87.87 149.86 98.06 98.91 87.87 98.91"/><path class="cls-5" d="M94,119.29h0Z"/><path class="cls-5" d="M147.66,126.08h0Z"/><path class="cls-5" d="M77.68,98.91l17-17Z"/></svg>