<?xml version="1.0" encoding="UTF-8"?>
<svg width="63px" height="64px" viewBox="0 0 63 64" version="1.1" xmlns="http://www.w3.org/2000/svg" xmlns:xlink="http://www.w3.org/1999/xlink">
    <!-- Generator: Sketch 48.2 (47327) - http://www.bohemiancoding.com/sketch -->
    <title>Licensed contractor</title>
    <desc>Created with Sketch.</desc>
    <defs>
        <polygon id="path-1" points="0.0520446097 0.141524194 49.830855 0.141524194 49.830855 22.988871 42 22.988871 0.0520446097 22.988871"></polygon>
        <polygon id="path-3" points="0.0111971831 0.14245 52.8921338 0.14245 52.8921338 10.8667167 0.0111971831 10.8667167"></polygon>
    </defs>
    <g id="Page-1" stroke="none" stroke-width="1" fill="none" fill-rule="evenodd">
        <g id="Licensed-contractor">
            <g id="waratah-nsw-government-black-white-eps-logo" transform="translate(5.000000, 3.000000)">
                <g id="Group-5" transform="translate(2.000000, 34.000000)">
                    <mask id="mask-2" fill="white">
                        <use xlink:href="#path-1"></use>
                    </mask>
                    <g id="Clip-2"></g>
                    <path d="M46.2104089,0.143008065 L43.8827138,10.1263065 L41.439777,0.143008065 L38.0789963,0.143008065 L35.5949814,10.0127903 L33.3379182,0.143008065 L29.6650558,0.143008065 L33.7291822,15.7327419 L37.3436803,15.7327419 L39.7284387,5.87019355 L42.1527881,15.7327419 L45.7027881,15.7327419 L45.7384758,15.599379 L49.830855,0.143008065 L46.2104089,0.143008065 Z M12.5291822,10.1042339 L4.02750929,0.141524194 L0.425836431,0.141524194 L0.425836431,15.7349677 L3.933829,15.7349677 L3.933829,5.79451613 L12.4111524,15.7349677 L16.0358736,15.7349677 L16.0358736,0.141524194 L12.5291822,0.141524194 L12.5291822,10.1042339 Z" id="Fill-1" fill="#666666" mask="url(#mask-2)"></path>
                    <path d="M0.0520446097,20.5172984 L0.0520446097,20.5043145 C0.0520446097,19.1523226 1.08810409,18.008629 2.54572491,18.008629 C3.3894052,18.008629 3.90687732,18.2425242 4.40539033,18.6635726 L3.86654275,19.3044194 C3.49237918,18.9866855 3.12639405,18.7874758 2.51189591,18.7874758 C1.62081784,18.7874758 0.943494424,19.5655806 0.943494424,20.4898468 L0.943494424,20.5043145 C0.943494424,21.4964677 1.59925651,22.2276452 2.58773234,22.2276452 C3.04386617,22.2276452 3.45855019,22.0831532 3.75557621,21.8613145 L3.75557621,20.9581935 L2.51802974,20.9581935 L2.51802974,20.2203387 L4.57825279,20.2203387 L4.57825279,22.24675 C4.10092937,22.6540726 3.4169145,23 2.56022305,23 C1.04758364,23 0.0520446097,21.9232661 0.0520446097,20.5172984" id="Fill-3" fill="#666666" mask="url(#mask-2)"></path>
                    <path d="M9.25780669,20.5172984 L9.25780669,20.5043145 C9.25780669,19.5655806 8.57304833,18.7874758 7.61245353,18.7874758 C6.65204461,18.7874758 5.9830855,19.5518548 5.9830855,20.4898468 L5.9830855,20.5043145 C5.9830855,21.4424919 6.66672862,22.2204113 7.62657993,22.2204113 C8.58698885,22.2204113 9.25780669,21.4549194 9.25780669,20.5172984 M5.09126394,20.5172984 L5.09126394,20.5043145 C5.09126394,19.1454597 6.14200743,18.008629 7.62657993,18.008629 C9.11301115,18.008629 10.148513,19.1313629 10.148513,20.4898468 L10.148513,20.5043145 C10.148513,21.8613145 9.09869888,23 7.61245353,23 C6.12732342,23 5.09126394,21.8761532 5.09126394,20.5172984" id="Fill-4" fill="#666666" mask="url(#mask-2)"></path>
                </g>
                <polyline id="Fill-6" fill="#666666" points="12 52 12.9851055 52 14.5143292 55.8155736 16.0357547 52 17 52 14.8907864 57 14.1080438 57 12 52"></polyline>
                <polyline id="Fill-7" fill="#666666" points="17 52 20.9611989 52 20.9611989 52.7867025 17.9390269 52.7867025 17.9390269 54.0868563 20.6185588 54.0868563 20.6185588 54.872598 17.9390269 54.872598 17.9390269 56.2152191 21 56.2152191 21 57 17 57 17 52"></polyline>
                <path d="M24.0402174,54.4794389 C24.6324275,54.4794389 25.0103261,54.1498847 25.0103261,53.6431591 L25.0103261,53.6289393 C25.0103261,53.0933897 24.646558,52.800538 24.032971,52.800538 L22.8278986,52.800538 L22.8278986,54.4794389 L24.0402174,54.4794389 Z M22,52 L24.1003623,52 C24.6936594,52 25.1581522,52.1869716 25.4606884,52.5003843 C25.7105072,52.7717141 25.851087,53.1427748 25.851087,53.5782091 L25.851087,53.5939662 C25.851087,54.4152575 25.3869565,54.9075711 24.7269928,55.1079939 L26,57 L25.0231884,57 L23.8648551,55.2576864 L22.8278986,55.2576864 L22.8278986,57 L22,57 L22,52 Z" id="Fill-8" fill="#666666"></path>
                <polygon id="Fill-9" fill="#666666" points="26.7454786 52 29.2059991 55.4563797 29.2059991 52 30 52 30 57 29.3235112 57 26.79206 53.442352 26.79206 57 26 57 26 52"></polygon>
                <polyline id="Fill-10" fill="#666666" points="31 52 31.9520644 52 33.5 54.3652959 35.0477401 52 36 52 36 57 35.1061933 57 35.1061933 53.414681 33.5 55.7719062 33.4708711 55.7719062 31.8807085 53.4285165 31.8807085 57 31 57 31 52"></polyline>
                <polyline id="Fill-11" fill="#666666" points="37 52 40.9603757 52 40.9603757 52.7867025 37.9386645 52.7867025 37.9386645 54.0868563 40.617718 54.0868563 40.617718 54.872598 37.9386645 54.872598 37.9386645 56.2152191 41 56.2152191 41 57 37 57 37 52"></polyline>
                <polyline id="Fill-12" fill="#666666" points="42 52 42.7477509 52 45.2062092 55.4563797 45.2062092 52 46 52 46 57 45.3251014 57 42.7937908 53.442352 42.7937908 57 42 57 42 52"></polyline>
                <polyline id="Fill-13" fill="#666666" points="47.563018 52.8151422 46 52.8151422 46 52 50 52 50 52.8151422 48.4373609 52.8151422 48.4373609 57 47.563018 57 47.563018 52.8151422"></polyline>
                <path d="M19,47.5111678 L21.1349656,45.0891829 C22.6135365,46.2443478 24.1623049,46.9778466 26.0391745,46.9778466 C27.5177454,46.9778466 28.4103114,46.4221215 28.4103114,45.5110312 L28.4103114,45.4662234 C28.4103114,44.5997587 27.8468082,44.1553243 25.1008359,43.4886728 C21.7921296,42.6888732 19.6573563,41.8222263 19.6573563,38.7332256 L19.6573563,38.6887821 C19.6573563,35.8666242 22.0508026,34 25.40682,34 C27.7991124,34 29.8413788,34.7114592 31.5080405,35.9777327 L29.6311709,38.5558161 C28.1747171,37.599918 26.7436497,37.0221534 25.3583549,37.0221534 C23.9745987,37.0221534 23.2478142,37.6219576 23.2478142,38.3778602 L23.2478142,38.4223037 C23.2478142,39.4445026 23.9503662,39.7778284 26.7903839,40.4665194 C30.1227458,41.2883586 32,42.4223948 32,45.133262 L32,45.1773411 C32,48.2659776 29.5130853,50 25.9693616,50 C23.481293,50 20.9712997,49.1774322 19,47.5111678" id="Fill-14" fill="#666666"></path>
                <path d="M10.9436523,4 C10.6144151,4.01084875 10.419401,4.20005823 10.3483854,4.57866107 C10.3483854,4.57866107 10.2693759,5.14114096 10.1803276,6.09877262 C10.0979718,6.97421124 10,8.36395397 10,10.0157215 C10,13.7368413 10.4909743,19.0233064 12.8322582,23.0763243 C14.6290272,26.1676652 17.1681136,27.9091647 20,28 C18.8962838,27.165566 17.5813798,25.780604 16.8831217,23.6259328 C16.2244613,21.582691 15.8902047,19.1663628 15.8902047,16.4446147 C15.8902047,12.6870872 16.5259988,9.46519361 16.7213846,8.56732198 C16.7265899,8.54341797 16.7297503,8.52834005 16.7306799,8.52245598 C16.8451972,7.99822252 17.1510104,7.58229264 17.5592571,7.3702824 C14.6710416,5.53610886 12.1866111,4.45858936 11.7062334,4.25669236 C11.4190106,4.12540415 11.2634084,4.07005716 11.2617352,4.06950552 L11.2578312,4.06821838 L11.2541131,4.06656349 C11.1483334,4.02298463 11.0438549,4.00055163 10.9436523,4" id="Fill-15" fill="#666666"></path>
                <path d="M34.9283899,9 C34.8571764,9 34.7804022,9.03330512 34.6928652,9.10118934 C34.6905333,9.1028273 34.6055077,9.16834557 34.4487304,9.30629794 C34.28998,9.43515056 34.0634243,9.63279736 33.7505873,9.91434395 C33.3320961,10.291984 32.4814809,11.090761 31.489515,12.1976559 C29.9177962,13.9732012 27.8357442,16.7702856 26.8457515,20.0099824 C26.2751469,21.8992747 25.9904724,23.5361397 26.0005176,24.8741685 C25.9897549,25.8753242 26.1468909,26.7212379 26.4660061,27.3911623 C26.7686185,28.0468911 27.2305194,28.5118888 27.8793333,28.8147289 C28.1514512,28.9375756 28.4980115,29 28.9082512,29 L28.9278035,29 C30.8340642,29 34.0139157,27.3866124 35.1111771,23.7987588 C35.7007958,21.8656056 36,19.5833857 36,17.0161612 C36,13.828879 35.5440186,11.051632 35.3474192,10.0057055 C35.2717213,9.62060368 35.2277734,9.41039921 35.2277734,9.40985322 C35.1809555,9.22658404 35.0903691,9 34.9283899,9" id="Fill-16" fill="#666666"></path>
                <path d="M18.1040492,9 C17.9369809,9 17.8364172,9.22458209 17.7815643,9.41567707 C17.7740355,9.45171212 17.7320892,9.65700272 17.6625371,10.0071615 C17.6101938,10.2745125 17.5049694,10.8436115 17.3914992,11.6502143 C17.2127791,12.9096212 17,14.8627938 17,17.0161612 C17,19.6239706 17.3025873,21.9018227 17.8986197,23.7862011 C19.0170096,27.3829725 22.2750214,29 24.2310833,29 L24.2502639,29 C24.662557,29 25.0244787,28.9333898 25.3267074,28.8019892 C25.4866055,28.7357429 25.640588,28.6509332 25.8133926,28.5330003 C25.6692692,28.3342615 25.5410998,28.1151393 25.4245822,27.8679898 C25.0440178,27.0642989 24.8536459,26.0857106 24.8416356,24.8768984 C24.8525704,23.3841737 25.1596391,21.6388396 25.7549545,19.686213 C25.8064015,19.5074937 25.868604,19.3251344 25.9288346,19.1487811 C25.9526759,19.0785309 25.9768757,19.0084628 26,18.9382126 C23.9227598,13.6967505 19.1493019,9.7450884 18.6102735,9.31030184 C18.4392615,9.16925555 18.3521421,9.1028273 18.3512458,9.10228131 C18.2564184,9.03585306 18.1712709,9 18.1040492,9" id="Fill-17" fill="#666666"></path>
                <path d="M25.9939755,0 C25.8769534,0 25.7553673,0.0920855194 25.6334161,0.273723754 C25.6310428,0.277161131 25.5320943,0.419179074 25.3703447,0.686389903 C25.1271725,1.08783935 24.894954,1.47970032 24.6603622,1.88476806 C24.1362275,2.80580417 23.3395283,4.29346473 22.5214693,6.14548725 C21.9593618,7.40809007 21.4476413,8.72225356 21,10.053423 C22.5744122,11.6129067 24.6871988,14.0465695 26.0931065,17 C27.1782532,14.6859217 28.8275157,12.3812509 31,10.1435185 C29.5177815,5.68524056 27.4365781,2.04885758 26.6066525,0.686570817 C26.4302979,0.413208892 26.3404776,0.269019975 26.3404776,0.269019975 C26.1730685,0.0197196888 26.0330437,0 25.9939755,0" id="Fill-18" fill="#666666"></path>
                <path d="M42.035348,4 C41.9705496,4.00055171 41.8653694,4.01250546 41.7325795,4.06657318 L41.7290109,4.06822832 L41.7256301,4.06951564 C41.7235641,4.07006735 41.5665452,4.1254224 41.2806807,4.25452288 C41.0012021,4.36633641 40.6313812,4.53607963 40.164081,4.75087929 L40.0004883,4.82554424 C38.5598963,5.50837912 37.1570565,6.27066044 35.83066,7.09013586 C35.6796514,7.17454771 35.5288306,7.26815476 35.3795124,7.36360084 C35.7895271,7.56663065 36.1050674,7.98942553 36.221329,8.51630997 C36.2241464,8.52955104 36.2275271,8.54463116 36.2325983,8.56835475 C36.4262424,9.466541 37.0597648,12.6885359 37.0597648,16.4464265 C37.0597648,19.1533068 36.7303257,21.5694352 36.0808384,23.6275028 C35.3840201,25.7918669 34.0888021,27.1718811 33,28 C35.8195785,27.8708995 38.3452162,26.133928 40.1383494,23.078366 C42.503963,19.0254937 43,13.7382589 43,10.0165973 C43,8.69947817 42.9387701,7.37757753 42.8180008,6.08804395 C42.7278464,5.14001977 42.6480222,4.57745799 42.6474588,4.57175697 C42.5762744,4.20008735 42.3756809,4.01066642 42.035348,4" id="Fill-19" fill="#666666"></path>
                <path d="M34.3061149,1 C34.2700905,1 34.2329577,1.00328757 34.1958249,1.00928254 L34.1912064,1.00966931 L34.1875115,1.01024947 C34.1023462,1.01933862 34.0140403,1.05685554 33.9240717,1.123187 L33.9198226,1.12570102 L33.9157584,1.12840843 C33.9094772,1.13246954 33.3011269,1.52291626 32.3611676,2.22896925 C31.83983,2.62018952 31.0131166,3.26551924 30,4.14252562 C30.7350822,5.74221621 31.3942361,7.37420228 31.9604655,9 C33.1697765,8.00290079 34.4945502,7.05298782 36,6.1023013 C35.5736191,3.84355057 35.086089,2.1624444 34.8937742,1.537807 C34.8869389,1.51614775 34.8825051,1.50048347 34.8786255,1.48888029 C34.7613154,1.16476504 34.5686311,1 34.3061149,1" id="Fill-20" fill="#666666"></path>
                <path d="M18.6939655,1 C18.431835,1 18.2389778,1.16478097 18.1216749,1.48892757 C18.1177956,1.50053186 18.1133621,1.51619766 18.1065271,1.53785901 C17.9142241,2.16255681 17.42617,3.84382555 17,6.1027947 C18.5057266,7.05357316 19.8304187,8.00319118 21.0387315,9 C21.5768473,7.4229765 22.2359606,5.7906392 23,4.1424427 C22.1999384,3.44792573 21.4059729,2.80485446 20.6389778,2.2290881 C19.6990764,1.52296683 19.0903941,1.13248235 19.0844828,1.12842085 L19.080234,1.12571318 L19.07617,1.12319892 C18.9865764,1.05686104 18.8980911,1.01934049 18.8127463,1.01025046 L18.8086823,1.00967024 L18.8049877,1.00928343 C18.767303,1.00309448 18.7294335,1 18.6939655,1" id="Fill-21" fill="#666666"></path>
                <path d="M4.43342583,11 C3.56036936,11 3.05328012,11.0250567 3.04833194,11.025248 C2.70453256,11.044949 2.38685956,11.2270405 2.17745268,11.5254256 C2.05453995,11.7036916 1.99159913,11.9242288 2.0009017,12.1453398 C2.06206118,12.7264257 2.46325942,14.8308058 5.06303195,18 C6.39567515,17.3607673 7.71901577,16.7989999 9,16.3278957 C8.73339219,14.7477935 8.57524843,13.0234719 8.52952727,11.1975845 C6.93918298,11.0535563 5.68571062,11.0116676 4.9056799,11.0022953 C4.73862942,11.0005738 4.58068359,11 4.43342583,11" id="Fill-22" fill="#666666"></path>
                <path d="M48.5616182,11 C48.4152223,11 48.2589347,11.0005738 48.0927556,11.0022953 C47.3132961,11.0116676 46.0606217,11.053365 44.4712366,11.1975845 C44.4269222,12.9572916 44.2688542,14.681422 44,16.3278957 C45.2807666,16.7986174 46.6034737,17.360576 47.9360723,18 C50.5415243,14.8223898 50.938376,12.7153319 50.9977257,12.1407492 C51.0173111,11.9443124 50.9063272,11.6459273 50.8212593,11.5265732 C50.6107657,11.2270405 50.2938382,11.044949 49.9488186,11.025248 C49.944862,11.0250567 49.4291131,11 48.5616182,11" id="Fill-23" fill="#666666"></path>
                <g id="Group-27" transform="translate(0.000000, 18.000000)">
                    <mask id="mask-4" fill="white">
                        <use xlink:href="#path-3"></use>
                    </mask>
                    <g id="Clip-25"></g>
                    <path d="M43.8145775,0.14245 C43.3118239,2.62661667 42.5267148,4.79801667 41.4792183,6.59816667 C40.3876796,8.48283333 39.0214366,9.9121 37.4131479,10.8566333 C49.0800528,10.2342167 52.3727711,6.5461 52.7159648,6.12003333 L52.717831,6.11765 C52.8337218,5.9444 52.8921338,5.75355 52.8921338,5.5495 C52.8921338,5.21986667 52.7340669,4.89976667 52.4789577,4.71423333 C52.4785845,4.71423333 52.3417923,4.62476667 52.0969472,4.46086667 L52.0941479,4.45848333 L52.0909754,4.45591667 C51.9062218,4.31841667 51.6387958,4.14626667 51.3008275,3.92865 C51.2114366,3.87145 51.1171937,3.81058333 51.0197782,3.74751667 C50.1844683,3.22098333 48.840993,2.42201667 47.1937007,1.61278333 C46.0562535,1.0483 44.9206725,0.554033333 43.8145775,0.14245" id="Fill-24" fill="#666666" mask="url(#mask-4)"></path>
                    <path d="M9.07774296,0.14245 C5.14249296,1.60728333 1.97536972,3.64356667 0.784922535,4.45976667 C0.548288732,4.62605 0.412616197,4.71496667 0.407017606,4.71881667 C0.158253521,4.89976667 0,5.21986667 0,5.5495 C0,5.75263333 0.0580387324,5.9422 0.172623239,6.11453333 C0.181954225,6.1259 0.188672535,6.13653333 0.193338028,6.14496667 C0.217785211,6.17081667 0.241299296,6.19868333 0.269852113,6.23296667 C0.283288732,6.24928333 0.298591549,6.2678 0.315760563,6.28796667 C0.396007042,6.3745 0.582440141,6.56461667 0.875059859,6.80441667 C1.36680282,7.21691667 2.24914085,7.83933333 3.66950352,8.46798333 C6.60745775,9.77643333 10.6800599,10.6021667 15.4793592,10.8667167 C13.8895458,9.92566667 12.4928838,8.46285 11.4123556,6.5978 C10.3652324,4.79728333 9.58012324,2.62625 9.07774296,0.14245" id="Fill-26" fill="#666666" mask="url(#mask-4)"></path>
                </g>
                <path d="M42.9548846,29 C42.3418544,29 41.4348453,29.0978391 40.0631353,29.2462485 C39.8594937,29.2681573 39.647048,29.2909664 39.4231188,29.3154262 C38.8223377,29.3819028 38.0904528,29.4126651 37.11971,29.4126651 C36.5256277,29.4126651 35.9091525,29.4018607 35.2563126,29.3903061 L35.1985121,29.3892557 C34.5780176,29.3783013 33.8746502,29.3659964 33.1693688,29.3659964 C31.7033023,29.3659964 29.8075596,29.4126651 28.1368944,29.7779112 C28.0528731,29.7972689 27.9922017,29.8680972 28.0008144,29.9137155 C28.0090442,29.9560324 28.1122048,29.9705882 28.199097,29.9705882 C28.223978,29.9705882 28.2496246,29.9698379 28.2769937,29.9680372 C28.9394032,29.9219688 29.5805681,29.8988595 30.18422,29.8988595 C32.3647548,29.8988595 33.8532142,30.1937275 35.29306,30.4786915 C36.6475447,30.7469988 37.9270036,31 39.7044657,31 C41.5998257,31 43.1011084,30.6838235 43.7193062,30.1535114 C43.9265843,29.9755402 44.0199838,29.7810624 43.9964426,29.5753301 C43.9466805,29.1781212 43.7843797,29 42.9548846,29" id="Fill-28" fill="#666666"></path>
                <path d="M11.040827,29 C10.2155965,29 10.0540718,29.1781212 10.004313,29.5765306 C9.97847673,29.7804622 10.0688081,29.9738896 10.2728191,30.15006 C10.8783454,30.6743697 12.420294,31 14.2960092,31 C16.0731638,31 17.3529218,30.7469988 18.7071265,30.4786915 C20.1468782,30.1932773 21.6352403,29.8987095 23.8158239,29.8988595 C24.419245,29.8988595 25.0611335,29.9219688 25.7219686,29.9680372 C25.7504842,29.9698379 25.7763205,29.9705882 25.8006258,29.9705882 C25.8875123,29.9705882 25.9912402,29.9560324 25.9992782,29.9137155 C26.0073161,29.8680972 25.9474142,29.7972689 25.8599536,29.777461 C24.1928425,29.4126651 22.2966496,29.3659964 20.8310616,29.3659964 L20.8306789,29.3659964 C20.1262091,29.3659964 19.4225049,29.3783013 18.8016683,29.3892557 L18.7427232,29.3903061 C18.0905002,29.4018607 17.4746394,29.4126651 16.8807873,29.4126651 C15.9097253,29.4126651 15.1780796,29.3819028 14.5763809,29.3154262 C14.348256,29.2908163 14.1295086,29.2669568 13.9218614,29.2447479 C12.55426,29.0972389 11.6511378,29 11.040827,29" id="Fill-29" fill="#666666"></path>
            </g>
        </g>
    </g>
</svg>