<svg id="Layer_1" data-name="Layer 1" xmlns="http://www.w3.org/2000/svg" xmlns:xlink="http://www.w3.org/1999/xlink" viewBox="0 0 200 200"><defs><style>.cls-1{fill:#92bcee;}.cls-2,.cls-5{fill:none;}.cls-2{stroke:#979797;stroke-miterlimit:10;stroke-dasharray:6 6;}.cls-3{opacity:0.9;}.cls-4{clip-path:url(#clip-path);}.cls-5{stroke:#fff;stroke-width:3px;fill-rule:evenodd;}</style><clipPath id="clip-path"><circle class="cls-1" cx="100.5" cy="100.5" r="95"/></clipPath></defs><title>Davco_Process_icons</title><line class="cls-2" x1="180.91" y1="2.79" x2="180.91" y2="199.5"/><line class="cls-2" x1="160.91" y1="2.79" x2="160.91" y2="199.5"/><line class="cls-2" x1="140.91" y1="2.79" x2="140.91" y2="199.5"/><line class="cls-2" x1="120.91" y1="2.79" x2="120.91" y2="199.5"/><line class="cls-2" x1="100.91" y1="2.79" x2="100.91" y2="199.5"/><line class="cls-2" x1="80.91" y1="2.79" x2="80.91" y2="199.5"/><line class="cls-2" x1="60.91" y1="2.79" x2="60.91" y2="199.5"/><line class="cls-2" x1="40.91" y1="2.79" x2="40.91" y2="199.5"/><line class="cls-2" x1="20.91" y1="2.79" x2="20.91" y2="199.5"/><line class="cls-2" x1="204.65" y1="181" x2="2.35" y2="181"/><line class="cls-2" x1="204.65" y1="161" x2="2.35" y2="161"/><line class="cls-2" x1="204.65" y1="141" x2="2.35" y2="141"/><line class="cls-2" x1="204.65" y1="121" x2="2.35" y2="121"/><line class="cls-2" x1="204.65" y1="101" x2="2.35" y2="101"/><line class="cls-2" x1="204.65" y1="81" x2="2.35" y2="81"/><line class="cls-2" x1="204.65" y1="61" x2="2.35" y2="61"/><line class="cls-2" x1="204.65" y1="41" x2="2.35" y2="41"/><line class="cls-2" x1="204.65" y1="21" x2="2.35" y2="21"/><g class="cls-3"><circle class="cls-1" cx="100.5" cy="100.5" r="95"/><g class="cls-4"><rect class="cls-1" x="-0.44" y="-0.44" width="201.87" height="201.88"/></g></g><path class="cls-5" d="M121,68.15,108.88,54.6,120.1,43.75c1.46-1.2,1.88-.72,1.91.33s-1.07,24.17-1,24.07M132.66,66c-.12,2,.28,3,3.43,2.93l15.1.73c1.78.29,2.41-.48,2.09-2.18l-2.84-11.28c-.84-2.28-2.39-3.88-5.31-5.1L134,47.24c-.81-.24-1.18.85-1.28,1.88S132.54,66.08,132.66,66Zm-1.09,13.33c-.68-1.28-.16-2,1.27-2.21l20.29,1.26c3,.24,4.21,1.2,3.15,2.52l-9.88,10c-1.23,1.14-2.4,1.57-3.41.27Zm-7.25,26.29c4.55.23,8.12.85,12.67,1.09,2.62,0,8.13-4.22,9.8-6.12,5.88-6.45,4.51-5.06,10.39-11.51a15.08,15.08,0,0,0,4.78-13,70.34,70.34,0,0,1-2.52-14.48C158.29,54.43,156,48,148.55,45L124.5,39.08c-5.84-1-10.69,0-14.25,3.68-4.92,5-6.78,6.94-11.7,11.95-5.33,5.92-4.61,8.59-3.2,12.25.76,3.39.74,6,0,8a4.15,4.15,0,0,1-2.13,2.68c-2.56,1.81-4.32,3.59-2.24,5.17.84.61,1.6,1.22,1.56,1.92s-.65,1-1.21,1.18c-1.22.49-1.38,1.31-.64,2.41,3.18,6.18,1.59,10.85-1.09,16.05-1.23,2.38-.69,2.08-3.26,1.5-1.41-.46-1.92.23-1.67,1.91,1.26,9.06-1.44,8.1-8.26,8.92-2.13-.12-3.26.62-3,2.55.16,3.33-.55,4.81-2.39,3.93-2.11-.54-4.27-1.17-4.2,2.31,1.17,14.76-5.77,2.49-9.43,10.29-.55,1.83-4.29,9.45-6.67,6.38-1.81-1.94-2.54-1.19-4.1,0-.85.64-.67.41-.72,1.5q-.23,5-.46,10a3.31,3.31,0,0,0,.72,2.14,15.38,15.38,0,0,1,3.45,3.39l8.09-.07a2.89,2.89,0,0,0,2.43-1.22L94,123.64l16.69-16.14c1.43-1.3,3-2.48,4.2-1.86,1.73,1,2,1.25,3.69,2.27.56-.75,2.67-.7,3.29-1.41A2.39,2.39,0,0,1,124.32,105.6Z"/></svg>