<?xml version="1.0" encoding="UTF-8"?>
<svg width="63px" height="64px" viewBox="0 0 63 64" version="1.1" xmlns="http://www.w3.org/2000/svg" xmlns:xlink="http://www.w3.org/1999/xlink">
    <!-- Generator: Sketch 48.2 (47327) - http://www.bohemiancoding.com/sketch -->
    <title>Experience</title>
    <desc>Created with Sketch.</desc>
    <defs></defs>
    <g id="Page-1" stroke="none" stroke-width="1" fill="none" fill-rule="evenodd">
        <g id="screws" transform="translate(-1.000000, 0.000000)" stroke="#666666" stroke-linecap="round" stroke-linejoin="round" stroke-width="2">
            <path d="M7,7 L19,7 L7,7 Z" id="Path"></path>
            <polygon id="Path" points="11 7 11 51 13 57 15 51 15 7"></polygon>
            <polygon id="Path" points="37 7 25 7 29 11 29 51 31 57 33 51 33 11"></polygon>
            <path d="M29,11.002 L33,11.002 L29,11.002 Z" id="Path"></path>
            <path d="M35,39 L27,43 L35,39 Z" id="Path"></path>
            <path d="M35,43 L27,47 L35,43 Z" id="Path"></path>
            <path d="M35,47 L29,50 L35,47 Z" id="Path"></path>
            <path d="M35,35 L27,39 L35,35 Z" id="Path"></path>
            <path d="M35,31 L27,35 L35,31 Z" id="Path"></path>
            <path d="M33,28 L27,31 L33,28 Z" id="Path"></path>
            <polygon id="Path" points="43 13 47 13 47 51 49 57 51 51 51 13 55 13"></polygon>
            <path d="M53,39 L45,43 L53,39 Z" id="Path"></path>
            <path d="M53,43 L45,47 L53,43 Z" id="Path"></path>
            <path d="M53,47 L47,50 L53,47 Z" id="Path"></path>
            <path d="M53,35 L45,39 L53,35 Z" id="Path"></path>
            <path d="M53,31 L45,35 L53,31 Z" id="Path"></path>
            <path d="M51,28 L45,31 L51,28 Z" id="Path"></path>
            <path d="M47,13 L51,13 L47,13 Z" id="Path"></path>
            <path d="M43,13 C43,9.687 45.687,7 49,7 C52.314,7 55,9.687 55,13 L43,13 Z" id="Path"></path>
        </g>
        <g id="Experience"></g>
    </g>
</svg>