<svg id="Layer_1" data-name="Layer 1" xmlns="http://www.w3.org/2000/svg" xmlns:xlink="http://www.w3.org/1999/xlink" viewBox="0 0 200 200"><defs><style>.cls-1{fill:#92bcee;}.cls-2,.cls-5,.cls-6{fill:none;}.cls-2{stroke:#979797;stroke-dasharray:6 6;}.cls-2,.cls-6{stroke-miterlimit:10;}.cls-3{opacity:0.9;}.cls-4{clip-path:url(#clip-path);}.cls-5,.cls-6{stroke:#fff;stroke-linecap:round;stroke-width:3px;}.cls-5{stroke-linejoin:round;}</style><clipPath id="clip-path"><circle class="cls-1" cx="99.5" cy="100.5" r="95"/></clipPath></defs><title>Davco_Process_icons</title><line class="cls-2" x1="181.91" y1="2.79" x2="181.91" y2="199.5"/><line class="cls-2" x1="161.91" y1="2.79" x2="161.91" y2="199.5"/><line class="cls-2" x1="141.91" y1="2.79" x2="141.91" y2="199.5"/><line class="cls-2" x1="121.91" y1="2.79" x2="121.91" y2="199.5"/><line class="cls-2" x1="101.91" y1="2.79" x2="101.91" y2="199.5"/><line class="cls-2" x1="81.91" y1="2.79" x2="81.91" y2="199.5"/><line class="cls-2" x1="61.91" y1="2.79" x2="61.91" y2="199.5"/><line class="cls-2" x1="41.91" y1="2.79" x2="41.91" y2="199.5"/><line class="cls-2" x1="21.91" y1="2.79" x2="21.91" y2="199.5"/><line class="cls-2" x1="205.65" y1="181" x2="3.35" y2="181"/><line class="cls-2" x1="205.65" y1="161" x2="3.35" y2="161"/><line class="cls-2" x1="205.65" y1="141" x2="3.35" y2="141"/><line class="cls-2" x1="205.65" y1="121" x2="3.35" y2="121"/><line class="cls-2" x1="205.65" y1="101" x2="3.35" y2="101"/><line class="cls-2" x1="205.65" y1="81" x2="3.35" y2="81"/><line class="cls-2" x1="205.65" y1="61" x2="3.35" y2="61"/><line class="cls-2" x1="205.65" y1="41" x2="3.35" y2="41"/><line class="cls-2" x1="205.65" y1="21" x2="3.35" y2="21"/><g class="cls-3"><circle class="cls-1" cx="99.5" cy="100.5" r="95"/><g class="cls-4"><rect class="cls-1" x="-1.44" y="-0.44" width="201.87" height="201.88"/></g></g><path class="cls-5" d="M153,86.56v61a6.48,6.48,0,0,1-6.48,6.48h-94A6.48,6.48,0,0,1,46,147.52v-94A6.48,6.48,0,0,1,52.48,47h94A6.48,6.48,0,0,1,153,53.48V65.16"/><line class="cls-6" x1="91.14" y1="51.18" x2="91.14" y2="66.23"/><path class="cls-6" d="M117.05,107.19H99.56q-8.08,0-8.42,8.43v35"/><line class="cls-6" x1="137.95" y1="107.19" x2="150.49" y2="107.19"/><line class="cls-6" x1="89.47" y1="83.78" x2="48.51" y2="83.78"/></svg>