<?xml version="1.0" encoding="UTF-8"?>
<svg width="460px" height="260px" viewBox="0 0 460 260" version="1.1" xmlns="http://www.w3.org/2000/svg" xmlns:xlink="http://www.w3.org/1999/xlink">
    <!-- Generator: Sketch 48.2 (47327) - http://www.bohemiancoding.com/sketch -->
    <title>Image placeholder_460px</title>
    <desc>Created with Sketch.</desc>
    <defs></defs>
    <g id="Page-1" stroke="none" stroke-width="1" fill="none" fill-rule="evenodd">
        <g id="Image-placeholder_460px">
            <g id="Group-2" transform="translate(0.000000, -2.000000)">
                <rect id="Rectangle-4" fill="#403E3B" x="0" y="0" width="463" height="267"></rect>
                <g id="Group-2-Copy" transform="translate(398.000000, 20.000000)" fill="#FFFFFF">
                    <g id="Group">
                        <path d="M44.9220484,50.711365 C44.9220484,52.7930146 44.5185,54.7383285 43.7133387,56.5511606 C42.9076935,58.3644745 41.8165645,59.9537737 40.4452742,61.3200219 C39.0710806,62.6886788 37.4738226,63.7581679 35.6544677,64.5299343 C33.8322097,65.303146 31.8778548,65.6895109 29.7889839,65.6895109 L20.5654355,65.6895109 C23.4894677,64.4408102 25.8783387,62.4791168 27.729629,59.8044307 C29.5789839,57.1302263 30.5051129,54.0995255 30.5051129,50.711365 L30.5051129,50.0874964 L30.5051129,35.6440949 C33.7291452,35.5260657 36.6236613,34.560635 39.1910806,32.7473212 C41.7575323,30.9349708 43.6683387,28.601365 44.9220484,25.7489124 L44.9220484,50.711365 Z M14.5659194,65.6895109 C12.5360806,65.6302555 10.6402742,65.1981241 8.87995161,64.3964891 C7.11866129,63.5934088 5.58043548,62.5099489 4.26817742,61.1417737 C2.95446774,59.7755255 1.92479032,58.2001971 1.17962903,56.4172336 C0.432532258,54.6342701 0.0599516129,52.7323139 0.0599516129,50.711365 C0.0599516129,48.6913796 0.432532258,46.7884599 1.17962903,45.0054964 C1.92479032,43.2230146 2.93946774,41.6481679 4.22366129,40.2799927 C5.5068871,38.9137445 7.02962903,37.8283577 8.79043548,37.0267226 C10.5512419,36.2236423 12.4465645,35.7645328 14.4768871,35.6440949 L14.4768871,50.0874964 L14.4768871,50.711365 C14.4768871,53.3855693 15.0720484,55.8680365 16.2681774,58.1558759 C17.4609194,60.4441971 19.1022097,62.3610876 21.1930161,63.9051022 C19.1622097,65.0348102 16.9528548,65.6302555 14.5659194,65.6895109 Z" id="Fill-93"></path>
                        <path d="M30.8453226,18.1882993 L44.5819355,18.1882993 L44.5819355,0.168854015 C42.7345161,0.316270073 40.9848387,0.762372263 39.3774194,1.49463504 C37.6645161,2.27555474 36.165,3.34456204 34.9175806,4.67227007 C33.6677419,6.00383212 32.666129,7.55940876 31.9393548,9.29660584 C31.2135484,11.0275401 30.8453226,12.9034818 30.8453226,14.8724015 L30.8453226,18.1882993 Z M15.1930645,20.2029854 C13.1593548,20.2029854 11.2170968,20.5985036 9.41854839,21.3784599 C7.6166129,22.1603431 6.02467742,23.2312774 4.68822581,24.5618759 C3.35129032,25.8924745 2.29112903,27.4615401 1.53677419,29.2242701 C0.782419355,30.9865182 0.40016129,32.906781 0.40016129,34.9315839 L0.40016129,42.6319051 C1.67806452,40.2703577 3.49645161,38.2802409 5.82290323,36.7020219 C8.58483871,34.8284891 11.7377419,33.879438 15.1930645,33.879438 L29.7890323,33.879438 C31.766129,33.879438 33.6498387,33.5128248 35.388871,32.7906788 C37.1327419,32.0675693 38.6951613,31.0698613 40.0325806,29.8250146 C41.3670968,28.5835401 42.4412903,27.089146 43.2237097,25.3842263 C43.9601613,23.785292 44.4077419,22.0442409 44.5567742,20.2029854 L15.1930645,20.2029854 Z" id="Fill-94"></path>
                    </g>
                </g>
            </g>
        </g>
    </g>
</svg>