<?xml version="1.0" encoding="UTF-8"?>
<svg width="440px" height="248px" viewBox="0 0 440 248" version="1.1" xmlns="http://www.w3.org/2000/svg" xmlns:xlink="http://www.w3.org/1999/xlink">
    <!-- Generator: Sketch 48.2 (47327) - http://www.bohemiancoding.com/sketch -->
    <title>Image placeholder_440px</title>
    <desc>Created with Sketch.</desc>
    <defs></defs>
    <g id="Page-1" stroke="none" stroke-width="1" fill="none" fill-rule="evenodd">
        <g id="Image-placeholder_440px">
            <g id="Group-2" transform="translate(-1.000000, -2.000000)">
                <rect id="Rectangle-4" fill="#2D3237" x="0" y="0" width="444" height="256"></rect>
                <g id="Group-2-Copy" transform="translate(382.000000, 19.000000)" fill="#FFFFFF">
                    <g id="Group">
                        <path d="M42.9255129,48.4063029 C42.9255129,50.3933321 42.5399,52.2502226 41.7705237,53.9806533 C41.0006849,55.7115438 39.9580505,57.2286022 38.6477065,58.5327482 C37.3345882,59.8391934 35.8083194,60.8600693 34.0698247,61.5967555 C32.3285559,62.3348212 30.4610613,62.7036241 28.465029,62.7036241 L19.6514161,62.7036241 C22.4454914,61.5116825 24.7281903,59.6391569 26.4972011,57.0860474 C28.2643624,54.5333978 29.1493301,51.6404562 29.1493301,48.4063029 L29.1493301,47.810792 L29.1493301,34.0239088 C32.230072,33.9112445 34.995943,32.9896971 37.4492548,31.2588066 C39.9016419,29.5288358 41.7275237,27.3013029 42.9255129,24.5785073 L42.9255129,48.4063029 Z M13.9185452,62.7036241 C11.9789215,62.647062 10.1673731,62.234573 8.4852871,61.4693759 C6.80227634,60.7027993 5.33241613,59.6685876 4.07848065,58.3626022 C2.82315806,57.0584562 1.83924409,55.5547336 1.12720108,53.8528139 C0.413308602,52.1508942 0.0572870968,50.3353905 0.0572870968,48.4063029 C0.0572870968,46.478135 0.413308602,44.6617117 1.12720108,42.959792 C1.83924409,41.2583321 2.80882473,39.7550693 4.03594301,38.4490839 C5.26213656,37.144938 6.71720108,36.1088869 8.39974946,35.3436898 C10.0822978,34.5771131 11.8933839,34.1388723 13.8334699,34.0239088 L13.8334699,47.810792 L13.8334699,48.4063029 C13.8334699,50.9589526 14.4021796,53.3285803 15.5451473,55.512427 C16.6848785,57.6967336 18.2532226,59.5264927 20.2511043,61.0003248 C18.3105559,62.0786825 16.1993946,62.647062 13.9185452,62.7036241 Z" id="Fill-93"></path>
                        <path d="M29.4744194,17.3615584 L42.6005161,17.3615584 L42.6005161,0.161178832 C40.8352043,0.301894161 39.1632903,0.727718978 37.6273118,1.42669708 C35.9905376,2.17212044 34.5576667,3.1925365 33.3656882,4.45989416 C32.1713978,5.73093066 31.2143011,7.21579927 30.519828,8.87403285 C29.8262796,10.5262883 29.4744194,12.3169599 29.4744194,14.1963832 L29.4744194,17.3615584 Z M14.5178172,19.2846679 C12.5744946,19.2846679 10.7185591,19.662208 8.99994624,20.4067117 C7.27809677,21.1530547 5.75691398,22.1753102 4.47986022,23.445427 C3.20234409,24.7155438 2.18930108,26.2132883 1.46847312,27.8958942 C0.747645161,29.5780401 0.382376344,31.4110182 0.382376344,33.3437847 L0.382376344,40.6940912 C1.60348387,38.4398869 3.34105376,36.5402299 5.56410753,35.0337482 C8.20329032,33.2453759 11.2160645,32.3394635 14.5178172,32.3394635 L28.4650753,32.3394635 C30.3543011,32.3394635 32.1542903,31.9895146 33.8160323,31.3001934 C35.4823978,30.6099526 36.9753763,29.6575949 38.2533548,28.4693321 C39.5285591,27.2842883 40.5550108,25.8578212 41.3026559,24.2303978 C42.0063763,22.7041423 42.4340645,21.0422299 42.5764731,19.2846679 L14.5178172,19.2846679 Z" id="Fill-94"></path>
                    </g>
                </g>
            </g>
        </g>
    </g>
</svg>