<?xml version="1.0" encoding="UTF-8"?>
<svg width="300px" height="170px" viewBox="0 0 300 170" version="1.1" xmlns="http://www.w3.org/2000/svg" xmlns:xlink="http://www.w3.org/1999/xlink">
    <!-- Generator: Sketch 48.2 (47327) - http://www.bohemiancoding.com/sketch -->
    <title>Image placeholder</title>
    <desc>Created with Sketch.</desc>
    <defs></defs>
    <g id="Page-1" stroke="none" stroke-width="1" fill="none" fill-rule="evenodd">
        <g id="Image-placeholder">
            <rect id="Rectangle-4" fill="#403E3B" x="0" y="0" width="300" height="173"></rect>
            <g id="Group-2-Copy" transform="translate(258.000000, 13.000000)" fill="#FFFFFF">
                <g id="Group">
                    <path d="M28.9497645,33.0392226 C28.9497645,34.3954489 28.6897,35.6628504 28.1708183,36.843938 C27.6516247,38.0253394 26.9484527,39.060792 26.0647323,39.9509234 C25.1791409,40.8426241 24.1497968,41.5394124 22.9773237,42.0422299 C21.8029796,42.5459891 20.5435065,42.7977117 19.1973452,42.7977117 L13.2532806,42.7977117 C15.137657,41.9841642 16.6771516,40.7060912 17.8702054,38.9634927 C19.0620118,37.221208 19.6588505,35.2466606 19.6588505,33.0392226 L19.6588505,32.6327628 L19.6588505,23.2226679 C21.7365602,23.1457701 23.6019151,22.5167774 25.2564742,21.3353759 C26.9104097,20.1546022 28.1418183,18.6342226 28.9497645,16.7758066 L28.9497645,33.0392226 Z M9.38692581,42.7977117 C8.07880753,42.7591058 6.85706559,42.4775657 5.72263548,41.9552883 C4.58758172,41.4320693 3.59628065,40.7261788 2.75060323,39.834792 C1.90399032,38.9446606 1.24042043,37.9183102 0.760205376,36.7566825 C0.278743011,35.5950547 0.0386354839,34.3559015 0.0386354839,33.0392226 C0.0386354839,31.7231715 0.278743011,30.4833905 0.760205376,29.3217628 C1.24042043,28.1604489 1.89432366,27.1344124 2.72191505,26.2430255 C3.5488828,25.3528942 4.53020538,24.6457482 5.66494731,24.1234708 C6.79968925,23.6002518 8.02111935,23.301135 9.32954946,23.2226679 L9.32954946,32.6327628 L9.32954946,33.0392226 C9.32954946,34.7815073 9.71309785,36.3988723 10.4839366,37.8894343 C11.2525925,39.3803102 12.3103129,40.6291934 13.6577215,41.6351423 C12.3489796,42.3711642 10.9251731,42.7591058 9.38692581,42.7977117 Z" id="Fill-93"></path>
                    <path d="M19.8780968,11.8499526 L28.7305806,11.8499526 L28.7305806,0.110010949 C27.5400215,0.206054745 26.4124516,0.49669708 25.3765591,0.973777372 C24.2726882,1.48255839 23.3063333,2.17903285 22.5024409,3.04405474 C21.6969892,3.91158759 21.0515054,4.92506934 20.5831398,6.05687956 C20.1153978,7.18460949 19.8780968,8.40681387 19.8780968,9.68959489 L19.8780968,11.8499526 Z M9.79108602,13.1625511 C8.48047312,13.1625511 7.2287957,13.4202372 6.06973118,13.9283905 C4.90848387,14.4377993 3.88256989,15.1355292 3.02130108,16.0024343 C2.15972043,16.8693394 1.47650538,17.8916095 0.990365591,19.0400547 C0.504225806,20.1881861 0.25788172,21.4392664 0.25788172,22.7584562 L0.25788172,27.7753321 C1.08141935,26.2367482 2.25326882,24.9401569 3.75253763,23.9119234 C5.53245161,22.6912883 7.56432258,22.0729672 9.79108602,22.0729672 L19.1973763,22.0729672 C20.4715054,22.0729672 21.6854516,21.8341131 22.8061613,21.3636241 C23.9299892,20.8925073 24.9368817,20.2424854 25.7987742,19.4314489 C26.6587957,18.6226095 27.3510538,17.6489891 27.8552796,16.538208 C28.3298817,15.4964781 28.6183226,14.3621569 28.7143656,13.1625511 L9.79108602,13.1625511 Z" id="Fill-94"></path>
                </g>
            </g>
        </g>
    </g>
</svg>