<?xml version="1.0" encoding="UTF-8"?>
<svg width="90px" height="90px" viewBox="0 0 90 90" version="1.1" xmlns="http://www.w3.org/2000/svg" xmlns:xlink="http://www.w3.org/1999/xlink">
    <!-- Generator: Sketch 48.2 (47327) - http://www.bohemiancoding.com/sketch -->
    <title>Phone</title>
    <desc>Created with Sketch.</desc>
    <defs></defs>
    <g id="Page-1" stroke="none" stroke-width="1" fill="none" fill-rule="evenodd">
        <g id="Phone" stroke="#FE9D21" stroke-width="4">
            <path d="M63.4017193,32.1944295 L57.753286,25.7880645 C57.3868095,25.3724126 57.3475495,24.6742416 57.6693956,24.2233328 L69.417328,7.764396 C69.7374731,7.31587047 70.3662346,7.21924566 70.7966923,7.53748529 C70.7966923,7.53748529 80.3056591,14.2445682 81.9167378,19.3626755 C76.5042069,43.3601221 38.5541097,76.0293929 21.8512449,81.8928478 C14.0128596,80.5853298 7.5637891,70.337061 7.5637891,70.337061 C7.25972037,69.8842716 7.37316741,69.2613201 7.82368414,68.9410359 L25.0643827,56.6841726 C25.5119875,56.3659586 26.1690461,56.437373 26.5414897,56.8553003 C26.5414897,56.8553003 31.9417253,62.8863155 32.6182426,63.9300891 C58.6927153,46.5572651 63.4017194,32.1944284 63.4017193,32.1944295 Z" transform="translate(44.655169, 44.621763) scale(-1, 1) translate(-44.655169, -44.621763) "></path>
        </g>
    </g>
</svg>