<?xml version="1.0" encoding="UTF-8"?>
<svg width="200px" height="200px" viewBox="0 0 200 200" version="1.1" xmlns="http://www.w3.org/2000/svg" xmlns:xlink="http://www.w3.org/1999/xlink">
    <!-- Generator: Sketch 48.2 (47327) - http://www.bohemiancoding.com/sketch -->
    <title>Placeholder_300px _ RED</title>
    <desc>Created with Sketch.</desc>
    <defs></defs>
    <g id="Page-1" stroke="none" stroke-width="1" fill="none" fill-rule="evenodd">
        <g id="Placeholder_300px-_-RED">
            <g id="Group-10-Copy" transform="translate(5.000000, 5.000000)">
                <g id="Page-1" fill="#231F20">
                    <g id="Group-278">
                        <path d="M31.187027,31.1565705 L80.2724657,80.2419094 C80.2114927,80.3216432 80.0168981,80.2700507 79.7502536,80.0089946 L31.0317505,32.1436141 C30.7635094,31.8808615 30.9086071,31.4532524 31.187027,31.1565705" id="Fill-2"></path>
                        <path d="M4.93039834,95.1633131 L73.2255168,95.7630636 C73.5986395,95.7668557 73.7717788,95.8690428 73.7580075,95.9694337 L4.34062703,95.9694337 C4.35449813,95.5637788 4.55488067,95.159521 4.93039834,95.1633131" id="Fill-4"></path>
                        <path d="M25.1482378,90.8517455 L65.420637,93.7309472 C66.1676807,93.7818412 66.1779593,93.2467559 65.4324125,93.1776998 L64.3048615,93.0772091 C63.5620091,93.0085522 63.5471401,93.599521 64.2914894,93.6501156 L65.420637,93.7309472 C66.1676807,93.7818412 66.1779593,93.2467559 65.4324125,93.1776998 L25.2168948,89.5910719 C24.4722462,89.5222154 24.4020923,90.8009514 25.1482378,90.8517455" id="Fill-6"></path>
                        <path d="M17.2193963,90.742543 L18.7255584,90.8416366 C19.4708058,90.8881397 19.5456499,89.5326636 18.8016998,89.4680981 L17.2975335,89.3427593 C16.5520865,89.2779942 16.4727518,90.6960399 17.2193963,90.742543" id="Fill-8"></path>
                        <path d="M15.3071202,83.8788125 C33.4953281,87.2840183 51.9343135,89.1887501 70.2287002,91.7074029 C70.9659642,91.806696 71.0250412,91.3645173 70.2870786,91.2464632 C52.0592532,88.4052823 33.6619809,86.1726337 15.5282595,82.4423052 C14.7945879,82.2886254 14.5724507,83.743694 15.3071202,83.8788125" id="Fill-10"></path>
                        <path d="M33.704632,80.2596025 C47.2765572,84.055694 61.0581455,87.0827875 74.7413389,90.3920931 C75.4664283,90.5652324 75.5526486,90.2076773 74.8293555,90.0158769 C61.2197089,86.4651742 47.4975967,83.1920931 33.989738,79.151511 C33.2733306,78.9344632 32.9854304,80.0608166 33.704632,80.2596025" id="Fill-12"></path>
                        <path d="M15.7982869,67.7697031 C35.8962162,74.3343268 55.8776881,81.2341522 75.7340208,88.4660857 C76.4381538,88.7199568 76.5542121,88.378069 75.8558669,88.1066345 C56.1380457,80.5218362 36.2892973,73.2667509 16.3180042,66.3447717 C15.6122744,66.0975867 15.0851726,67.5394827 15.7982869,67.7697031" id="Fill-14"></path>
                        <path d="M74.7029089,86.0334137 L41.900148,70.6649314 C41.2244557,70.3455967 40.7549339,71.3197672 41.4382104,71.6224366 L74.5105098,86.4021455 C75.1954827,86.7054137 75.3802977,86.353447 74.7029089,86.0334137" id="Fill-16"></path>
                        <path d="M35.2399634,67.97279 L29.0727119,65.1272183 C28.3946245,64.8115759 27.8225164,66.0131726 28.5081879,66.3121497 L34.7252358,69.0471518 C35.4101089,69.3458295 35.9173522,68.2882328 35.2399634,67.97279" id="Fill-18"></path>
                        <path d="M19.1973555,62.178222 L3.31214969,55.1818977 C2.63256549,54.8800266 1.85209148,56.5269954 2.57418711,56.827669 L18.5818378,63.5389871 C19.2408649,63.8121181 19.8845239,62.4835859 19.1973555,62.178222" id="Fill-20"></path>
                        <path d="M71.4645455,81.6494769 C61.7796225,75.7736183 52.0239468,69.9716058 41.7043459,65.211822 C41.0306495,64.898874 40.4401796,65.8615684 41.1283459,66.1612441 C51.5454437,70.7453938 61.4071983,76.3751651 71.1894187,82.0744915 C71.8374686,82.4488116 72.1016183,82.0385663 71.4645455,81.6494769" id="Fill-22"></path>
                        <path d="M74.2540441,79.5231967 C60.9770046,69.555363 47.6057613,59.710573 34.1426096,49.9901239 C33.5377696,49.5504399 32.7075992,50.6649181 33.3238154,51.0901322 C46.9601064,60.5724773 60.5064848,70.1803609 73.9609547,79.9130844 C74.5689879,80.3497746 74.8515992,79.9750553 74.2540441,79.5231967" id="Fill-24"></path>
                        <path d="M28.1633464,46.0213123 L26.9484773,45.1255784 C26.3473297,44.6795077 25.4286437,45.9196241 26.040469,46.3511252 L27.2711052,47.2250046 C27.8810345,47.6551085 28.7626977,46.4660857 28.1633464,46.0213123" id="Fill-26"></path>
                        <path d="M22.3818412,42.414227 L17.8064732,39.0819692 C17.2025314,38.6391917 16.1732757,40.0387759 16.7877954,40.4667842 L21.421442,43.7172125 C22.0337663,44.1438237 22.9833879,42.8555077 22.3818412,42.414227" id="Fill-28"></path>
                        <path d="M29.273294,39.1199601 C44.4152482,53.3214736 61.061768,65.87522 76.9946744,79.1697231 C77.5664832,79.6443343 77.8662586,79.3255983 77.3027326,78.8346212 C61.6270902,65.2773655 45.2100923,52.4359185 30.3128283,37.9603759 C29.7770445,37.436168 28.7271318,38.6111202 29.273294,39.1199601" id="Fill-30"></path>
                        <path d="M96,4.3101605 L96,73.7274412 C95.8995094,73.7414121 95.797422,73.5680732 95.7935301,73.1949505 L95.1938794,4.89983202 C95.1899875,4.52431435 95.5942453,4.32383202 96,4.3101605" id="Fill-32"></path>
                        <path d="M32.1742304,31.001284 L80.0394112,79.7197871 C80.3006669,79.986232 80.3521597,80.1810262 80.2724258,80.2418994 L31.1869871,31.1565605 C31.4838686,30.8781405 31.9114778,30.7330428 32.1742304,31.001284" id="Fill-34"></path>
                        <path d="M49.513936,42.2392516 L75.9419775,72.7631601 C76.4338528,73.327684 76.8150586,72.9562578 76.3369547,72.380158 L75.6111667,71.5112682 C75.1347593,70.9371642 74.7107426,71.3451143 75.2009214,71.9074428 L75.9419775,72.7631601 C76.4338528,73.327684 76.8150586,72.9562578 76.3369547,72.380158 L50.4526802,41.3935135 C49.9751751,40.8179127 49.0225597,41.6754262 49.513936,42.2392516" id="Fill-36"></path>
                        <path d="M43.9873597,36.5543651 L44.9818877,37.6897996 C45.4758586,38.2498328 46.4862536,37.341126 46.0061538,36.7693173 L45.0318836,35.6165189 C44.5507859,35.0434129 43.4925904,35.9931343 43.9873597,36.5543651" id="Fill-38"></path>
                        <path d="M47.4956308,30.3545813 C57.9463584,45.6303568 69.6286204,60.0198786 80.7763958,74.7312299 C81.227057,75.3224981 81.5793231,75.0421821 81.141136,74.4373422 C70.2665913,59.5461655 58.8447867,44.955363 48.6610029,29.4893838 C48.2508574,28.8616915 47.0718137,29.7391634 47.4956308,30.3545813" id="Fill-40"></path>
                        <path d="M63.0595958,40.8116557 C69.9764857,53.0951651 77.5804441,64.9786079 84.917259,76.9835975 C85.3074462,77.6181755 85.6193963,77.4122046 85.2433796,76.7658511 C78.1274046,64.6431069 70.7379992,52.628637 64.0375584,40.2184915 C63.6841946,39.5583667 62.691363,40.1625081 63.0595958,40.8116557" id="Fill-42"></path>
                        <path d="M59.2196956,19.3291609 C68.7984399,38.1726037 78.0587476,57.1703252 86.9970262,76.314242 C87.3155626,76.9912316 87.635496,76.8165954 87.3332258,76.1311235 C78.7408266,56.836321 69.8243027,37.6816266 60.5867476,18.6753231 C60.2621239,18.0018262 58.8780075,18.6625497 59.2196956,19.3291609" id="Fill-44"></path>
                        <path d="M87.9914844,73.8780175 L75.6417131,39.8237638 C75.3891393,39.1202295 74.3735551,39.4919551 74.6433929,40.1890029 L87.6019958,74.0162295 C87.8724324,74.714874 88.2445572,74.5830486 87.9914844,73.8780175" id="Fill-46"></path>
                        <path d="M72.8330345,33.2170778 L70.4802362,26.8456516 C70.2234711,26.1431152 68.9736748,26.6035559 69.247704,27.299506 L71.7144649,33.6279218 C71.9880948,34.3230736 73.0896,33.9189156 72.8330345,33.2170778" id="Fill-48"></path>
                        <path d="M65.5801247,17.7948574 L59.2830437,1.6198553 C59.0133056,0.920911435 57.3068607,1.56826279 57.5935634,2.26052058 L64.1795426,18.3200632 C64.4650478,19.0097264 65.8485655,18.4913064 65.5801247,17.7948574" id="Fill-50"></path>
                        <path d="M88.7863684,68.4984549 C86.0878902,57.4918852 83.2931127,46.4944965 79.3606054,35.8438852 C79.1055368,35.1469372 78.0102187,35.423062 78.2851459,36.1208083 C82.412148,46.715536 85.4052125,57.6660225 88.2987842,68.61601 C88.49278,69.3392033 88.9621023,69.2243426 88.7863684,68.4984549" id="Fill-52"></path>
                        <path d="M92.2374287,68.9623385 C89.9052873,52.5261805 87.4191667,36.1106794 84.7791667,19.7178312 C84.6626096,18.9794694 83.2873746,19.1892324 83.4221938,19.9256981 C86.3546844,36.2722428 89.1336948,52.6442345 91.7591252,69.0392782 C91.8797738,69.7780391 92.340015,69.7043925 92.2374287,68.9623385" id="Fill-54"></path>
                        <path d="M83.3601231,12.6853921 L83.1349921,11.1930012 C83.0257198,10.4525439 81.4979027,10.6889514 81.625437,11.4265148 L81.8771127,12.9147143 C82.004148,13.6502819 83.469096,13.4238536 83.3601231,12.6853921" id="Fill-56"></path>
                        <path d="M81.8246021,6.04926736 L80.9474295,0.457616632 C80.8338661,-0.282740956 79.1141489,-0.0117056133 79.2457746,0.72555842 L80.2226395,6.30074345 C80.3537663,7.03511351 81.9377663,6.78673098 81.8246021,6.04926736" id="Fill-58"></path>
                        <path d="M89.0286337,8.60029272 C89.6858644,29.3516607 92.5651659,49.9997439 94.4277854,70.6625963 C94.4965422,71.4024549 94.9375235,71.3854902 94.8864299,70.6399435 C93.3889497,49.9734985 90.8732906,29.2847002 90.5808998,8.51277505 C90.5729164,7.76333638 89.0026877,7.85434678 89.0286337,8.60029272" id="Fill-60"></path>
                        <path d="M160.812923,31.1565705 L111.727484,80.2419094 C111.64795,80.1810362 111.699443,79.986242 111.960599,79.7197971 L159.825879,31.001294 C160.088632,30.7330528 160.516241,30.8780507 160.812923,31.1565705" id="Fill-62"></path>
                        <path d="M96.8062304,4.89985198 L96.20638,73.1949705 C96.2025879,73.5680931 96.1005006,73.741432 96.00001,73.7274611 L96.00001,4.31018046 C96.4058644,4.32385198 96.8100225,4.5243343 96.8062304,4.89985198" id="Fill-64"></path>
                        <path d="M101.117658,25.1176915 L98.2385563,65.3900906 C98.1876624,66.1372341 98.7227476,66.1475127 98.791704,65.4019659 L98.8922944,64.2743152 C98.9610511,63.5314628 98.3700823,63.5165938 98.3193879,64.2610428 L98.2385563,65.3900906 C98.1876624,66.1372341 98.7227476,66.1475127 98.791704,65.4019659 L102.378432,25.1863484 C102.447288,24.4417996 101.168652,24.3715459 101.117658,25.1176915" id="Fill-66"></path>
                        <path d="M101.227,17.1889896 L101.127907,18.695052 C101.081404,19.4402994 102.43678,19.5150437 102.501346,18.7710936 L102.626784,17.267027 C102.691549,16.5216798 101.273703,16.4421455 101.227,17.1889896" id="Fill-68"></path>
                        <path d="M108.090731,15.2765738 C104.685625,33.4648815 102.780893,51.9038669 100.26224,70.1982536 C100.162847,70.9355177 100.605026,70.9945946 100.72308,70.2564324 C103.564261,52.0287069 105.79691,33.6314345 109.527238,15.4978129 C109.680918,14.7640416 108.225849,14.5419044 108.090731,15.2765738" id="Fill-70"></path>
                        <path d="M111.709951,33.6740857 C107.913859,47.2460108 104.886566,61.0275992 101.57746,74.7108923 C101.404321,75.4359817 101.761976,75.5221023 101.953577,74.7989089 C105.504279,61.1891626 108.77746,47.4670503 112.818042,33.9591917 C113.03509,33.242884 111.908637,32.954884 111.709951,33.6740857" id="Fill-72"></path>
                        <path d="M124.19984,15.7677405 C117.635217,35.8657696 110.735291,55.8471418 103.503358,75.7035742 C103.249587,76.4076075 103.591474,76.5237655 103.863009,75.8253206 C111.447607,56.1075992 118.702693,36.2587509 125.624672,16.2874578 C125.871957,15.5818279 124.43016,15.0546262 124.19984,15.7677405" id="Fill-74"></path>
                        <path d="M105.93614,74.6723626 L121.304622,41.8697015 C121.623857,41.1940091 120.649587,40.7243875 120.347017,41.407664 L105.567408,74.4799634 C105.26414,75.1649364 105.616007,75.3498511 105.93614,74.6723626" id="Fill-76"></path>
                        <path d="M123.996654,35.2095069 L126.842325,29.0422553 C127.157968,28.364168 125.956371,27.7919601 125.657394,28.4777314 L122.922192,34.6946794 C122.623714,35.3796524 123.681311,35.8868956 123.996654,35.2095069" id="Fill-78"></path>
                        <path d="M129.791421,19.1668091 L136.787546,3.28170312 C137.089417,2.60201913 135.442648,1.82154511 135.141874,2.54374054 L128.430457,18.5511917 C128.157326,19.2103185 129.485858,19.8540773 129.791421,19.1668091" id="Fill-80"></path>
                        <path d="M110.320067,71.4339892 C116.195925,61.7490661 121.997838,51.9934902 126.757622,41.6738894 C127.070669,41.0001929 126.107975,40.4095235 125.808299,41.0977896 C121.22415,51.5148873 115.594478,61.376642 109.894952,71.1588624 C109.520532,71.8069123 109.930977,72.071062 110.320067,71.4339892" id="Fill-82"></path>
                        <path d="M112.446496,74.2234877 C122.414131,60.9462486 132.258821,47.5753048 141.97937,34.1119534 C142.418954,33.5073131 141.304675,32.6770428 140.879262,33.2931593 C131.397016,46.9294503 121.789133,60.4759285 112.056509,73.9305979 C111.619819,74.5383318 111.994638,74.8210428 112.446496,74.2234877" id="Fill-84"></path>
                        <path d="M145.948381,28.1327501 L146.843915,26.9178811 C147.289986,26.3168333 146.04977,25.398247 145.618368,26.0099726 L144.744589,27.2406087 C144.314385,27.850538 145.503408,28.7322012 145.948381,28.1327501" id="Fill-86"></path>
                        <path d="M149.555316,22.3512848 L152.887574,17.7759168 C153.330352,17.1719751 151.930867,16.1427193 151.502759,16.7573389 L148.252231,21.3909854 C147.82582,22.00321 149.114036,22.9528316 149.555316,22.3512848" id="Fill-88"></path>
                        <path d="M152.849533,29.2427376 C138.64812,44.3846919 126.094373,61.0312116 112.799671,76.9641181 C112.325059,77.5361264 112.643795,77.8357023 113.134872,77.2721763 C126.692228,61.5965339 139.533675,45.1794362 154.009118,30.2822719 C154.533326,29.7465879 153.358373,28.6966753 152.849533,29.2427376" id="Fill-90"></path>
                        <path d="M187.659333,95.9694437 L118.242052,95.9694437 C118.228181,95.8690528 118.40152,95.7668657 118.774543,95.7630736 L187.069761,95.1633231 C187.445179,95.159531 187.645662,95.5637888 187.659333,95.9694437" id="Fill-92"></path>
                        <path d="M160.968259,32.1436341 L112.249756,80.0090146 C111.983112,80.2700707 111.788617,80.3216632 111.727444,80.2419293 L160.812883,31.1565904 C161.091303,31.4532723 161.236501,31.8808815 160.968259,32.1436341" id="Fill-94"></path>
                        <path d="M149.730252,49.4834794 L119.206343,75.911521 C118.64172,76.4033963 119.013046,76.7844025 119.589545,76.3063983 L120.458335,75.58081 C121.032439,75.1043027 120.624589,74.6801863 120.06216,75.1704649 L119.206343,75.911521 C118.64172,76.4033963 119.013046,76.7844025 119.589545,76.3063983 L150.57609,50.4223235 C151.151491,49.9447185 150.294077,48.9920033 149.730252,49.4834794" id="Fill-96"></path>
                        <path d="M155.415089,43.9569131 L154.279854,44.9514412 C153.71982,45.4454121 154.628328,46.4557073 155.200236,45.9756075 L156.352935,45.001437 C156.926141,44.5203393 155.976319,43.4619443 155.415089,43.9569131" id="Fill-98"></path>
                        <path d="M161.614862,47.4651243 C146.339187,57.915852 131.949565,69.5980141 117.238314,80.7458894 C116.647045,81.1966503 116.927262,81.5487168 117.532301,81.1106295 C132.423378,70.2360848 147.01418,58.8141805 162.48016,48.6304965 C163.107852,48.2203509 162.23018,47.0413073 161.614862,47.4651243" id="Fill-100"></path>
                        <path d="M151.157838,63.0291393 C138.874328,69.9460291 126.990886,77.5497879 114.985896,84.8867027 C114.351418,85.2769896 114.557289,85.5888399 115.203742,85.2128233 C127.326387,78.096948 139.340956,70.7075426 151.751002,64.0071019 C152.411227,63.653738 151.807085,62.6609064 151.157838,63.0291393" id="Fill-102"></path>
                        <path d="M172.640333,59.1892391 C153.79689,68.7678836 134.799168,78.0280915 115.655351,86.9663701 C114.978362,87.285106 115.152898,87.6049397 115.83837,87.3026694 C135.133272,78.7103701 154.287967,69.7937464 173.29427,60.5562911 C173.967667,60.2316674 173.306944,58.8475509 172.640333,59.1892391" id="Fill-104"></path>
                        <path d="M118.091476,87.9610378 L152.14583,75.6112665 C152.849264,75.3586927 152.477538,74.3431085 151.78059,74.6128466 L117.953364,87.5715493 C117.25462,87.8418861 117.386345,88.2141106 118.091476,87.9610378" id="Fill-106"></path>
                        <path d="M158.752376,72.8024782 L165.123902,70.4497796 C165.826438,70.1930146 165.365898,68.9432183 164.670047,69.2172474 L158.341632,71.6839085 C157.64638,71.9576383 158.050638,73.0590437 158.752376,72.8024782" id="Fill-108"></path>
                        <path d="M174.174636,65.5496682 L190.349538,59.2524873 C191.048682,58.9829489 190.401131,57.2763044 189.708973,57.5631069 L173.64943,64.1489863 C172.959767,64.4344915 173.478187,65.8180091 174.174636,65.5496682" id="Fill-110"></path>
                        <path d="M123.471089,88.7558121 C134.477558,86.0574337 145.475147,83.2625563 156.125658,79.3301489 C156.822506,79.0750802 156.546282,77.9796624 155.848635,78.2544898 C145.253908,82.3816915 134.303421,85.3746561 123.353533,88.2682279 C122.63024,88.4622237 122.745201,88.9315459 123.471089,88.7558121" id="Fill-112"></path>
                        <path d="M123.007215,92.2069721 C139.443373,89.8748308 155.858874,87.38881 172.251622,84.7486104 C172.989984,84.6320532 172.780321,83.2568183 172.043855,83.3916374 C155.697311,86.3241281 139.325319,89.1032383 122.930076,91.7285688 C122.191415,91.8493173 122.265161,92.3094586 123.007215,92.2069721" id="Fill-114"></path>
                        <path d="M179.284111,83.3297164 L180.776502,83.1044857 C181.517059,82.9952133 181.280552,81.4673963 180.542989,81.5949306 L179.054689,81.846706 C178.319222,81.9736416 178.54575,83.4384898 179.284111,83.3297164" id="Fill-116"></path>
                        <path d="M185.920286,81.7940457 L191.511937,80.9168732 C192.252294,80.8033098 191.981259,79.0835925 191.243995,79.2153181 L185.66871,80.1920832 C184.93424,80.3231102 185.182723,81.90721 185.920286,81.7940457" id="Fill-118"></path>
                        <path d="M183.369251,88.9980873 C162.617883,89.6553181 141.9697,92.5347193 121.307047,94.3972391 C120.566989,94.4659958 120.583953,94.9069771 121.3296,94.8558836 C141.995945,93.3585031 162.684843,90.8428441 183.456669,90.5504532 C184.206207,90.5424699 184.115197,88.9721414 183.369251,88.9980873" id="Fill-120"></path>
                        <path d="M160.812923,160.782417 L111.727484,111.696978 C111.788557,111.617444 111.983152,111.669036 112.249696,111.930092 L160.968299,159.795373 C161.236441,160.058026 161.091343,160.485635 160.812923,160.782417" id="Fill-122"></path>
                        <path d="M187.069741,96.7755343 L118.774523,96.1758836 C118.4015,96.1721913 118.228161,96.0699044 118.242032,95.9694137 L187.659313,95.9694137 C187.645642,96.375368 187.445259,96.7794262 187.069741,96.7755343" id="Fill-124"></path>
                        <path d="M166.851902,101.087252 L126.579503,98.2081497 C125.832259,98.1570561 125.821981,98.6921414 126.567528,98.7610977 L127.695079,98.8617879 C128.438131,98.9304449 128.453,98.3395759 127.708551,98.2888815 L126.579503,98.2081497 C125.832259,98.1570561 125.821981,98.6921414 126.567528,98.7610977 L166.783145,102.348025 C167.527694,102.416881 167.597948,101.138146 166.851902,101.087252" id="Fill-126"></path>
                        <path d="M174.780604,101.196404 L173.274442,101.09741 C172.529194,101.050907 172.45445,102.406383 173.1984,102.470849 L174.702566,102.596288 C175.447914,102.660953 175.527348,101.243007 174.780604,101.196404" id="Fill-128"></path>
                        <path d="M176.69283,108.060035 C158.504822,104.655029 140.065736,102.750297 121.77135,100.231744 C121.033986,100.132251 120.975009,100.57463 121.712971,100.692484 C139.940697,103.533765 158.338069,105.766314 176.471691,109.496742 C177.205462,109.650422 177.427499,108.195353 176.69283,108.060035" id="Fill-130"></path>
                        <path d="M158.295318,111.679444 C144.723393,107.883353 130.941904,104.85606 117.258611,101.546854 C116.533721,101.373815 116.447401,101.73137 117.170694,101.92317 C130.780341,105.473673 144.502453,108.747054 158.010412,112.787636 C158.72662,113.004684 159.01462,111.878031 158.295318,111.679444" id="Fill-132"></path>
                        <path d="M176.201763,124.169344 C156.103734,117.60472 136.122262,110.704895 116.265929,103.472862 C115.561996,103.21919 115.445838,103.560978 116.144283,103.832512 C135.862004,111.417111 155.710653,118.672296 175.681946,125.594175 C176.387676,125.84136 176.914877,124.399564 176.201763,124.169344" id="Fill-134"></path>
                        <path d="M117.297041,105.905583 L150.099902,121.274066 C150.775494,121.5935 151.245216,120.61903 150.561939,120.316461 L117.48954,105.536852 C116.804567,105.233683 116.619752,105.58545 117.297041,105.905583" id="Fill-136"></path>
                        <path d="M156.760037,123.966147 L162.927288,126.811919 C163.605375,127.127561 164.177484,125.925665 163.491812,125.626987 L157.274764,122.891686 C156.589891,122.593207 156.082648,123.650804 156.760037,123.966147" id="Fill-138"></path>
                        <path d="M172.802694,129.761015 L188.6879,136.75694 C189.367385,137.05901 190.147859,135.412141 189.425863,135.111368 L173.418312,128.39995 C172.759185,128.126919 172.115426,129.455451 172.802694,129.761015" id="Fill-140"></path>
                        <path d="M120.535504,110.28961 C130.220427,116.165469 139.976003,121.967381 150.295704,126.727165 C150.9694,127.040013 151.55997,126.077519 150.871604,125.777743 C140.454606,121.193693 130.592852,115.563922 120.810631,109.864396 C120.162581,109.490076 119.898332,109.900421 120.535504,110.28961" id="Fill-142"></path>
                        <path d="M117.746006,112.4159 C131.023145,122.383734 144.394189,132.228424 157.85754,141.948873 C158.46228,142.388557 159.292451,141.274179 158.676334,140.848865 C145.039943,131.36662 131.493665,121.758736 118.038995,112.026012 C117.431062,111.589322 117.148351,111.964042 117.746006,112.4159" id="Fill-144"></path>
                        <path d="M163.836604,145.917785 L165.051672,146.813419 C165.65262,147.25939 166.571207,146.019273 165.959481,145.587872 L164.728845,144.713993 C164.118916,144.283689 163.237452,145.472911 163.836604,145.917785" id="Fill-146"></path>
                        <path d="M169.618209,149.52492 L174.193477,152.856978 C174.797519,153.299855 175.826874,151.900271 175.212254,151.472363 L170.578508,148.221635 C169.966284,147.795323 169.016562,149.083539 169.618209,149.52492" id="Fill-148"></path>
                        <path d="M162.726806,152.819127 C147.584852,138.617613 130.938232,126.063767 115.005525,112.769164 C114.433517,112.294653 114.133841,112.613289 114.697168,113.104466 C130.37281,126.661721 146.790007,139.503168 161.687172,153.978611 C162.222956,154.502819 163.272868,153.327867 162.726806,152.819127" id="Fill-150"></path>
                        <path d="M96,187.628926 L96,118.211646 C96.1004906,118.197575 96.202578,118.370914 96.2063701,118.744236 L96.8062204,187.039255 C96.8100125,187.414773 96.4058545,187.615155 96,187.628926" id="Fill-152"></path>
                        <path d="M159.825919,160.937763 L111.960639,112.21916 C111.699383,111.952615 111.64799,111.758021 111.727524,111.696948 L160.812963,160.782387 C160.516281,161.060807 160.088672,161.206004 159.825919,160.937763" id="Fill-154"></path>
                        <path d="M142.486164,149.699646 L116.058022,119.175737 C115.566047,118.611313 115.185041,118.98264 115.663045,119.559138 L116.388733,120.427829 C116.865241,121.001933 117.289257,120.593983 116.799079,120.031654 L116.058022,119.175737 C115.566047,118.611313 115.185041,118.98264 115.663045,119.559138 L141.54722,150.545484 C142.024825,151.120885 142.97754,150.263471 142.486164,149.699646" id="Fill-156"></path>
                        <path d="M148.01264,155.384582 L147.018112,154.249247 C146.524341,153.689214 145.513746,154.597821 145.993846,155.16983 L146.968116,156.322428 C147.449214,156.895534 148.507509,155.945813 148.01264,155.384582" id="Fill-158"></path>
                        <path d="M144.504419,161.584266 C134.053691,146.30879 122.371529,131.919069 111.223654,117.207917 C110.772893,116.616549 110.420727,116.896865 110.859014,117.501705 C121.733359,132.392881 133.155263,146.983584 143.338947,162.449763 C143.749193,163.077356 144.928236,162.199784 144.504419,161.584266" id="Fill-160"></path>
                        <path d="M128.940454,151.127441 C122.023464,138.843832 114.419606,126.960289 107.082691,114.9554 C106.692504,114.320921 106.380654,114.526693 106.75667,115.173146 C113.872645,127.29599 121.262051,139.31046 127.962392,151.720605 C128.315855,152.38073 129.308587,151.776489 128.940454,151.127441" id="Fill-162"></path>
                        <path d="M132.780304,172.609826 C123.20156,153.766383 113.941252,134.768662 105.002974,115.624945 C104.684338,114.947855 104.364604,115.122392 104.666874,115.807864 C113.259173,135.102666 122.175697,154.25746 131.413352,173.263664 C131.737876,173.937161 133.122092,173.276437 132.780304,172.609826" id="Fill-164"></path>
                        <path d="M104.008516,118.06097 L116.358387,152.115323 C116.610761,152.818658 117.626445,152.447032 117.356707,151.750084 L104.398004,117.922758 C104.127568,117.224113 103.755543,117.355938 104.008516,118.06097" id="Fill-166"></path>
                        <path d="M119.166965,158.721869 L121.519864,165.093395 C121.776529,165.795932 123.026325,165.335491 122.752396,164.639441 L120.285535,158.311225 C120.011905,157.615973 118.9105,158.020032 119.166965,158.721869" id="Fill-168"></path>
                        <path d="M126.419825,174.14413 L132.717106,190.319032 C132.986644,191.018175 134.693189,190.370724 134.406486,189.678367 L127.820407,173.618924 C127.534902,172.929161 126.151584,173.447681 126.419825,174.14413" id="Fill-170"></path>
                        <path d="M103.213582,123.440492 C105.91206,134.446962 108.706937,145.444551 112.639345,156.095162 C112.894413,156.79201 113.989931,156.515885 113.714904,155.818039 C109.587802,145.223511 106.594837,134.272925 103.701166,123.322937 C103.50717,122.599744 103.037948,122.714704 103.213582,123.440492" id="Fill-172"></path>
                        <path d="M99.7626711,122.976709 C102.094613,139.412767 104.580833,155.828268 107.220933,172.221216 C107.337291,172.959478 108.712825,172.749715 108.578006,172.013149 C105.645316,155.666704 102.866305,139.294812 100.240975,122.899569 C100.120226,122.160908 99.659985,122.234555 99.7626711,122.976709" id="Fill-174"></path>
                        <path d="M108.639777,179.253605 L108.865108,180.746096 C108.97428,181.486553 110.501998,181.250146 110.374763,180.512383 L110.122788,179.024283 C109.995852,178.288715 108.530804,178.515243 108.639777,179.253605" id="Fill-176"></path>
                        <path d="M110.175348,185.88978 L111.05262,191.481331 C111.166284,192.221688 112.886001,191.950653 112.754275,191.213489 L111.77751,185.638204 C111.646184,184.903834 110.062284,185.152216 110.175348,185.88978" id="Fill-178"></path>
                        <path d="M102.971316,183.338654 C102.314185,162.587486 99.4347842,141.939104 97.5721647,121.276451 C97.5035077,120.536592 97.0625264,120.553557 97.11362,121.299104 C98.6110004,141.965548 101.126759,162.654347 101.41905,183.426172 C101.427034,184.175611 102.997362,184.0847 102.971316,183.338654" id="Fill-180"></path>
                        <path d="M31.187027,160.782417 L80.2724657,111.696978 C80.3521996,111.758051 80.3006071,111.952645 80.0394511,112.21909 L32.1742703,160.937793 C31.9114179,161.205934 31.4838087,161.060837 31.187027,160.782417" id="Fill-182"></path>
                        <path d="M95.1938694,187.039245 L95.7935202,118.744226 C95.7974121,118.370904 95.8994994,118.197565 95.99999,118.211636 L95.99999,187.628916 C95.5942353,187.615145 95.1899775,187.414862 95.1938694,187.039245" id="Fill-184"></path>
                        <path d="M90.8822919,166.821306 L93.7613938,126.548906 C93.8123875,125.801863 93.2773023,125.791385 93.2082462,126.536931 L93.1076557,127.664482 C93.0390985,128.407634 93.6299676,128.422503 93.680662,127.677954 L93.7613938,126.548906 C93.8123875,125.801863 93.2773023,125.791385 93.2082462,126.536931 L89.6215185,166.752549 C89.552662,167.497297 90.8313979,167.567451 90.8822919,166.821306" id="Fill-186"></path>
                        <path d="M90.7730994,174.749998 L90.8721929,173.244035 C90.9185963,172.498688 89.56322,172.423844 89.4986545,173.167894 L89.3732158,174.67186 C89.3085505,175.417307 90.7264965,175.496842 90.7730994,174.749998" id="Fill-188"></path>
                        <path d="M83.9094187,176.662323 C87.3145247,158.474215 89.2191568,140.03513 91.7378096,121.740843 C91.8372025,121.003479 91.3949239,120.944502 91.2769696,121.682465 C88.4358886,139.91029 86.2032399,158.307463 82.4728116,176.441284 C82.3192316,177.174956 83.7743002,177.396993 83.9094187,176.662323" id="Fill-190"></path>
                        <path d="M80.2901489,158.264911 C84.0862403,144.692986 87.1134337,130.911498 90.4226395,117.228105 C90.595679,116.503215 90.2380241,116.416795 90.0463235,117.140188 C86.4957206,130.749835 83.2224399,144.471947 79.1820574,157.979706 C78.9650096,158.696113 80.091363,158.984013 80.2901489,158.264911" id="Fill-192"></path>
                        <path d="M67.8001597,176.171257 C74.3648832,156.073227 81.2647085,136.091855 88.4965422,116.235523 C88.7505131,115.53139 88.4085256,115.415232 88.1369913,116.113677 C80.5523925,135.831498 73.2973073,155.680146 66.3753281,175.65144 C66.128143,176.357169 67.5699393,176.884371 67.8001597,176.171257" id="Fill-194"></path>
                        <path d="M86.0638603,117.266635 L70.695378,150.069395 C70.3760432,150.745088 71.3504133,151.21461 71.652983,150.531333 L86.4325921,117.459233 C86.7358603,116.774061 86.3839933,116.589246 86.0638603,117.266635" id="Fill-196"></path>
                        <path d="M68.0033464,156.72944 L65.1576748,162.896692 C64.8420324,163.574979 66.0437289,164.146987 66.3426062,163.461316 L69.0777081,157.244268 C69.3762861,156.559395 68.3186894,156.052151 68.0033464,156.72944" id="Fill-198"></path>
                        <path d="M62.2086287,172.772188 L55.2124042,188.657294 C54.9105331,189.336978 56.5574021,190.117452 56.8582753,189.395356 L63.5695933,173.387706 C63.8427243,172.728679 62.5140923,172.08502 62.2086287,172.772188" id="Fill-200"></path>
                        <path d="M81.6800333,120.505098 C75.8040748,130.189921 70.0021622,139.945497 65.2423784,150.265098 C64.9294304,150.938794 65.8921247,151.529464 66.1918004,150.841098 C70.7758503,140.4242 76.4056216,130.562445 82.1050478,120.780125 C82.479368,120.132075 82.0691227,119.867825 81.6800333,120.505098" id="Fill-202"></path>
                        <path d="M79.5536033,117.715499 C69.5858694,130.992639 59.7410794,144.363782 50.0207301,157.827034 C49.5810462,158.431774 50.6953247,159.261844 51.1207385,158.645728 C60.602884,145.009437 70.2108674,131.463059 79.9434911,118.008589 C80.3801813,117.400556 80.005462,117.117944 79.5536033,117.715499" id="Fill-204"></path>
                        <path d="M46.0517688,163.806197 L45.1561347,165.021066 C44.7099642,165.622214 45.9502802,166.5407 46.3816815,165.928975 L47.2555609,164.698338 C47.6856649,164.088409 46.496642,163.206846 46.0517688,163.806197" id="Fill-206"></path>
                        <path d="M42.4446836,169.587802 L39.1126254,174.16307 C38.6696482,174.767012 40.0691326,175.796467 40.4973405,175.181648 L43.7477688,170.548002 C44.1741805,169.935777 42.8859642,168.986056 42.4446836,169.587802" id="Fill-208"></path>
                        <path d="M39.1504665,162.696399 C53.3518802,147.554345 65.9056266,130.907726 79.2003293,114.974919 C79.6749405,114.40301 79.3562046,114.103435 78.8650279,114.666661 C65.3077721,130.342403 52.4664249,146.759501 37.9907825,161.656765 C37.4667742,162.192549 38.6415268,163.242262 39.1504665,162.696399" id="Fill-210"></path>
                        <path d="M4.34061705,95.9694437 L73.7579975,95.9694437 C73.7717688,96.0699343 73.5986295,96.1722212 73.2255069,96.1759135 L4.93038836,96.7755642 C4.55487069,96.7794561 4.35448815,96.3752981 4.34061705,95.9694437" id="Fill-212"></path>
                        <path d="M31.0317405,159.795413 L79.7502437,111.930132 C80.0169879,111.668976 80.2114827,111.617484 80.2724557,111.696918 L31.187017,160.782457 C30.9086969,160.485675 30.7634994,160.058066 31.0317405,159.795413" id="Fill-214"></path>
                        <path d="M42.2696981,142.455558 L72.7936067,116.027516 C73.3582304,115.535641 72.986904,115.154435 72.4105048,115.632539 L71.5418146,116.358327 C70.9676108,116.834834 71.3755609,117.258851 71.9378894,116.768472 L72.7936067,116.027516 C73.3582304,115.535641 72.986904,115.154435 72.4105048,115.632539 L41.4240599,141.516813 C40.848459,141.994319 41.7059726,142.946934 42.2696981,142.455558" id="Fill-216"></path>
                        <path d="M36.5848615,147.982034 L37.720296,146.987606 C38.2803293,146.493735 37.3717222,145.48314 36.7997139,145.96334 L35.6471152,146.93761 C35.0739094,147.418608 36.0236308,148.477003 36.5848615,147.982034" id="Fill-218"></path>
                        <path d="M30.3851376,144.473913 C45.6609131,134.023085 60.0504349,122.341023 74.7616865,111.193048 C75.3530545,110.742486 75.0727385,110.39022 74.4677988,110.828507 C59.5767218,121.702952 44.9859193,133.124757 29.5198403,143.308441 C28.892148,143.718686 29.7697198,144.89763 30.3851376,144.473913" id="Fill-220"></path>
                        <path d="M40.842252,128.909958 C53.1256615,121.993068 65.0092042,114.389109 77.014094,107.052195 C77.6486719,106.662007 77.442701,106.350057 76.7962478,106.726174 C64.6735035,113.842149 52.6590337,121.231554 40.2490877,127.931995 C39.5887634,128.285359 40.1931044,129.27819 40.842252,128.909958" id="Fill-222"></path>
                        <path d="M19.3597672,132.749708 C38.20321,123.171064 57.2009314,113.910756 76.3446486,104.972577 C77.0216383,104.653941 76.8471019,104.334007 76.1616299,104.636378 C56.8668274,113.228677 37.7120333,122.145101 18.7058295,131.382856 C18.0324324,131.70738 18.6930561,133.091496 19.3597672,132.749708" id="Fill-224"></path>
                        <path d="M73.908474,103.977909 L39.8543202,116.32788 C39.1507859,116.580254 39.5225114,117.595938 40.2194595,117.3263 L74.0466861,104.367398 C74.7453306,104.097161 74.613605,103.724936 73.908474,103.977909" id="Fill-226"></path>
                        <path d="M33.247674,119.136469 L26.8760482,121.489267 C26.1736116,121.746032 26.6340524,122.995928 27.3301023,122.721899 L33.6583185,120.255138 C34.3535701,119.981409 33.9495119,118.880003 33.247674,119.136469" id="Fill-228"></path>
                        <path d="M17.8254137,126.389329 L1.65041164,132.68661 C0.951367983,132.956248 1.59881913,134.662793 2.29107692,134.37599 L18.3506195,127.789911 C19.040183,127.504406 18.5218628,126.120988 17.8254137,126.389329" id="Fill-230"></path>
                        <path d="M68.5289114,103.183175 C57.5224416,105.881653 46.524953,108.676431 35.8743418,112.608838 C35.1774936,112.864007 35.4536183,113.959325 36.1513647,113.684398 C46.7460923,109.557395 57.6965788,106.564231 68.6465663,103.670659 C69.3697597,103.476564 69.2547992,103.007441 68.5289114,103.183175" id="Fill-232"></path>
                        <path d="M68.992785,99.7321148 C52.5567268,102.064057 36.1412258,104.550377 19.7483775,107.190477 C19.009916,107.306834 19.2197788,108.682169 19.9562445,108.547449 C36.3026894,105.614859 52.6745813,102.835749 69.0699243,100.210418 C69.8085854,100.08977 69.7349389,99.6293289 68.992785,99.7321148" id="Fill-234"></path>
                        <path d="M12.7159385,108.609281 L11.2234478,108.834511 C10.4828906,108.943884 10.7193979,110.471501 11.4570611,110.344166 L12.9452607,110.092391 C13.6807285,109.965256 13.4543002,108.500308 12.7159385,108.609281" id="Fill-236"></path>
                        <path d="M6.07981372,110.144802 L0.488162994,111.022074 C-0.252294387,111.135837 0.0188407484,112.855554 0.756104782,112.723629 L6.33128981,111.746964 C7.06565988,111.615837 6.81717755,110.031837 6.07981372,110.144802" id="Fill-238"></path>
                        <path d="M8.63084906,102.94076 C29.3821173,102.283629 50.0303002,99.4043277 70.6930528,97.5417081 C71.4329114,97.4729514 71.4160466,97.0319701 70.6704998,97.0831634 C50.0039551,98.5805439 29.3152565,101.096303 8.54343119,101.388494 C7.79379293,101.396677 7.88480333,102.966806 8.63084906,102.94076" id="Fill-240"></path>
                    </g>
                </g>
                <path d="M96.070617,61.2111261 C112.657751,45.9307438 128.739331,43.9056708 144.315356,55.135907 C167.679394,71.9812613 158,100.154123 145,115.077062 C136.333333,125.025687 120.023539,142 96.070617,166 C74.5165585,143.340722 58.1106795,126.033075 46.8529801,114.077062 C29.9664309,96.1430409 28.2478294,68.6815717 50.5816525,54.1101798 C65.4708679,44.3959186 80.6338561,46.7629007 96.070617,61.2111261 Z" id="Path-5-Copy-2" fill="#FFFFFF"></path>
                <g id="Group-8" transform="translate(39.000000, 53.000000)" fill="#CF1444" stroke="#7C0B28" stroke-width="3">
                    <path d="M57.6290007,15.6406547 C75.9214868,35.2508112 89.3381534,50.6335037 97.8790007,61.7887324 C102.879001,68.3192488 107.879001,74.3474178 101.879001,78.8685446 C95.348787,83.7891985 84.2283198,69.5303136 78.5,64.8028169 C85,72.8403756 98.6209993,82.8873239 92.5,88.915493 C85.7262481,95.586515 72,78.8685446 66.8790007,74.3474178 C65.5979154,73.2163986 87.1582511,91.2545503 80,97.4553991 C72.8417489,103.656248 66.1290007,91.9295775 57.6290007,85.9014085 C74.8790007,100.971831 67.6209993,104.488263 65,106.497653 C61.0806662,108.172144 55.8736664,105.158059 49.3790007,97.4553991 C35.212334,82.0953348 22.962334,69.0569302 12.6290007,58.3401853 C-2.87099931,42.2650679 -5.37099931,17.6500444 15.1290007,4.58901155 C28.7956674,-4.1183437 42.962334,-0.434462632 57.6290007,15.6406547 Z" id="Path-5-Copy-3" stroke-linecap="round" stroke-linejoin="round"></path>
                    <path d="M56.5,15.0704225 C66.75,5.50006019 82.4969284,-7.03286385 102.248464,6.53051643 C122,20.0938967 114,50.7370892 98,61.7887324 C91.5,56.2629108 80,42.1971831 69.5,33.1549296 C58.5,39.1830986 46,50.2347418 36.5,45.713615 C28.5,40.1877934 36,35.6666667 56.5,15.0704225 Z" id="Path-5"></path>
                    <g id="Group-7" transform="translate(9.500000, 51.741784)">
                        <path d="M42,36.1690141 C44.5,33.657277 51.5,27.1267606 55.5,31.6478873 C59.5,36.1690141 52.5,43.2018779 47,48.2253521 C41.5,53.2488263 40,56.2629108 36,54.2535211 C32,52.2441315 30,49.2774886 32.5,45.713615 C35,42.1497414 39.5,38.6807512 42,36.1690141 Z" id="Path-6"></path>
                        <path d="M24.6902526,33.911453 C29.1902526,28.8879789 34.6902526,23.8645047 37.6902526,21.3527676 C40.6902526,18.8410305 44.1902526,17.8673448 47.1902526,21.3527676 C50.1902526,24.8381904 44.6902526,31.399716 44.1902526,31.9020634 C43.8569193,32.2369617 40.0235859,36.5906393 32.6902526,44.9630962 C30.0235859,47.3073842 27.3569193,47.3073842 24.6902526,44.9630962 C20.6902526,41.4466643 20.1902526,38.9349272 24.6902526,33.911453 Z" id="Path-7"></path>
                        <path d="M4.1902526,15.826946 C8.6902526,10.8034718 14.1902526,5.77999765 17.1902526,3.26826056 C20.1902526,0.756523467 23.6902526,-0.217162269 26.6902526,3.26826056 C29.6902526,6.75368338 24.1902526,13.3152089 23.6902526,13.8175563 C23.3569193,14.1524546 19.5235859,18.5061322 12.1902526,26.8785892 C9.52358593,29.2228771 6.85691927,29.2228771 4.1902526,26.8785892 C0.190252601,23.3621573 -0.309747399,20.8504202 4.1902526,15.826946 Z" id="Path-7-Copy-2" transform="translate(14.290406, 14.820750) rotate(3.000000) translate(-14.290406, -14.820750) "></path>
                        <path d="M14.6902526,24.4739321 C19.1902526,19.4504579 24.5,15.57277 27.5,13.0610329 C30.5,10.5492958 34,7.03286385 38.5,11.5539906 C43,16.0751174 34.6902526,23.0769721 34.1902526,23.5793195 C33.8569193,23.9142178 30.0235859,28.2678954 22.6902526,36.6403524 C20.0235859,38.9846404 17.3569193,38.9846404 14.6902526,36.6403524 C10.6902526,33.1239205 10.1902526,29.4974062 14.6902526,24.4739321 Z" id="Path-7-Copy"></path>
                    </g>
                </g>
            </g>
        </g>
    </g>
</svg>