<?xml version="1.0" encoding="UTF-8"?>
<svg width="90px" height="90px" viewBox="0 0 90 90" version="1.1" xmlns="http://www.w3.org/2000/svg" xmlns:xlink="http://www.w3.org/1999/xlink">
    <!-- Generator: Sketch 48.2 (47327) - http://www.bohemiancoding.com/sketch -->
    <title>Testimonial Commas</title>
    <desc>Created with Sketch.</desc>
    <defs></defs>
    <g id="Page-1" stroke="none" stroke-width="1" fill="none" fill-rule="evenodd">
        <g id="Testimonial-Commas" fill="#239AAC">
            <path d="M57.8059139,42.2704607 C57.8059139,44.0751022 58.8774037,45.0338036 61.0204154,45.1465937 L64.4041012,45.3157779 C66.659903,45.428568 68.6618971,46.5000578 70.4101435,48.5302795 C72.1583899,50.5605011 73.0325,52.8726633 73.0325,55.4668353 C73.0325,58.6249579 71.904616,61.2754853 69.6488142,63.418497 C67.3930124,65.5615087 64.5733024,66.6329985 61.1895997,66.6329985 C57.2419465,66.6329985 53.9992801,65.082158 51.461503,61.9804305 C48.923726,58.878703 47.6548565,54.902912 47.6548565,50.0529381 C47.6548565,41.0297308 51.2076911,31.7810821 58.3134668,22.3067145 C60.9076389,18.8102217 63.1634068,17.0620015 65.0808384,17.0620015 C67.2238501,17.0620015 68.2953399,18.1898855 68.2953399,20.4456873 C68.2953399,21.348008 67.6750037,22.5886804 66.4343127,24.1677417 C63.3889802,28.0026048 60.8512413,32.5705349 58.8210196,37.8716692 C58.1442791,39.6763106 57.8059139,41.1425598 57.8059139,42.2704607 Z M27.0143731,42.2704607 C27.0143731,44.0751022 28.0858629,45.0338036 30.2288746,45.1465937 L33.6125604,45.3157779 C35.9811523,45.428568 38.0395406,46.5000578 39.787787,48.5302795 C41.5360334,50.5605011 42.4101435,52.8726633 42.4101435,55.4668353 C42.4101435,58.6249579 41.2822595,61.2754853 39.0264577,63.418497 C36.7706559,65.5615087 33.9509459,66.6329985 30.5672432,66.6329985 C26.61959,66.6329985 23.3769236,65.082158 20.8391465,61.9804305 C18.3013695,58.878703 17.0325,54.902912 17.0325,50.0529381 C17.0325,41.0297308 20.5853346,31.7810821 27.6911103,22.3067145 C30.2852824,18.8102217 32.5410503,17.0620015 34.4584819,17.0620015 C36.6014936,17.0620015 37.6729834,18.1898855 37.6729834,20.4456873 C37.6729834,21.348008 37.0526472,22.5886804 35.8119562,24.1677417 C33.5561544,26.987494 31.5259632,30.2583575 29.7213218,33.9804305 C27.9166803,37.7025035 27.0143731,40.4658193 27.0143731,42.2704607 Z" id="“-copy"></path>
        </g>
    </g>
</svg>